<svg width="47" height="47" viewBox="0 0 47 47" fill="none" xmlns="http://www.w3.org/2000/svg">
<path d="M36.9979 1.31581V1.31095C36.1636 0.472306 35.0297 0.000485537 33.8468 0H13.1483C10.6899 0.00801136 8.69911 1.99884 8.6911 4.45723V42.5379C8.69159 43.7208 9.16341 44.8548 10.0021 45.689C10.8351 46.5265 11.9671 46.9982 13.1483 47H33.8516C35.0328 46.9982 36.1649 46.5265 36.9979 45.689C37.8353 44.856 38.307 43.724 38.3089 42.5428V4.46209C38.307 3.2809 37.8353 2.14887 36.9979 1.31581ZM23.5 43.9751C22.8349 43.9751 22.2958 43.436 22.2958 42.771C22.2958 42.1059 22.8349 41.5668 23.5 41.5668C24.165 41.5668 24.7041 42.1059 24.7041 42.771C24.7041 43.436 24.165 43.9751 23.5 43.9751ZM34.7693 36.4153C34.7693 38.0242 33.465 39.3285 31.8561 39.3285H15.139C13.5301 39.3285 12.2258 38.0242 12.2258 36.4153V8.03564C12.2258 6.42669 13.5301 5.12242 15.139 5.12242H31.8609C33.4699 5.12242 34.7742 6.42669 34.7742 8.03564L34.7693 36.4153Z" fill="#77BB46"/>
</svg>
