<svg width="184" height="183" viewBox="0 0 184 183" fill="none" xmlns="http://www.w3.org/2000/svg">
<g opacity="0.9">
<g clip-path="url(#clip0)">
<path d="M11.5 30.5H48.6667C51.4281 30.5 53.6667 32.7386 53.6667 35.5V116.094C53.6667 118.303 51.8758 120.094 49.6667 120.094H33.7083C31.4992 120.094 29.7083 118.303 29.7083 116.094V56.9347C29.7083 55.8301 28.8129 54.9347 27.7083 54.9347H11.5V30.5Z" fill="#6AA727"/>
<path d="M11.5 22.875H47.4583C53.5335 22.875 58.4583 27.7999 58.4583 33.875V116.094C58.4583 118.303 56.6675 120.094 54.4583 120.094H37.5417C35.3325 120.094 33.5417 118.303 33.5417 116.094V51.3892C33.5417 50.2846 32.6462 49.3892 31.5417 49.3892H11.5V22.875Z" fill="url(#paint0_linear)"/>
<path d="M89.852 80.0625H79.2231C61.933 80.0625 47.9166 92.0109 47.9166 106.75C47.9166 121.489 61.933 133.438 79.2231 133.438H130.722C134.741 133.438 138 130.179 138 126.159C138 122.139 134.741 118.881 130.722 118.881H79.2231C71.3639 118.881 64.9929 113.45 64.9929 106.75C64.9929 100.05 71.3639 94.6193 79.2231 94.6193H89.852V80.0625Z" fill="#6AA727"/>
<path d="M94.2549 55.2812H75.6215C46.5594 55.2812 23 78.3246 23 106.75C23 135.175 46.5594 158.219 75.6215 158.219H160.38C168.132 158.219 174.417 151.934 174.417 144.182C174.417 136.429 168.132 130.145 160.38 130.145H75.6215C62.4114 130.145 51.7026 119.671 51.7026 106.75C51.7026 93.8294 62.4114 83.3551 75.6215 83.3551H94.2549V55.2812Z" fill="url(#paint1_linear)"/>
</g>
</g>
<defs>
<linearGradient id="paint0_linear" x1="38.8327" y1="35.7228" x2="-10.6827" y2="60.9388" gradientUnits="userSpaceOnUse">
<stop stop-color="#AFCA05"/>
<stop offset="0.651042" stop-color="#74BE3A"/>
<stop offset="1" stop-color="#79B653"/>
</linearGradient>
<linearGradient id="paint1_linear" x1="111.134" y1="68.8849" x2="52.0858" y2="160.46" gradientUnits="userSpaceOnUse">
<stop stop-color="#AFCA05"/>
<stop offset="0.651042" stop-color="#74BE3A"/>
<stop offset="1" stop-color="#79B653"/>
</linearGradient>
<clipPath id="clip0">
<rect width="172.5" height="137.25" fill="white" transform="translate(5.75 22.875)"/>
</clipPath>
</defs>
</svg>
