<svg width="36" height="36" viewBox="0 0 36 36" fill="none" xmlns="http://www.w3.org/2000/svg">
<g clip-path="url(#clip0)">
<rect x="2.11765" y="2.11768" width="26.1176" height="33.8824" rx="5" fill="#77BB46"/>
<path d="M15.0465 11.1691C14.3487 11.1691 13.781 10.6829 13.781 10.0855C13.781 9.48797 14.3487 9.00182 15.0465 9.00182C15.7444 9.00182 16.3121 9.48797 16.3121 10.0855C16.3121 10.4738 16.6269 10.7886 17.0152 10.7886C17.4035 10.7886 17.7183 10.4738 17.7183 10.0855C17.7183 8.93932 16.8827 7.97224 15.7497 7.68382V7.20752C15.7497 6.81918 15.4349 6.50439 15.0465 6.50439C14.6582 6.50439 14.3434 6.81918 14.3434 7.20752V7.68382C13.2102 7.97224 12.3747 8.93939 12.3747 10.0855C12.3747 11.4583 13.5733 12.5752 15.0465 12.5752C15.7444 12.5752 16.3121 13.0614 16.3121 13.6589C16.3121 14.2564 15.7444 14.7425 15.0465 14.7425C14.3487 14.7425 13.781 14.2563 13.781 13.6589C13.781 13.2706 13.4662 12.9558 13.0779 12.9558C12.6895 12.9558 12.3747 13.2706 12.3747 13.6589C12.3747 14.8051 13.2103 15.7721 14.3434 16.0606V16.6343C14.3434 17.0227 14.6582 17.3374 15.0465 17.3374C15.4349 17.3374 15.7497 17.0227 15.7497 16.6343V16.0606C16.8828 15.7721 17.7183 14.8051 17.7183 13.6589C17.7183 12.2861 16.5197 11.1691 15.0465 11.1691Z" fill="white"/>
<path d="M22.1105 11.1694H20.7401C20.3518 11.1694 20.037 11.4842 20.037 11.8726C20.037 12.2609 20.3518 12.5757 20.7401 12.5757H22.1105C22.4989 12.5757 22.8137 12.2609 22.8137 11.8726C22.8137 11.4842 22.4989 11.1694 22.1105 11.1694Z" fill="white"/>
<path d="M9.35297 11.1694H7.98257C7.59424 11.1694 7.27945 11.4842 7.27945 11.8726C7.27945 12.2609 7.59424 12.5757 7.98257 12.5757H9.35297C9.7413 12.5757 10.0561 12.2609 10.0561 11.8726C10.0561 11.4842 9.7413 11.1694 9.35297 11.1694Z" fill="white"/>
<path d="M22.4663 18.9849H11.3271C10.9388 18.9849 10.624 19.2997 10.624 19.688C10.624 20.0763 10.9388 20.3911 11.3271 20.3911H22.4663C22.8546 20.3911 23.1694 20.0763 23.1694 19.688C23.1693 19.2997 22.8546 18.9849 22.4663 18.9849Z" fill="white"/>
<path d="M8.12376 19.1909C7.99298 19.0601 7.81157 18.9849 7.62665 18.9849C7.44173 18.9849 7.26032 19.0601 7.12954 19.1909C6.99876 19.3217 6.92352 19.5031 6.92352 19.688C6.92352 19.8729 6.99876 20.0543 7.12954 20.1851C7.26032 20.3159 7.44173 20.3911 7.62665 20.3911C7.81157 20.3911 7.99298 20.3159 8.12376 20.1851C8.25454 20.0543 8.32977 19.8729 8.32977 19.688C8.32977 19.5031 8.25454 19.3217 8.12376 19.1909Z" fill="white"/>
<path d="M22.4663 23.6255H11.3271C10.9388 23.6255 10.624 23.9403 10.624 24.3286C10.624 24.7169 10.9388 25.0317 11.3271 25.0317H22.4663C22.8546 25.0317 23.1694 24.7169 23.1694 24.3286C23.1693 23.9403 22.8546 23.6255 22.4663 23.6255Z" fill="white"/>
<path d="M8.12376 23.8315C7.99298 23.7007 7.81157 23.6255 7.62665 23.6255C7.44173 23.6255 7.26032 23.7007 7.12954 23.8315C6.99876 23.9623 6.92352 24.1437 6.92352 24.3286C6.92352 24.5135 6.99876 24.6949 7.12954 24.8257C7.26032 24.9565 7.44173 25.0317 7.62665 25.0317C7.81157 25.0317 7.99298 24.9565 8.12376 24.8257C8.25454 24.6949 8.32977 24.5135 8.32977 24.3286C8.32977 24.1437 8.25454 23.9623 8.12376 23.8315Z" fill="white"/>
<path d="M22.4663 28.2656H11.3271C10.9388 28.2656 10.624 28.5804 10.624 28.9688C10.624 29.3571 10.9388 29.6719 11.3271 29.6719H22.4663C22.8546 29.6719 23.1694 29.3571 23.1694 28.9688C23.1694 28.5804 22.8546 28.2656 22.4663 28.2656Z" fill="white"/>
<path d="M8.12376 28.4716C7.99298 28.3409 7.81157 28.2656 7.62665 28.2656C7.44173 28.2656 7.26032 28.3409 7.12954 28.4716C6.99876 28.6024 6.92352 28.7838 6.92352 28.9688C6.92352 29.1537 6.99876 29.3351 7.12954 29.4659C7.26032 29.5966 7.44173 29.6719 7.62665 29.6719C7.81157 29.6719 7.99298 29.5966 8.12376 29.4659C8.25454 29.3351 8.32977 29.1537 8.32977 28.9688C8.32977 28.7838 8.25454 28.6024 8.12376 28.4716Z" fill="white"/>
<path d="M25 2H28V8H25V2Z" fill="#77BB46"/>
<rect x="21" y="1" width="3" height="6" rx="1.5" fill="#77BB46"/>
<rect x="21" y="2" width="3" height="6" fill="#77BB46"/>
<rect x="16" y="1" width="3" height="6" rx="1.5" fill="#77BB46"/>
<rect x="11" y="1" width="3" height="6" rx="1.5" fill="#77BB46"/>
<rect x="2" y="2" width="3" height="6" rx="1.5" fill="#77BB46"/>
<rect x="7" y="1" width="1" height="2" fill="#77BB46"/>
</g>
<path d="M33.398 17.2969H28.1941V0.70318C28.1941 0.418836 28.0227 0.162406 27.76 0.0535624C27.4972 -0.0553516 27.1948 0.0049765 26.9938 0.20593L25.0019 2.19774L23.0101 0.206C22.7356 -0.0685704 22.2903 -0.0685704 22.0157 0.206L20.0239 2.19781L18.0323 0.206C17.7577 -0.0685704 17.3125 -0.0685704 17.0379 0.206L15.046 2.19781L13.0542 0.206C12.7796 -0.0685704 12.3344 -0.0685704 12.0598 0.206L10.068 2.19781L8.07631 0.206C7.80174 -0.0685704 7.35652 -0.0685704 7.08188 0.206L5.09007 2.19781L3.09833 0.206C2.82545 -0.0668829 2.38409 -0.0682891 2.10882 0.202133C1.96426 0.344234 1.89416 0.533586 1.89901 0.721672V32.3439C1.89901 34.3599 3.53912 36 5.55512 36H30.4441C32.4601 36 34.1012 34.3599 34.1012 32.3439V18C34.1012 17.6116 33.7864 17.2969 33.398 17.2969ZM5.55512 34.5937C4.31445 34.5937 3.30519 33.5844 3.30519 32.3438V2.40158L4.59289 3.68928C4.86746 3.96385 5.31268 3.96385 5.58732 3.68928L7.57913 1.69747L9.57095 3.68928C9.84552 3.96385 10.2907 3.96385 10.5654 3.68928L12.5572 1.69747L14.5491 3.68928C14.8236 3.96385 15.2689 3.96385 15.5434 3.68928L17.5352 1.69747L19.5271 3.68928C19.8016 3.96385 20.2468 3.96385 20.5215 3.68928L22.5133 1.69747L24.5051 3.68928C24.7798 3.96385 25.225 3.96385 25.4995 3.68928L26.7882 2.40059V18C26.7882 18.0064 26.789 18.0126 26.7892 18.019V32.3438C26.7892 33.1919 27.0803 33.9728 27.5667 34.5937H5.55512ZM32.6949 32.3438C32.6949 33.5844 31.6856 34.5937 30.445 34.5937C29.2044 34.5937 28.195 33.5844 28.195 32.3438V18.7031H32.6949V32.3438Z" fill="#77BB46"/>
<defs>
<clipPath id="clip0">
<rect width="36" height="36" fill="white"/>
</clipPath>
</defs>
</svg>
