<svg width="46" height="46" viewBox="0 0 46 46" fill="none" xmlns="http://www.w3.org/2000/svg">
<path d="M0.746737 43.2732C0.784139 43.8117 1.02419 44.3159 1.41853 44.6844C1.81287 45.0529 2.33221 45.2583 2.87193 45.2592C2.92204 45.2592 2.97231 45.2574 3.02275 45.2539C3.4437 45.2247 3.84652 45.0713 4.18029 44.8131C4.51406 44.555 4.76378 44.2037 4.89787 43.8036C5.03196 43.4035 5.0444 42.9726 4.93361 42.5655C4.82283 42.1583 4.59379 41.7932 4.27547 41.5162C3.95715 41.2392 3.56385 41.0628 3.14529 41.0094C2.72673 40.9559 2.30173 41.0278 1.92401 41.2159C1.5463 41.404 1.23285 41.6999 1.02329 42.0661C0.813741 42.4323 0.717498 42.8525 0.746737 43.2734V43.2732Z" fill="#78B94C"/>
<path d="M6.93524 39.8779C7.38397 39.8779 7.74774 39.5142 7.74774 39.0654C7.74774 38.6167 7.38397 38.2529 6.93524 38.2529C6.48651 38.2529 6.12274 38.6167 6.12274 39.0654C6.12274 39.5142 6.48651 39.8779 6.93524 39.8779Z" fill="#78B94C"/>
<path d="M9.23331 37.5796C9.68204 37.5796 10.0458 37.2158 10.0458 36.7671C10.0458 36.3184 9.68204 35.9546 9.23331 35.9546C8.78458 35.9546 8.42081 36.3184 8.42081 36.7671C8.42081 37.2158 8.78458 37.5796 9.23331 37.5796Z" fill="#78B94C"/>
<path d="M10.9569 33.8947C10.8433 34.0083 10.7659 34.1531 10.7345 34.3107C10.7032 34.4683 10.7192 34.6317 10.7807 34.7801C10.8422 34.9286 10.9464 35.0555 11.08 35.1448C11.2136 35.2341 11.3707 35.2817 11.5314 35.2817C11.6921 35.2817 11.8492 35.2341 11.9828 35.1448C12.1164 35.0555 12.2206 34.9286 12.2821 34.7801C12.3436 34.6317 12.3596 34.4683 12.3283 34.3107C12.2969 34.1531 12.2195 34.0083 12.1059 33.8947C11.9535 33.7423 11.7469 33.6567 11.5314 33.6567C11.3159 33.6567 11.1093 33.7423 10.9569 33.8947Z" fill="#78B94C"/>
<path d="M13.2547 31.5964C13.1411 31.71 13.0637 31.8548 13.0323 32.0124C13.001 32.17 13.0171 32.3334 13.0786 32.4818C13.1401 32.6303 13.2442 32.7572 13.3778 32.8465C13.5114 32.9357 13.6685 32.9834 13.8292 32.9834C13.9899 32.9834 14.147 32.9357 14.2806 32.8465C14.4142 32.7572 14.5184 32.6303 14.5799 32.4818C14.6414 32.3334 14.6575 32.17 14.6261 32.0124C14.5948 31.8548 14.5174 31.71 14.4038 31.5964C14.3283 31.5209 14.2387 31.4611 14.1402 31.4203C14.0416 31.3794 13.9359 31.3584 13.8292 31.3584C13.7225 31.3584 13.6169 31.3794 13.5183 31.4203C13.4197 31.4611 13.3301 31.5209 13.2547 31.5964Z" fill="#78B94C"/>
<path d="M14.1574 18.8246L17.0852 28.4195L17.5626 23.4968C17.5827 23.2885 17.6825 23.096 17.8411 22.9594L39.1402 4.28125L14.1574 18.8246Z" fill="#78B94C"/>
<path d="M19.5676 23.6169L27.8762 31.8465L45.1623 0.112305L19.5676 23.6169Z" fill="#78B94C"/>
<path d="M18.6011 29.6231L20.5575 26.8842L19.0147 25.356L18.6011 29.6231Z" fill="#78B94C"/>
<path d="M13.3217 17.4304L45.1623 0.112305L8.44202 12.5972L13.3217 17.4304Z" fill="#78B94C"/>
</svg>
