<svg width="32" height="32" viewBox="0 0 32 32" fill="none" xmlns="http://www.w3.org/2000/svg">
<path d="M29.5697 10.7569C29.6694 10.2225 29.7199 9.67994 29.7206 9.13621C29.7145 4.08635 25.6158 -0.00242534 20.566 0.00366891C16.7218 0.00828983 13.291 2.41686 11.9808 6.03089C9.63496 5.09706 6.97619 6.24171 6.0423 8.58759C5.96146 8.79065 5.8953 8.99919 5.84433 9.21169C2.09858 9.77189 -0.48378 13.2626 0.0764227 17.0083C0.57883 20.3677 3.46483 22.8531 6.86154 22.8517H12.5763C13.2075 22.8517 13.7193 22.34 13.7193 21.7087C13.7193 21.0775 13.2075 20.5658 12.5763 20.5658H6.86154C4.33658 20.5658 2.28971 18.5189 2.28971 15.9939C2.28971 13.469 4.33658 11.4221 6.86154 11.4221C7.4928 11.4221 8.00451 10.9104 8.00451 10.2791C8.00659 9.01667 9.0317 7.99491 10.2941 7.99699C10.8912 7.99799 11.4642 8.23252 11.8905 8.65041C12.3401 9.09349 13.0638 9.0882 13.5068 8.63863C13.6732 8.4698 13.7829 8.25348 13.8209 8.01949C14.4413 4.28706 17.97 1.76431 21.7024 2.38471C25.4348 3.00512 27.9576 6.53376 27.3372 10.2662C27.3002 10.4887 27.2522 10.7093 27.1934 10.9271C27.0621 11.4042 27.2526 11.9116 27.6655 12.1843C29.7694 13.5803 30.3433 16.4176 28.9473 18.5216C28.1023 19.795 26.677 20.562 25.1487 20.5656H21.7199C21.0886 20.5656 20.5769 21.0773 20.5769 21.7086C20.5769 22.3399 21.0886 22.8516 21.7199 22.8516H25.1487C28.9361 22.848 32.0036 19.7748 31.9999 15.9874C31.9981 13.9715 31.1092 12.0585 29.5697 10.7569Z" fill="white"/>
<path d="M23.645 24.3296C23.2021 23.9019 22.4999 23.9019 22.0571 24.3296L18.291 28.0934V11.4223C18.291 10.791 17.7793 10.2793 17.148 10.2793C16.5168 10.2793 16.0051 10.791 16.0051 11.4223V28.0933L12.2413 24.3296C11.7872 23.8911 11.0637 23.9036 10.6252 24.3576C10.1974 24.8006 10.1974 25.5027 10.6252 25.9457L16.3399 31.6604C16.7857 32.1073 17.5094 32.1083 17.9563 31.6624C17.957 31.6618 17.9576 31.6611 17.9584 31.6604L23.6731 25.9457C24.1117 25.4917 24.0991 24.7682 23.645 24.3296Z" fill="white"/>
</svg>
