<svg width="88" height="87" viewBox="0 0 88 87" fill="none" xmlns="http://www.w3.org/2000/svg">
<g clip-path="url(#clip0)">
<path d="M87.8304 47.5187C87.0402 39.6617 83.4898 32.2545 77.8326 26.6614C72.998 21.882 67.0806 18.8106 60.8542 17.4449V13.1275C63.3973 12.502 65.2876 10.2262 65.2876 7.52115C65.2876 4.3354 62.6661 1.74371 59.4437 1.74371H47.0685C43.8462 1.74371 41.2247 4.3354 41.2247 7.52115C41.2247 10.226 43.115 12.5018 45.6579 13.1275V17.457C39.4506 18.8284 33.5528 21.8956 28.7319 26.6616C27.6769 27.7046 26.7041 28.7988 25.8136 29.9359C25.7705 29.9327 25.7273 29.9294 25.6833 29.9294H13.4352C12.4861 29.9294 11.7164 30.6902 11.7164 31.6287C11.7164 32.5672 12.4861 33.3279 13.4352 33.3279H23.4749C22.2147 35.4137 21.1985 37.6042 20.4251 39.8591H1.71878C0.769668 39.8591 0 40.6199 0 41.5584C0 42.4969 0.769668 43.2576 1.71878 43.2576H19.4538C18.9585 45.4073 18.6742 47.5951 18.6008 49.789H11.0002C10.0511 49.789 9.28139 50.5498 9.28139 51.4883C9.28139 52.4268 10.0511 53.1875 11.0002 53.1875H18.6556C18.8007 55.387 19.1583 57.575 19.7288 59.7189H8.59388C7.64478 59.7189 6.87511 60.4796 6.87511 61.4181C6.87511 62.3566 7.64478 63.1174 8.59388 63.1174H20.8257C22.5119 67.5271 25.1469 71.6602 28.7319 75.2045C34.3946 80.8028 41.8947 84.3138 49.8502 85.0908C50.9856 85.2016 52.1219 85.2565 53.2566 85.2565C59.9637 85.2565 66.5854 83.3375 72.2041 79.7202C72.9995 79.208 73.2245 78.1554 72.7065 77.3689C72.1885 76.5825 71.1237 76.3601 70.3282 76.8723C58.0292 84.7902 41.5576 83.0782 31.1626 72.8014C18.9658 60.7432 18.9658 41.1232 31.1626 29.0649C43.3592 17.0068 63.2048 17.0068 75.4017 29.0649C85.783 39.3283 87.5241 55.5987 79.5416 67.7521C79.0245 68.5392 79.2509 69.5917 80.0469 70.1026C80.8434 70.6138 81.9076 70.39 82.4245 69.6029C86.6894 63.1092 88.6093 55.2664 87.8304 47.5187ZM44.6622 7.52132C44.6622 6.2095 45.7416 5.14237 47.0685 5.14237H59.4437C60.7706 5.14237 61.85 6.2095 61.85 7.52132C61.85 8.83313 60.7706 9.90026 59.4437 9.90026H59.1354H47.3767H47.0685C45.7416 9.90026 44.6622 8.83296 44.6622 7.52132ZM49.0955 16.8728V13.2987H57.4166V16.8667C54.6535 16.5418 51.8581 16.5438 49.0955 16.8728Z" fill="white"/>
<path d="M76.6179 72.3029C76.1641 72.3029 75.7224 72.4847 75.4029 72.8007C75.0815 73.1168 74.8991 73.5552 74.8991 74.0021C74.8991 74.449 75.0815 74.8874 75.4029 75.2034C75.7224 75.5212 76.1643 75.7013 76.6179 75.7013C77.0699 75.7013 77.5116 75.5212 77.833 75.2034C78.1527 74.8874 78.3366 74.449 78.3366 74.0021C78.3366 73.5552 78.1529 73.1168 77.833 72.8007C77.5116 72.4847 77.0697 72.3029 76.6179 72.3029Z" fill="white"/>
<path d="M53.2823 24.5726C38.5802 24.5726 26.619 36.3976 26.619 50.9328C26.619 65.468 38.5802 77.293 53.2823 77.293C67.9843 77.293 79.9455 65.468 79.9455 50.9328C79.9455 36.3976 67.9843 24.5726 53.2823 24.5726ZM53.2823 73.8945C40.4755 73.8945 30.0566 63.5939 30.0566 50.9328C30.0566 38.2717 40.4755 27.9711 53.2823 27.9711C66.089 27.9711 76.5079 38.2717 76.5079 50.9328C76.5079 63.5939 66.089 73.8945 53.2823 73.8945Z" fill="white"/>
<path d="M64.1545 37.781L55.6414 46.1972C54.9295 45.8492 54.1288 45.6526 53.2823 45.6526C52.4356 45.6526 51.635 45.8492 50.9231 46.1972L47.1131 42.4305C46.4417 41.7669 45.3537 41.7669 44.6822 42.4305C44.011 43.094 44.011 44.17 44.6822 44.8335L48.4922 48.6003C48.14 49.3041 47.9413 50.0958 47.9413 50.9326C47.9413 53.8441 50.3371 56.2129 53.2823 56.2129C56.2274 56.2129 58.6232 53.8441 58.6232 50.9326C58.6232 50.0958 58.4243 49.3041 58.0723 48.6003L66.3355 40.431L66.5852 40.1841C67.2564 39.5205 67.2564 38.4445 66.5852 37.781C65.9141 37.1174 64.8261 37.1174 64.1545 37.781ZM53.2823 52.8146C52.2328 52.8146 51.3789 51.9704 51.3789 50.9328C51.3789 49.8953 52.2328 49.0511 53.2823 49.0511C54.3317 49.0511 55.1856 49.8953 55.1856 50.9328C55.1856 51.9704 54.3317 52.8146 53.2823 52.8146Z" fill="white"/>
<path d="M71.6592 49.2543H70.0668C69.1177 49.2543 68.348 50.015 68.348 50.9535C68.348 51.892 69.1177 52.6527 70.0668 52.6527H71.6592C72.6083 52.6527 73.3779 51.892 73.3779 50.9535C73.3779 50.015 72.6083 49.2543 71.6592 49.2543Z" fill="white"/>
<path d="M36.4975 49.2128H34.9052C33.9561 49.2128 33.1865 49.9736 33.1865 50.912C33.1865 51.8505 33.9561 52.6113 34.9052 52.6113H36.4975C37.4466 52.6113 38.2162 51.8505 38.2162 50.912C38.2162 49.9736 37.4466 49.2128 36.4975 49.2128Z" fill="white"/>
<path d="M53.3032 36.038C54.2523 36.038 55.0219 35.2773 55.0219 34.3388V32.7646C55.0219 31.8262 54.2523 31.0654 53.3032 31.0654C52.3541 31.0654 51.5844 31.8262 51.5844 32.7646V34.3388C51.5844 35.2773 52.3541 36.038 53.3032 36.038Z" fill="white"/>
<path d="M53.2613 65.8275C52.3122 65.8275 51.5425 66.5883 51.5425 67.5268V69.1009C51.5425 70.0394 52.3122 70.8001 53.2613 70.8001C54.2104 70.8001 54.98 70.0394 54.98 69.1009V67.5268C54.98 66.5883 54.2104 65.8275 53.2613 65.8275Z" fill="white"/>
<path d="M1.71875 59.7183C1.26672 59.7183 0.823281 59.9001 0.503594 60.2161C0.183906 60.5322 0 60.9706 0 61.4175C0 61.8661 0.183734 62.3028 0.503594 62.6188C0.823453 62.9349 1.26672 63.1167 1.71875 63.1167C2.17078 63.1167 2.61422 62.9349 2.93373 62.6188C3.25342 62.3028 3.4375 61.8644 3.4375 61.4175C3.4375 60.9706 3.25359 60.5322 2.93373 60.2161C2.61422 59.9001 2.17078 59.7183 1.71875 59.7183Z" fill="white"/>
</g>
<defs>
<clipPath id="clip0">
<rect width="88" height="87" fill="white"/>
</clipPath>
</defs>
</svg>
