<svg width="86" height="86" viewBox="0 0 86 86" fill="none" xmlns="http://www.w3.org/2000/svg">
<g clip-path="url(#clip0)">
<path d="M81.7 0H4.3C1.92518 0 0 1.92518 0 4.3V61.6333C0 64.0082 1.92518 65.9333 4.3 65.9333H13.6339C18.3531 78.034 30.0117 86.0009 43 86.0009C55.9883 86.0009 67.6469 78.034 72.3661 65.9333H81.7C84.0748 65.9333 86 64.0082 86 61.6333V4.3C86 1.92518 84.0748 0 81.7 0ZM4.3 2.86667H81.7C82.4916 2.86667 83.1333 3.50839 83.1333 4.3V11.4667H2.86667V4.3C2.86667 3.50839 3.50839 2.86667 4.3 2.86667ZM25.8387 55.9C25.9157 60.1233 26.4853 64.3232 27.5358 68.4144C24.6534 68.8114 21.7927 69.3525 18.9644 70.0355C16.2202 65.8104 14.6472 60.9323 14.4064 55.9H25.8387ZM44.4333 41.5466C48.2403 41.5007 51.9712 41.2814 55.5589 40.8844C56.6258 44.8492 57.2091 48.9285 57.2961 53.0333H44.4333V41.5466ZM44.4333 38.6799V25.9505C48.6086 26.8248 52.3167 31.4731 54.6688 38.0937C51.3621 38.4406 47.9335 38.6369 44.4333 38.6799ZM41.5667 25.9505V38.6799C38.0665 38.6369 34.6379 38.4406 31.3312 38.0937C33.6833 31.4731 37.3914 26.8248 41.5667 25.9505ZM41.5667 41.5466V53.0333H28.7039C28.7909 48.9285 29.3742 44.8492 30.4411 40.8844C34.0288 41.28 37.7597 41.5007 41.5667 41.5466ZM28.7039 55.9H41.5667V67.3867C37.7597 67.4326 34.0288 67.6519 30.4411 68.0489C29.3742 64.0842 28.7909 60.0049 28.7039 55.9ZM41.5667 70.2534V82.99C37.3914 82.1157 33.6833 77.4674 31.3312 70.8468C34.6379 70.4928 38.0665 70.2964 41.5667 70.2534ZM44.4333 82.99V70.2534C47.9335 70.2964 51.3621 70.4928 54.6688 70.8396C52.3167 77.4602 48.6086 82.1085 44.4333 82.99ZM44.4333 67.3939V55.9H57.2961C57.2091 60.0049 56.6258 64.0842 55.5589 68.0489C51.9712 67.6533 48.2403 67.4326 44.4333 67.3867V67.3939ZM60.1613 55.9H71.5936C71.3528 60.9323 69.7798 65.8104 67.0356 70.0355C64.2073 69.3525 61.3466 68.8114 58.4642 68.4144C59.5147 64.3232 60.0843 60.1233 60.1613 55.9ZM60.1613 53.0333C60.0843 48.8101 59.5147 44.6102 58.4642 40.5189C61.3466 40.1219 64.2073 39.5809 67.0356 38.8978C69.7798 43.1229 71.3528 48.001 71.5936 53.0333H60.1613ZM57.6358 37.7382C56.4331 33.8256 54.4052 30.2165 51.6889 27.1545C56.9974 28.8547 61.6973 32.0611 65.2167 36.3837C62.8072 36.9313 60.2688 37.3828 57.6358 37.7382ZM28.3642 37.7382C25.7312 37.3828 23.1928 36.9313 20.7819 36.3837C24.3017 32.0609 29.0021 28.8544 34.3111 27.1545C31.5948 30.2165 29.5669 33.8256 28.3642 37.7382ZM18.9644 38.8978C21.7927 39.5809 24.6534 40.1219 27.5358 40.5189C26.4853 44.6102 25.9157 48.8101 25.8387 53.0333H14.4064C14.6472 48.001 16.2202 43.1229 18.9644 38.8978ZM20.7833 72.5496C23.1942 72.0021 25.7326 71.5463 28.3657 71.1951C29.5683 75.1077 31.5962 78.7168 34.3126 81.7788C29.0035 80.0789 24.3031 76.8724 20.7833 72.5496ZM51.6903 81.7788C54.4067 78.7168 56.4346 75.1077 57.6372 71.1951C60.2702 71.5506 62.8087 72.0021 65.2195 72.5496C61.6994 76.8727 56.9984 80.0792 51.6889 81.7788H51.6903ZM81.7 63.0667H73.3308C76.989 50.2025 72.1343 36.4299 61.2179 28.7031C50.3016 20.9763 35.6984 20.9763 24.7821 28.7031C13.8657 36.4299 9.01099 50.2025 12.6692 63.0667H4.3C3.50839 63.0667 2.86667 62.4249 2.86667 61.6333V14.3333H83.1333V61.6333C83.1333 62.4249 82.4916 63.0667 81.7 63.0667Z" fill="white"/>
<path d="M7.16666 8.60001C7.95827 8.60001 8.6 7.95828 8.6 7.16667C8.6 6.37506 7.95827 5.73334 7.16666 5.73334C6.37506 5.73334 5.73333 6.37506 5.73333 7.16667C5.73333 7.95828 6.37506 8.60001 7.16666 8.60001Z" fill="white"/>
<path d="M12.9 8.60001C13.6916 8.60001 14.3333 7.95828 14.3333 7.16667C14.3333 6.37506 13.6916 5.73334 12.9 5.73334C12.1084 5.73334 11.4667 6.37506 11.4667 7.16667C11.4667 7.95828 12.1084 8.60001 12.9 8.60001Z" fill="white"/>
<path d="M18.6333 8.60001C19.4249 8.60001 20.0667 7.95828 20.0667 7.16667C20.0667 6.37506 19.4249 5.73334 18.6333 5.73334C17.8417 5.73334 17.2 6.37506 17.2 7.16667C17.2 7.95828 17.8417 8.60001 18.6333 8.60001Z" fill="white"/>
<path d="M38.7 8.60001H47.3C48.0916 8.60001 48.7333 7.95828 48.7333 7.16667C48.7333 6.37506 48.0916 5.73334 47.3 5.73334H38.7C37.9084 5.73334 37.2667 6.37506 37.2667 7.16667C37.2667 7.95828 37.9084 8.60001 38.7 8.60001Z" fill="white"/>
<path d="M63.0667 8.60001H78.8333C79.6249 8.60001 80.2667 7.95828 80.2667 7.16667C80.2667 6.37506 79.6249 5.73334 78.8333 5.73334H63.0667C62.2751 5.73334 61.6333 6.37506 61.6333 7.16667C61.6333 7.95828 62.2751 8.60001 63.0667 8.60001Z" fill="white"/>
<path d="M7.16666 21.5H10.0333C10.8249 21.5 11.4667 20.8583 11.4667 20.0667C11.4667 19.2751 10.8249 18.6333 10.0333 18.6333H7.16666C6.37505 18.6333 5.73333 19.2751 5.73333 20.0667C5.73333 20.8583 6.37505 21.5 7.16666 21.5Z" fill="white"/>
<path d="M10.0333 30.1H7.16666C6.37505 30.1 5.73333 30.7417 5.73333 31.5333C5.73333 32.3249 6.37505 32.9667 7.16666 32.9667H10.0333C10.8249 32.9667 11.4667 32.3249 11.4667 31.5333C11.4667 30.7417 10.8249 30.1 10.0333 30.1Z" fill="white"/>
<path d="M28.6667 18.6333H15.7667C14.9751 18.6333 14.3333 19.2751 14.3333 20.0667C14.3333 20.8583 14.9751 21.5 15.7667 21.5H28.6667C29.4583 21.5 30.1 20.8583 30.1 20.0667C30.1 19.2751 29.4583 18.6333 28.6667 18.6333Z" fill="white"/>
<path d="M18.6333 24.3667H7.16666C6.37506 24.3667 5.73333 25.0084 5.73333 25.8C5.73333 26.5916 6.37506 27.2333 7.16666 27.2333H18.6333C19.4249 27.2333 20.0667 26.5916 20.0667 25.8C20.0667 25.0084 19.4249 24.3667 18.6333 24.3667Z" fill="white"/>
</g>
<defs>
<clipPath id="clip0">
<rect width="86" height="86" fill="white"/>
</clipPath>
</defs>
</svg>
