<svg width="95" height="94" viewBox="0 0 95 94" fill="none" xmlns="http://www.w3.org/2000/svg">
<path d="M11.875 73.4375H7.42188C7.02819 73.4375 6.65064 73.5922 6.37226 73.8677C6.09389 74.1431 5.9375 74.5167 5.9375 74.9062C5.9375 75.2958 6.09389 75.6694 6.37226 75.9448C6.65064 76.2203 7.02819 76.375 7.42188 76.375H11.875C12.2687 76.375 12.6462 76.2203 12.9246 75.9448C13.203 75.6694 13.3594 75.2958 13.3594 74.9062C13.3594 74.5167 13.203 74.1431 12.9246 73.8677C12.6462 73.5922 12.2687 73.4375 11.875 73.4375Z" fill="white"/>
<path d="M17.8125 73.4375H16.3281C15.9344 73.4375 15.5569 73.5922 15.2785 73.8677C15.0001 74.1431 14.8438 74.5167 14.8438 74.9062C14.8438 75.2958 15.0001 75.6694 15.2785 75.9448C15.5569 76.2203 15.9344 76.375 16.3281 76.375H17.8125C18.2062 76.375 18.5837 76.2203 18.8621 75.9448C19.1405 75.6694 19.2969 75.2958 19.2969 74.9062C19.2969 74.5167 19.1405 74.1431 18.8621 73.8677C18.5837 73.5922 18.2062 73.4375 17.8125 73.4375Z" fill="white"/>
<path d="M87.5781 30.8438H84.6094V19.0938C84.6073 17.5362 83.9811 16.0431 82.868 14.9418C81.755 13.8404 80.246 13.2208 78.6719 13.2188H16.3281C14.7539 13.2205 13.2447 13.84 12.1316 14.9414C11.0185 16.0428 10.3924 17.5361 10.3906 19.0938V45.5312H7.42188C5.84769 45.533 4.3385 46.1525 3.22538 47.2539C2.11227 48.3553 1.48614 49.8486 1.48438 51.4062V74.9062C1.48614 76.4639 2.11227 77.9572 3.22538 79.0586C4.3385 80.16 5.84769 80.7795 7.42188 80.7812H22.2656C23.8397 80.7792 25.3487 80.1596 26.4618 79.0583C27.5748 77.9569 28.2011 76.4638 28.2031 74.9062V70.5H41.145L40.4028 73.4375H35.625C35.2313 73.4375 34.8538 73.5922 34.5754 73.8677C34.297 74.1431 34.1406 74.5167 34.1406 74.9062V79.3125C34.1406 79.702 34.297 80.0756 34.5754 80.3511C34.8538 80.6265 35.2313 80.7812 35.625 80.7812H87.5781C89.1522 80.7792 90.6612 80.1596 91.7743 79.0583C92.8873 77.9569 93.5136 76.4638 93.5156 74.9062V36.7188C93.5136 35.1612 92.8873 33.6681 91.7743 32.5668C90.6612 31.4654 89.1522 30.8458 87.5781 30.8438ZM25.2344 74.9062C25.2333 75.685 24.9202 76.4316 24.3637 76.9823C23.8072 77.5329 23.0527 77.8427 22.2656 77.8438H7.42188C6.63483 77.8427 5.88032 77.5329 5.32379 76.9823C4.76727 76.4316 4.45416 75.685 4.45312 74.9062V51.4062C4.45416 50.6275 4.76727 49.8809 5.32379 49.3302C5.88032 48.7796 6.63483 48.4698 7.42188 48.4688H9.32002L10.4667 51.8707C10.5652 52.1632 10.7543 52.4176 11.007 52.5978C11.2598 52.778 11.5634 52.875 11.875 52.875H17.8125C18.1241 52.875 18.4277 52.778 18.6805 52.5978C18.9332 52.4176 19.1223 52.1632 19.2208 51.8707L20.3675 48.4688H22.2656C23.0527 48.4698 23.8072 48.7796 24.3637 49.3302C24.9202 49.8809 25.2333 50.6275 25.2344 51.4062V74.9062ZM12.4502 48.4688H17.2373L16.7419 49.9375H12.9456L12.4502 48.4688ZM28.2031 67.5625V63.1562H54.9219V67.5625H28.2031ZM54.9219 70.5V73.4375H54.5972L53.855 70.5H54.9219ZM51.5356 73.4375H43.4644L44.2065 70.5H50.7935L51.5356 73.4375ZM37.1094 77.8438V76.375H55.1093C55.2452 76.8898 55.4511 77.3839 55.7216 77.8438H37.1094ZM54.9219 36.7188V60.2188H28.2031V51.4062C28.2011 49.8487 27.5748 48.3556 26.4618 47.2542C25.3487 46.1529 23.8397 45.5333 22.2656 45.5312H13.3594V19.0938C13.3604 18.315 13.6735 17.5684 14.23 17.0178C14.7866 16.4671 15.5411 16.1573 16.3281 16.1562H78.6719C79.4589 16.1573 80.2134 16.4671 80.77 17.0178C81.3265 17.5684 81.6396 18.315 81.6406 19.0938V30.8438H60.8594C59.2853 30.8458 57.7763 31.4654 56.6632 32.5668C55.5502 33.6681 54.9239 35.1612 54.9219 36.7188ZM90.5469 74.9062C90.5458 75.685 90.2327 76.4316 89.6762 76.9823C89.1197 77.5329 88.3652 77.8427 87.5781 77.8438H60.8594C60.0723 77.8427 59.3178 77.5329 58.7613 76.9823C58.2048 76.4316 57.8917 75.685 57.8906 74.9062V36.7188C57.8917 35.94 58.2048 35.1934 58.7613 34.6427C59.3178 34.0921 60.0723 33.7823 60.8594 33.7812H87.5781C88.3652 33.7823 89.1197 34.0921 89.6762 34.6427C90.2327 35.1934 90.5458 35.94 90.5469 36.7188V74.9062Z" fill="white"/>
<path d="M87.5781 35.25H60.8594C60.4657 35.25 60.0881 35.4047 59.8098 35.6802C59.5314 35.9556 59.375 36.3292 59.375 36.7188V70.5C59.375 70.8895 59.5314 71.2631 59.8098 71.5386C60.0881 71.814 60.4657 71.9688 60.8594 71.9688H87.5781C87.9718 71.9688 88.3494 71.814 88.6277 71.5386C88.9061 71.2631 89.0625 70.8895 89.0625 70.5V36.7188C89.0625 36.3292 88.9061 35.9556 88.6277 35.6802C88.3494 35.4047 87.9718 35.25 87.5781 35.25ZM86.0938 69.0312H62.3438V38.1875H86.0938V69.0312Z" fill="white"/>
<path d="M72.7344 76.375C73.5542 76.375 74.2188 75.7174 74.2188 74.9062C74.2188 74.0951 73.5542 73.4375 72.7344 73.4375C71.9146 73.4375 71.25 74.0951 71.25 74.9062C71.25 75.7174 71.9146 76.375 72.7344 76.375Z" fill="white"/>
</svg>
