<svg width="97" height="97" viewBox="0 0 97 97" fill="none" xmlns="http://www.w3.org/2000/svg">
<path d="M82.6129 33H42.3871C42.0192 33 41.6664 33.137 41.4063 33.3808C41.1461 33.6246 41 33.9552 41 34.3V44.7C41 45.0448 41.1461 45.3754 41.4063 45.6192C41.6664 45.863 42.0192 46 42.3871 46H82.6129C82.9808 46 83.3336 45.863 83.5937 45.6192C83.8539 45.3754 84 45.0448 84 44.7V34.3C84 33.9552 83.8539 33.6246 83.5937 33.3808C83.3336 33.137 82.9808 33 82.6129 33ZM81.2258 43.4H43.7742V35.6H81.2258V43.4Z" fill="white"/>
<path d="M15 8H46V11H15V8Z" fill="white"/>
<path d="M15 15H46V18H15V15Z" fill="white"/>
<path d="M28 22H57V24H28V22Z" fill="white"/>
<path d="M85.85 27.3333H72.0167V8.2C72.0167 7.83754 71.8709 7.48992 71.6115 7.23362C71.3521 6.97732 71.0002 6.83333 70.6333 6.83333H58.7505L52.2488 0.396333C51.9851 0.144599 51.6334 0.00269819 51.2667 0H8.38333C8.01645 0 7.66459 0.143988 7.40517 0.400287C7.14574 0.656587 7 1.0042 7 1.36667V73.8C7 74.1625 7.14574 74.5101 7.40517 74.7664C7.66459 75.0227 8.01645 75.1667 8.38333 75.1667H13.9167V80.6333C13.9167 80.9958 14.0624 81.3434 14.3218 81.5997C14.5813 81.856 14.9331 82 15.3 82H85.85C86.9496 81.9968 88.0033 81.5638 88.7809 80.7956C89.5584 80.0274 89.9967 78.9864 90 77.9V31.4333C89.9967 30.3469 89.5584 29.306 88.7809 28.5378C88.0033 27.7696 86.9496 27.3366 85.85 27.3333ZM69.25 9.56667V27.3333H65.1V13.6667C65.0973 13.3043 64.9536 12.9569 64.6988 12.6963L61.5172 9.56667H69.25ZM52.65 4.66033L60.3828 12.3H52.65V4.66033ZM16.6833 79.2667V75.1667H36.05V77.9C36.0537 78.3662 36.1379 78.8284 36.299 79.2667H16.6833ZM36.05 31.4333V72.4333H9.76667V2.73333H49.8833V13.6667C49.8833 14.0291 50.0291 14.3767 50.2885 14.633C50.5479 14.8893 50.8998 15.0333 51.2667 15.0333H62.3333V27.3333H40.2C39.1004 27.3366 38.0467 27.7696 37.2691 28.5378C36.4916 29.306 36.0533 30.3469 36.05 31.4333ZM87.2333 77.9C87.2333 78.2625 87.0876 78.6101 86.8282 78.8664C86.5687 79.1227 86.2169 79.2667 85.85 79.2667H40.2C39.8331 79.2667 39.4813 79.1227 39.2218 78.8664C38.9624 78.6101 38.8167 78.2625 38.8167 77.9V31.4333C38.8167 31.0709 38.9624 30.7233 39.2218 30.467C39.4813 30.2107 39.8331 30.0667 40.2 30.0667H85.85C86.2169 30.0667 86.5687 30.2107 86.8282 30.467C87.0876 30.7233 87.2333 31.0709 87.2333 31.4333V77.9Z" fill="white"/>
<path d="M50.625 51H42.375C42.0103 51 41.6606 51.1449 41.4027 51.4027C41.1449 51.6606 41 52.0103 41 52.375V60.625C41 60.9897 41.1449 61.3394 41.4027 61.5973C41.6606 61.8551 42.0103 62 42.375 62H50.625C50.9897 62 51.3394 61.8551 51.5973 61.5973C51.8551 61.3394 52 60.9897 52 60.625V52.375C52 52.0103 51.8551 51.6606 51.5973 51.4027C51.3394 51.1449 50.9897 51 50.625 51ZM49.25 59.25H43.75V53.75H49.25V59.25Z" fill="white"/>
<path d="M50.625 64H42.375C42.0103 64 41.6606 64.1449 41.4027 64.4027C41.1449 64.6606 41 65.0103 41 65.375V73.625C41 73.9897 41.1449 74.3394 41.4027 74.5973C41.6606 74.8551 42.0103 75 42.375 75H50.625C50.9897 75 51.3394 74.8551 51.5973 74.5973C51.8551 74.3394 52 73.9897 52 73.625V65.375C52 65.0103 51.8551 64.6606 51.5973 64.4027C51.3394 64.1449 50.9897 64 50.625 64ZM49.25 72.25H43.75V66.75H49.25V72.25Z" fill="white"/>
<path d="M66.625 51H58.375C58.0103 51 57.6606 51.1449 57.4027 51.4027C57.1449 51.6606 57 52.0103 57 52.375V60.625C57 60.9897 57.1449 61.3394 57.4027 61.5973C57.6606 61.8551 58.0103 62 58.375 62H66.625C66.9897 62 67.3394 61.8551 67.5973 61.5973C67.8551 61.3394 68 60.9897 68 60.625V52.375C68 52.0103 67.8551 51.6606 67.5973 51.4027C67.3394 51.1449 66.9897 51 66.625 51ZM65.25 59.25H59.75V53.75H65.25V59.25Z" fill="white"/>
<path d="M81.625 51H73.375C73.0103 51 72.6606 51.1405 72.4027 51.3905C72.1449 51.6406 72 51.9797 72 52.3333V73.6667C72 74.0203 72.1449 74.3594 72.4027 74.6095C72.6606 74.8595 73.0103 75 73.375 75H81.625C81.9897 75 82.3394 74.8595 82.5973 74.6095C82.8551 74.3594 83 74.0203 83 73.6667V52.3333C83 51.9797 82.8551 51.6406 82.5973 51.3905C82.3394 51.1405 81.9897 51 81.625 51ZM80.25 72.3333H74.75V53.6667H80.25V72.3333Z" fill="white"/>
<path d="M66.625 64H58.375C58.0103 64 57.6606 64.1449 57.4027 64.4027C57.1449 64.6606 57 65.0103 57 65.375V73.625C57 73.9897 57.1449 74.3394 57.4027 74.5973C57.6606 74.8551 58.0103 75 58.375 75H66.625C66.9897 75 67.3394 74.8551 67.5973 74.5973C67.8551 74.3394 68 73.9897 68 73.625V65.375C68 65.0103 67.8551 64.6606 67.5973 64.4027C67.3394 64.1449 66.9897 64 66.625 64ZM65.25 72.25H59.75V66.75H65.25V72.25Z" fill="white"/>
<path d="M19.5 19C18.0413 19 16.6424 19.5836 15.611 20.6224C14.5795 21.6612 14.0001 23.0702 14.0001 24.5393V62.9128C13.998 63.1239 14.0451 63.3326 14.1376 63.5221L18.2625 72.2188C18.3751 72.4529 18.5509 72.6504 18.7698 72.7886C18.9886 72.9267 19.2417 73 19.5 73C19.7583 73 20.0114 72.9267 20.2302 72.7886C20.4491 72.6504 20.6249 72.4529 20.7375 72.2188L24.8624 63.5221C24.9549 63.3326 25.002 63.1239 24.9999 62.9128V24.5393C24.9999 23.0702 24.4205 21.6612 23.389 20.6224C22.3576 19.5836 20.9587 19 19.5 19ZM19.5 68.4105L17.08 63.3144H21.92L19.5 68.4105ZM22.25 60.5447H16.75V34.2331H22.25V60.5447ZM22.25 31.4634H16.75V28.6938H22.25V31.4634ZM22.25 25.9241H16.75V24.5393C16.75 23.8047 17.0398 23.1003 17.5555 22.5809C18.0712 22.0615 18.7707 21.7696 19.5 21.7696C20.2293 21.7696 20.9288 22.0615 21.4445 22.5809C21.9602 23.1003 22.25 23.8047 22.25 24.5393V25.9241Z" fill="white"/>
</svg>
