<svg width="87" height="87" viewBox="0 0 87 87" fill="none" xmlns="http://www.w3.org/2000/svg">
<g clip-path="url(#clip0)">
<path d="M63.075 81.2H26.825C26.0242 81.2 25.375 81.8492 25.375 82.65C25.375 83.4508 26.0242 84.1 26.825 84.1H64.525C64.7141 84.0995 64.9013 84.0621 65.076 83.9898C65.2538 83.9182 65.4151 83.8111 65.5502 83.6752L82.9502 66.2752C83.0857 66.1397 83.1926 65.9785 83.2648 65.801C83.3371 65.6263 83.3746 65.4391 83.375 65.25V7.25C83.3702 3.24792 80.1271 0.00479387 76.125 0H18.125C14.1229 0.00479387 10.8798 3.24792 10.875 7.25V59.45C10.875 60.2508 11.5242 60.9 12.325 60.9C13.1258 60.9 13.775 60.2508 13.775 59.45V7.25C13.775 4.84756 15.7226 2.9 18.125 2.9H76.125C78.5274 2.9 80.475 4.84756 80.475 7.25V63.8H70.325C66.3229 63.8048 63.0798 67.0479 63.075 71.05V81.2ZM70.325 66.7H78.4247L65.975 79.1497V71.05C65.975 68.6476 67.9226 66.7 70.325 66.7Z" fill="white"/>
<path d="M23.925 8.70001H21.025C20.2241 8.70001 19.575 9.3492 19.575 10.15C19.575 10.9508 20.2241 11.6 21.025 11.6H23.925C24.7258 11.6 25.375 10.9508 25.375 10.15C25.375 9.3492 24.7258 8.70001 23.925 8.70001Z" fill="white"/>
<path d="M73.225 8.70001H29.725C28.9242 8.70001 28.275 9.3492 28.275 10.15C28.275 10.9508 28.9242 11.6 29.725 11.6H73.225C74.0258 11.6 74.675 10.9508 74.675 10.15C74.675 9.3492 74.0258 8.70001 73.225 8.70001Z" fill="white"/>
<path d="M23.925 17.4H21.025C20.2241 17.4 19.575 18.0492 19.575 18.85C19.575 19.6508 20.2241 20.3 21.025 20.3H23.925C24.7258 20.3 25.375 19.6508 25.375 18.85C25.375 18.0492 24.7258 17.4 23.925 17.4Z" fill="white"/>
<path d="M29.725 20.3H63.075C63.8758 20.3 64.525 19.6508 64.525 18.85C64.525 18.0492 63.8758 17.4 63.075 17.4H29.725C28.9242 17.4 28.275 18.0492 28.275 18.85C28.275 19.6508 28.9242 20.3 29.725 20.3Z" fill="white"/>
<path d="M77.575 30.45C77.575 29.6492 76.9258 29 76.125 29C75.3242 29 74.675 29.6492 74.675 30.45V50.75C74.675 51.5508 75.3242 52.2 76.125 52.2C76.9258 52.2 77.575 51.5508 77.575 50.75V30.45Z" fill="white"/>
<path d="M76.125 55.1C75.3242 55.1 74.675 55.7492 74.675 56.55V59.45C74.675 60.2508 75.3242 60.9 76.125 60.9C76.9258 60.9 77.575 60.2508 77.575 59.45V56.55C77.575 55.7492 76.9258 55.1 76.125 55.1Z" fill="white"/>
<path d="M41.209 66.8087C49.4376 66.802 56.5366 61.032 58.2247 52.9783C59.9128 44.9247 55.7284 36.7896 48.1951 33.479C47.4622 33.1638 46.6123 33.4998 46.2931 34.231C45.974 34.9622 46.3056 35.8139 47.0351 36.1369C53.6311 39.0229 57.1158 46.3069 55.2238 53.2537C53.3318 60.2004 46.6346 64.7113 39.4861 63.8538C32.3376 62.9963 26.8972 57.0295 26.7018 49.8324C26.5063 42.6353 31.6148 36.382 38.7063 35.1378C39.228 35.0617 39.6673 34.7085 39.8535 34.2153C40.0397 33.722 39.9436 33.1666 39.6024 32.7647C39.2612 32.3627 38.7288 32.1777 38.2118 32.2813C29.3531 33.8677 23.1659 41.9477 23.9442 50.9136C24.7225 59.8796 32.2094 66.7725 41.209 66.8087Z" fill="white"/>
<path d="M7.37467 85.3006C9.63957 87.5648 13.311 87.5648 15.5759 85.3006L24.8037 76.0728C25.5317 75.3423 25.8143 74.2785 25.5446 73.283L29.4466 69.381C39.5115 75.3126 52.4169 72.8347 59.5694 63.5975C66.7219 54.3602 65.89 41.2454 57.6276 32.9859C49.3652 24.7265 36.2502 23.8992 27.0154 31.055C17.7807 38.2107 15.3074 51.117 21.2425 61.1798L17.3434 65.0803C16.347 64.8102 15.2822 65.0927 14.5507 65.8213L5.32437 75.0476C4.2366 76.1354 3.62549 77.6107 3.62549 79.149C3.62549 80.6873 4.2366 82.1626 5.32437 83.2503L7.37467 85.3006ZM26.8554 35.061C34.7833 27.134 47.6362 27.1344 55.5635 35.062C63.4908 42.9896 63.4908 55.8424 55.5635 63.77C47.6362 71.6976 34.7833 71.698 26.8554 63.771C23.0326 59.9721 20.883 54.8054 20.883 49.416C20.883 44.0266 23.0326 38.8599 26.8554 35.061ZM22.8955 63.626C23.4854 64.3962 24.1227 65.1289 24.8037 65.8199C25.4942 66.5013 26.227 67.1386 26.9975 67.728L23.78 70.947L21.7297 68.8967L19.6779 66.845L22.8955 63.626ZM7.38047 77.0965L16.6025 67.8716L22.7534 74.0225L13.5256 83.2503C12.3784 84.3462 10.5722 84.3462 9.42497 83.2503L7.37467 81.2C6.83056 80.6561 6.52487 79.9183 6.52487 79.149C6.52487 78.3796 6.83056 77.6418 7.37467 77.098L7.38047 77.0965Z" fill="white"/>
</g>
<defs>
<clipPath id="clip0">
<rect width="87" height="87" fill="white"/>
</clipPath>
</defs>
</svg>
