<svg width="88" height="88" viewBox="0 0 88 88" fill="none" xmlns="http://www.w3.org/2000/svg">
<path d="M32.4166 38.449H32.3823C31.4316 38.449 30.6609 39.2197 30.6609 40.1704C30.6609 41.1218 31.4316 41.8925 32.3823 41.8925H32.4166C33.3679 41.8925 34.1387 41.1218 34.1387 40.1704C34.1387 39.2197 33.3679 38.449 32.4166 38.449Z" fill="white"/>
<path d="M81.4365 35.1216H76.5703V28.6662C79.1686 27.9169 81.076 25.5187 81.076 22.6808C81.076 19.246 78.2823 16.451 74.8489 16.451C72.0123 16.451 69.6141 18.3591 68.8655 20.9587H64.8284V9.66461C64.8284 6.04181 61.8817 3.09375 58.2603 3.09375H6.56885C2.94672 3.09375 0 6.04181 0 9.66461V44.8983C0 48.5211 2.94672 51.4692 6.56885 51.4692H23.6019L22.4753 57.4512H20.4901C19.5387 57.4512 18.7679 58.222 18.7679 59.1727C18.7679 60.1234 19.5387 60.8948 20.4901 60.8948H23.8973H23.9047H23.9128H30.6951V65.8275C28.0969 66.5767 26.1895 68.9756 26.1895 71.8129C26.1895 75.2484 28.9831 78.0427 32.4166 78.0427C35.2532 78.0427 37.6514 76.1346 38.4 73.535H53.0181V78.3408C53.0181 81.9615 55.9628 84.9069 59.5815 84.9069H81.4365C85.0553 84.9069 88 81.9615 88 78.3408V41.6877C88 38.067 85.0553 35.1216 81.4365 35.1216ZM84.5565 75.3162H56.4616V44.3807H66.2477L67.4542 45.6664C67.7792 46.0135 68.2337 46.2102 68.7097 46.2102H72.0693C72.587 46.2102 73.0764 45.9772 73.4034 45.5764L74.3789 44.3807H84.5565V75.3162ZM74.8489 19.8952C76.3837 19.8952 77.6324 21.1447 77.6324 22.6808C77.6324 24.2176 76.3837 25.467 74.8489 25.467C73.3141 25.467 72.0646 24.2176 72.0646 22.6808C72.0646 21.1447 73.3141 19.8952 74.8489 19.8952ZM64.8284 24.4029H68.8655C69.4563 26.4553 71.0757 28.0747 73.1268 28.6662V35.1216H64.8284V24.4029ZM81.4365 38.5651C82.8975 38.5651 84.1241 39.5776 84.4618 40.9371H73.5612C73.0442 40.9371 72.5541 41.1694 72.2271 41.5703L71.2523 42.7667H69.4556L68.2491 41.481C67.9235 41.1339 67.469 40.9371 66.9937 40.9371H56.5563C56.5697 40.8854 56.5811 40.8331 56.5966 40.782C56.6113 40.7424 56.6261 40.7021 56.6382 40.6612C57.0638 39.4426 58.2213 38.5651 59.5815 38.5651H81.4365ZM6.56885 48.0256C4.8454 48.0256 3.44354 46.6224 3.44354 44.8983V41.8925H25.512C26.4634 41.8925 27.2341 41.1218 27.2341 40.1711C27.2341 39.2197 26.4634 38.449 25.512 38.449H3.44354V9.66461C3.44354 7.94049 4.8454 6.53729 6.56885 6.53729H58.2603C59.983 6.53729 61.3856 7.94049 61.3856 9.66461V35.1216H59.5815C57.1397 35.1216 55.006 36.4637 53.8754 38.449H39.2533C38.3019 38.449 37.5312 39.2197 37.5312 40.1704C37.5312 41.1218 38.3019 41.8925 39.2533 41.8925H53.0181V48.0256H39.1794C39.1781 48.0256 39.1774 48.0256 39.1761 48.0256H6.56885ZM25.9793 57.4512L27.1059 51.4692H37.7239L38.8531 57.4512H25.9793ZM35.1981 71.8612C35.1726 73.3752 33.9359 74.5991 32.4166 74.5991C30.8818 74.5991 29.633 73.3497 29.633 71.8129C29.633 70.2767 30.8818 69.0273 32.4166 69.0273C33.9359 69.0273 35.1726 70.2512 35.1981 71.7652C35.1974 71.7813 35.1961 71.7968 35.1961 71.8129C35.1961 71.829 35.1974 71.8451 35.1981 71.8612ZM38.4 70.0914C37.8091 68.039 36.1898 66.4189 34.1387 65.8275V60.8948H40.921H40.9284H40.9358H44.3391C45.2897 60.8948 46.0605 60.124 46.0605 59.1727C46.0605 58.222 45.2897 57.4512 44.3391 57.4512H42.3578L41.2278 51.4692H53.0181V70.0914H38.4ZM81.4365 81.4634H59.5815C58.0038 81.4634 56.6986 80.2838 56.4925 78.7597H84.5249C84.3195 80.2838 83.0143 81.4634 81.4365 81.4634Z" fill="white"/>
</svg>
