<svg width="73" height="79" viewBox="0 0 73 79" fill="none" xmlns="http://www.w3.org/2000/svg">
<path d="M47.5386 44.7459C59.8751 44.7459 69.9116 34.7094 69.9116 22.373C69.9116 10.0365 59.8751 0 47.5386 0C35.2022 0 25.1657 10.0365 25.1657 22.373C25.1657 34.7094 35.2022 44.7459 47.5386 44.7459ZM47.5386 4.62889C57.3227 4.62889 65.2827 12.5889 65.2827 22.373C65.2827 32.157 57.3227 40.117 47.5386 40.117C37.7546 40.117 29.7946 32.157 29.7946 22.373C29.7946 12.5889 37.7546 4.62889 47.5386 4.62889Z" fill="white"/>
<path d="M50.7349 19.5507C51.9063 20.0628 53.2706 19.5282 53.7826 18.3571C53.9849 17.8945 54.4411 17.5955 54.9449 17.5955C55.4487 17.5955 55.9051 17.8945 56.1072 18.3571C56.4872 19.2267 57.3371 19.7451 58.2291 19.7451C58.5386 19.7451 58.8532 19.6826 59.1549 19.5507C60.3262 19.0389 60.8606 17.6743 60.3485 16.503C59.4095 14.3548 57.2885 12.9666 54.9449 12.9666C52.6013 12.9666 50.4802 14.3548 49.5413 16.503C49.0291 17.6743 49.5636 19.0389 50.7349 19.5507Z" fill="white"/>
<path d="M35.9225 19.5507C37.0939 20.0628 38.4582 19.5282 38.9701 18.3571C39.1724 17.8945 39.6287 17.5955 40.1325 17.5955C40.6362 17.5955 41.0927 17.8945 41.2948 18.3571C41.6748 19.2267 42.5247 19.7451 43.4167 19.7451C43.7262 19.7451 44.0408 19.6826 44.3425 19.5507C45.5137 19.0389 46.0482 17.6743 45.5361 16.503C44.5971 14.3548 42.4761 12.9666 40.1325 12.9666C37.7888 12.9666 35.6677 14.3548 34.7288 16.503C34.2167 17.6743 34.7512 19.0389 35.9225 19.5507Z" fill="white"/>
<path d="M71.2842 51.3498C70.3569 49.7438 68.8596 48.5949 67.0682 48.1147C65.2772 47.6353 63.406 47.8811 61.7996 48.8084L48.9437 56.2308C48.9478 55.0198 48.6338 53.8237 48.0122 52.7468C47.0849 51.1408 45.5876 49.9919 43.7963 49.5117L29.3599 45.6435C26.3737 44.8433 23.2552 45.2541 20.5788 46.7996L1.18328 57.9974C0.0762034 58.6365 -0.303057 60.0518 0.336193 61.1589L9.96844 77.8423C10.3971 78.585 11.175 79 11.9749 79C12.3676 79 12.7655 78.9 13.13 78.6894L21.8767 73.6395L40.5871 74.8461C42.8743 74.9931 45.1327 74.4656 47.1179 73.3196L68.7428 60.8344C72.0585 58.9204 73.1986 54.6655 71.2842 51.3498ZM66.4285 56.826L44.8037 69.311C43.6124 69.9988 42.2562 70.3153 40.8852 70.227L21.4757 68.9752C21.0194 68.9462 20.5652 69.0521 20.1694 69.2806L12.82 73.5237L5.50218 60.8488L22.8931 50.8083C24.4991 49.8811 26.3706 49.6348 28.1617 50.1147L42.5981 53.9829C43.195 54.1428 43.6942 54.5259 44.0033 55.0611C44.3123 55.5964 44.3944 56.2204 44.2344 56.8175C44.0745 57.4146 43.6914 57.9136 43.1562 58.2227C42.6206 58.5316 41.9969 58.6139 41.4 58.4538L30.0944 55.4243C28.8606 55.0946 27.5905 55.8261 27.2596 57.0608C26.9288 58.2955 27.6614 59.5647 28.8961 59.8955L40.2019 62.925C40.2026 62.9251 40.2034 62.9253 40.2043 62.9256L41.1807 63.1871C43.3702 63.7741 45.6573 63.4729 47.6203 62.3394L64.1139 52.8169C65.2191 52.1786 66.6373 52.5588 67.2754 53.664C67.9136 54.7695 67.5337 56.1878 66.4285 56.826Z" fill="white"/>
<path d="M39.8692 26.0084C39.3205 24.8543 37.9403 24.3622 36.7854 24.9112C35.631 25.4599 35.1397 26.8404 35.6882 27.995C37.8509 32.5468 42.5025 35.488 47.5387 35.488C52.575 35.488 57.2266 32.5466 59.3893 27.9949C59.9379 26.8402 59.4466 25.4596 58.2921 24.9111C57.1371 24.3624 55.7569 24.8538 55.2084 26.0083C53.8083 28.955 50.7978 30.8591 47.5387 30.8591C44.2796 30.8591 41.2692 28.955 39.8692 26.0084Z" fill="white"/>
</svg>
