<svg width="79" height="79" viewBox="0 0 79 79" fill="none" xmlns="http://www.w3.org/2000/svg">
<g clip-path="url(#clip0)">
<path d="M31.408 53.2343L42.3184 20.5028C42.7225 19.2902 42.0672 17.9794 40.8546 17.5752C39.6421 17.1711 38.3312 17.8264 37.9269 19.039L27.0166 51.7705C26.6125 52.9831 27.2678 54.2938 28.4804 54.6981C28.7231 54.7789 28.97 54.8174 29.2125 54.8174C30.1815 54.8175 31.0846 54.2042 31.408 53.2343Z" fill="white"/>
<path d="M47.7599 43.0801C51.5885 43.0801 54.7033 39.9653 54.7033 36.1367C54.7033 32.3082 51.5885 29.1934 47.7599 29.1934C43.9314 29.1934 40.8166 32.3082 40.8166 36.1367C40.8166 39.9653 43.9314 43.0801 47.7599 43.0801ZM47.7599 33.8223C49.0361 33.8223 50.0744 34.8605 50.0744 36.1367C50.0744 37.4129 49.0361 38.4512 47.7599 38.4512C46.4838 38.4512 45.4455 37.4129 45.4455 36.1367C45.4455 34.8605 46.4838 33.8223 47.7599 33.8223Z" fill="white"/>
<path d="M21.5749 29.1934C17.7463 29.1934 14.6315 32.3082 14.6315 36.1367C14.6315 39.9653 17.7463 43.0801 21.5749 43.0801C25.4034 43.0801 28.5182 39.9653 28.5182 36.1367C28.5182 32.3082 25.4036 29.1934 21.5749 29.1934ZM21.5749 38.4512C20.2987 38.4512 19.2604 37.4129 19.2604 36.1367C19.2604 34.8605 20.2987 33.8223 21.5749 33.8223C22.851 33.8223 23.8893 34.8605 23.8893 36.1367C23.8893 37.4129 22.8512 38.4512 21.5749 38.4512Z" fill="white"/>
<path d="M78.5373 28.6994L70.4665 17.9383L70.7814 15.7345C70.8843 15.0133 70.6419 14.2856 70.1267 13.7706L65.217 8.86086L70.1266 3.95113C71.0304 3.04742 71.0304 1.5819 70.1266 0.678032C69.2229 -0.225685 67.7574 -0.225685 66.8535 0.678032L61.9439 5.58776L57.0342 0.678032C56.5191 0.162834 55.7915 -0.0787945 55.0703 0.0233501L32.1583 3.29645C31.6625 3.36727 31.2032 3.59702 30.8491 3.95113L2.48192 32.3183C-0.82698 35.627 -0.82698 41.0111 2.48192 44.3198L26.4848 68.3229C26.9758 68.8138 27.5133 69.2303 28.0822 69.5755V70.5139C28.0822 75.1932 31.8892 79.0002 36.5686 79.0002H70.5139C75.1932 79.0002 79.0002 75.1932 79.0002 70.5139V30.0881C79.0002 29.5874 78.8377 29.1 78.5373 28.6994ZM5.75502 41.0467C4.25093 39.5426 4.25093 37.0955 5.75502 35.5914L33.5766 7.76982L54.5792 4.76952L58.6707 8.86101L55.3976 12.1341L53.7609 10.4975C52.8572 9.59377 51.3917 9.59377 50.4878 10.4975C49.584 11.4012 49.584 12.8667 50.4878 13.7706L57.0342 20.3169C57.4861 20.7689 58.0785 20.9949 58.6707 20.9949C59.2628 20.9949 59.8553 20.7689 60.3071 20.3169C61.211 19.4132 61.211 17.9477 60.3071 17.0438L58.6705 15.4072L61.9436 12.1341L66.0351 16.2256L63.0346 37.2282L35.2132 65.0498C34.4846 65.7784 33.5159 66.1795 32.4856 66.1795C31.4552 66.1795 30.4865 65.7782 29.7579 65.0498L5.75502 41.0467ZM74.3713 70.5139C74.3713 72.6409 72.6408 74.3713 70.5139 74.3713H36.5686C34.5374 74.3713 32.8691 72.7932 32.7227 70.7987C34.8161 70.7407 36.8921 69.9171 38.4862 68.3229L66.8533 39.9557C67.2074 39.6016 67.4372 39.1422 67.508 38.6465L69.5406 24.4188L74.3713 30.8596V70.5139Z" fill="white"/>
</g>
<defs>
<clipPath id="clip0">
<rect width="79" height="79" fill="white"/>
</clipPath>
</defs>
</svg>
