<svg width="73" height="72" viewBox="0 0 73 72" fill="none" xmlns="http://www.w3.org/2000/svg">
<path d="M33.5776 56.7756C30.7452 56.7756 27.9128 55.5879 26.6804 54.9494L25.2634 60.1557C26.9997 61.2519 30.2429 62.2582 34.0799 62.2582C41.6172 62.2582 46.2304 58.4211 46.2304 53.1678C46.2304 49.2853 43.3526 46.5906 39.7902 45.9498V45.8575C43.445 44.5797 45.2258 42.1127 45.2258 38.961C45.2258 34.8963 41.7087 31.5615 35.3592 31.5615C31.5229 31.5615 27.9589 32.6577 26.1781 33.8001L27.5943 38.8241C28.8282 38.0925 31.3852 37.0433 33.8061 37.0433C36.7301 37.0433 38.1917 38.368 38.1917 40.1504C38.1917 42.6628 35.2223 43.5305 32.893 43.5751H30.1983V48.5553H33.0307C36.0908 48.5553 39.014 49.8792 39.014 52.8024C39.0132 55.0394 37.187 56.7756 33.5776 56.7756Z" fill="white"/>
<path d="M68.1903 7.44803H61.121V0H51.1739V7.44803H21.9983V0H12.0519V7.44803H4.98259C2.50695 7.44803 0.5 9.45499 0.5 11.9306V67.5174C0.5 69.993 2.50695 72 4.98259 72H68.1903C70.666 72 72.6729 69.9938 72.6729 67.5174V11.9306C72.6729 9.45499 70.666 7.44803 68.1903 7.44803ZM68 67H6V26H68V67Z" fill="white"/>
</svg>
