<svg width="75" height="71" viewBox="0 0 75 71" fill="none" xmlns="http://www.w3.org/2000/svg">
<path fill-rule="evenodd" clip-rule="evenodd" d="M62.3716 10.5253C55.7935 3.93948 47.0452 0.310991 37.7253 0.307129C18.5207 0.307129 2.89092 15.9365 2.8832 35.1462C2.88062 41.287 4.4848 47.2814 7.53393 52.5651L2.59094 70.6196L21.0613 65.7745C26.1506 68.5507 31.8802 70.0137 37.7111 70.0154H37.7257C56.9282 70.0154 72.5597 54.3847 72.5669 35.1741C72.5708 25.8641 68.95 17.1106 62.3716 10.5253ZM37.7253 64.1312H37.7133C32.5171 64.1291 27.4209 62.7326 22.974 60.0946L21.917 59.4668L10.9564 62.3421L13.882 51.6558L13.1932 50.5601C10.2942 45.9493 8.76345 40.6201 8.76603 35.1484C8.77204 19.1817 21.7634 6.19168 37.7369 6.19168C45.4719 6.19425 52.7431 9.21035 58.2105 14.6842C63.6779 20.158 66.6871 27.4339 66.6845 35.172C66.6777 51.1399 53.6872 64.1312 37.7253 64.1312ZM53.61 42.4423C52.7396 42.0062 48.4593 39.9008 47.661 39.6099C46.8637 39.3193 46.2826 39.1747 45.7028 40.0459C45.1222 40.9171 43.4541 42.8783 42.9459 43.4589C42.4378 44.04 41.9306 44.113 41.0598 43.6769C40.1891 43.2413 37.3841 42.3217 34.0586 39.3558C31.4708 37.0474 29.7237 34.1965 29.2156 33.3253C28.7083 32.4533 29.2113 32.0276 29.5976 31.5486C30.54 30.3783 31.4837 29.1514 31.7738 28.5707C32.0643 27.9897 31.9188 27.4811 31.7008 27.0455C31.4837 26.6099 29.7426 22.3248 29.0173 20.5812C28.3101 18.8843 27.593 19.1135 27.0583 19.0869C26.551 19.0616 25.9704 19.0564 25.3897 19.0564C24.8095 19.0564 23.8662 19.274 23.068 20.146C22.2702 21.0176 20.0214 23.1235 20.0214 27.4086C20.0214 31.6937 23.1409 35.8333 23.5761 36.4144C24.0113 36.9955 29.7151 45.7888 38.448 49.5593C40.5251 50.4571 42.1464 50.9923 43.4111 51.3935C45.4968 52.0562 47.3941 51.9626 48.8944 51.7386C50.5673 51.4884 54.0447 49.6323 54.7708 47.599C55.4961 45.5652 55.4961 43.8224 55.2781 43.4589C55.0609 43.0959 54.4803 42.8783 53.61 42.4423Z" fill="white"/>
</svg>
