<svg width="79" height="59" viewBox="0 0 79 59" fill="none" xmlns="http://www.w3.org/2000/svg">
<g clip-path="url(#clip0)">
<path d="M2.54831 30.765C1.13975 30.765 0 29.6253 0 28.2161C0 18.3815 8.00355 10.3779 17.8388 10.3779H61.1612C62.5698 10.3779 63.7095 11.5177 63.7095 12.9262C63.7095 14.3348 62.5698 15.4745 61.1612 15.4745H17.8388C10.8128 15.4745 5.09662 21.1908 5.09662 28.2161C5.09662 29.6253 3.95687 30.765 2.54831 30.765Z" fill="white"/>
<path d="M61.1612 25.6678C60.7484 25.6678 60.3349 25.5684 59.9594 25.3671C59.1307 24.9241 58.6129 24.0604 58.6129 23.1195V2.73243C58.6129 1.79158 59.1307 0.928482 59.9594 0.485481C60.7857 0.0400691 61.7935 0.0919032 62.5752 0.612053L77.8651 10.8053C78.5745 11.2784 79 12.0746 79 12.9257C79 13.7767 78.5745 14.5735 77.8651 15.046L62.5752 25.2393C62.1497 25.5238 61.6567 25.6678 61.1612 25.6678ZM63.7095 7.49333V18.3586L71.8577 12.9257L63.7095 7.49333Z" fill="white"/>
<path d="M61.1612 48.604H17.8388C16.4302 48.604 15.2905 47.4636 15.2905 46.0551C15.2905 44.6465 16.4302 43.5068 17.8388 43.5068H61.1612C68.1872 43.5068 73.9034 37.7905 73.9034 30.7652C73.9034 29.3567 75.0431 28.2163 76.4517 28.2163C77.8603 28.2163 79 29.3567 79 30.7652C79 40.6004 70.9965 48.604 61.1612 48.604Z" fill="white"/>
<path d="M17.8388 58.7972C17.3433 58.7972 16.8503 58.6532 16.4248 58.3693L1.13493 48.1754C0.425522 47.7029 0 46.9067 0 46.0551C0 45.204 0.425522 44.4078 1.13493 43.9353L16.4248 33.7414C17.2065 33.2213 18.2143 33.1719 19.0406 33.6149C19.8693 34.0579 20.3871 34.9216 20.3871 35.8618V56.2489C20.3871 57.1897 19.8693 58.0534 19.0406 58.4964C18.6651 58.6978 18.2516 58.7972 17.8388 58.7972ZM7.14226 46.0551L15.2905 51.488V40.6227L7.14226 46.0551Z" fill="white"/>
</g>
<defs>
<clipPath id="clip0">
<rect width="79" height="59" fill="white"/>
</clipPath>
</defs>
</svg>
