<svg width="89" height="100" viewBox="0 0 89 100" fill="none" xmlns="http://www.w3.org/2000/svg">
<g clip-path="url(#clip0)">
<path d="M81.7954 58.6552C81.5274 57.2585 80.3058 56.2485 78.8837 56.2477H76.0193L75.8087 54.9854C75.5986 53.7175 74.5997 52.727 73.3301 52.5275C73.0482 52.483 72.7634 52.4534 72.4831 52.4148C72.9688 50.1471 72.5653 47.7794 71.3557 45.8006C71.9948 44.1429 71.8755 42.2885 71.0294 40.7264C70.1833 39.1642 68.6952 38.0512 66.9577 37.6808C65.8468 31.7356 60.6747 27.414 54.6267 27.3776C54.4784 27.3776 54.3464 27.3969 54.2054 27.4013C53.239 25.8837 51.6458 24.8764 49.8603 24.6543C48.0748 24.4323 46.2834 25.0185 44.9747 26.2532C43.326 25.1816 41.4023 24.6102 39.4359 24.6082C36.2676 24.6212 33.2816 26.0918 31.3399 28.5954C29.1839 27.9667 26.859 28.3528 25.0219 29.6445C23.1848 30.9361 22.0349 32.9933 21.897 35.2348C19.6324 36.1867 18.1589 38.4031 18.1575 40.8596C18.1621 41.2854 18.2119 41.7096 18.3058 42.1249C16.3032 45.144 15.7799 48.9091 16.8833 52.3599C16.4858 52.4148 16.0793 52.4637 15.6966 52.5201C14.4204 52.7127 13.4126 53.7037 13.1987 54.9765L12.9881 56.2433H10.1163C8.69656 56.2443 7.4765 57.251 7.20604 58.6448L0.710521 91.9931C0.456849 93.2991 0.800841 94.6501 1.64821 95.6758C2.49557 96.7015 3.75741 97.2942 5.08784 97.2916H36.0213C37.2495 99.3178 40.9815 100.258 44.5 100.258C47.9814 100.258 51.6779 99.34 52.9417 97.2916H83.9122C85.2423 97.2942 86.5038 96.7016 87.3511 95.6763C88.1984 94.651 88.5426 93.3004 88.2895 91.9946L81.7954 58.6552ZM22.6431 43.5445C21.4387 42.8203 20.8639 41.3828 21.237 40.0279C21.6101 38.673 22.8398 37.7323 24.2451 37.7268C25.2286 37.7239 26.1542 38.1914 26.7356 38.9847C27.0515 39.4102 27.5703 39.635 28.0968 39.5742C28.6232 39.5134 29.0773 39.1764 29.2879 38.6901C29.4985 38.2038 29.4337 37.6421 29.1178 37.2166C28.1106 35.8704 26.5842 35.0092 24.9111 34.8432C25.3533 32.7658 27.1853 31.2787 29.3092 31.2728C29.4902 31.282 29.6705 31.3018 29.8491 31.3322C29.7298 31.6363 29.6258 31.9462 29.5376 32.2607C29.353 33.0459 29.8297 33.8347 30.6107 34.0364C31.3916 34.2381 32.1907 33.7788 32.4094 33.0024C32.578 32.3505 32.8372 31.7253 33.1792 31.1453C34.495 28.941 36.8688 27.5864 39.4359 27.5749C40.833 27.5811 42.1982 27.9934 43.3653 28.7616C43.1429 29.3862 43.0252 30.0432 43.0167 30.7062C43.0167 31.5254 43.6808 32.1895 44.5 32.1895C45.3192 32.1895 45.9833 31.5254 45.9833 30.7062C45.9833 28.983 47.3803 27.586 49.1035 27.586C50.8268 27.586 52.2237 28.983 52.2237 30.7062C52.2237 31.5254 52.8878 32.1895 53.7071 32.1895C54.5263 32.1895 55.1904 31.5254 55.1904 30.7062C55.1904 30.592 55.1622 30.4837 55.1563 30.3695C59.4036 30.6315 62.9751 33.6507 63.9406 37.7951C63.2486 37.9965 62.5985 38.3206 62.0211 38.7518C61.5972 39.0698 61.3751 39.5898 61.4384 40.1159C61.5018 40.642 61.8411 41.0944 62.3284 41.3026C62.8158 41.5107 63.3772 41.4431 63.8011 41.1251C64.9865 40.2475 66.6239 40.3175 67.73 41.2931C68.8362 42.2686 69.1102 43.8845 68.3876 45.1702C68.0647 45.7379 67.574 46.1918 66.9829 46.4696C66.363 46.7697 66.0312 47.4571 66.1819 48.1292C66.3326 48.8013 66.9261 49.2812 67.6148 49.2879C67.8323 49.2883 68.0471 49.2401 68.2437 49.147C68.6368 48.9565 69.0083 48.7243 69.3518 48.4543C70.1185 50.6341 69.6376 53.0586 68.0969 54.7807L68.0613 54.8178C66.1288 56.9112 63.0461 57.4769 60.4963 56.2062C60.2465 56.0743 60.0066 55.9246 59.7783 55.7582C60.8709 54.2265 61.0218 52.2145 60.1699 50.5369C59.9315 50.0634 59.4585 49.7531 58.9292 49.7228C58.3999 49.6926 57.8946 49.9471 57.6038 50.3903C57.313 50.8336 57.2807 51.3984 57.5192 51.8719C58.007 52.8523 57.7027 54.042 56.8042 54.668C56.2766 55.0193 55.6248 55.1304 55.0106 54.9737C54.3964 54.817 53.8774 54.4073 53.5825 53.8462C53.3453 53.3722 52.8733 53.0607 52.3442 53.029C51.8151 52.9974 51.3093 53.2504 51.0173 53.6928C50.7254 54.1352 50.6916 54.6998 50.9288 55.1738C51.7987 56.9299 53.5911 58.0389 55.5508 58.0337C56.1888 58.0293 56.8204 57.905 57.4124 57.6673C57.9422 58.1311 58.5259 58.5295 59.1509 58.8539C61.2649 59.9498 63.7233 60.177 66.0024 59.4873C64.5365 61.4889 62.3427 62.834 59.894 63.2327C59.1322 63.3568 58.5929 64.0442 58.6536 64.8136C58.7144 65.5831 59.3551 66.1773 60.1269 66.1801C60.2059 66.1801 60.2847 66.1741 60.3628 66.1623C61.266 66.006 62.1487 65.7482 62.9942 65.394C63.4511 66.2019 63.822 67.0555 64.1008 67.9408C64.1518 68.0954 64.1778 68.2572 64.1779 68.42C64.1775 69.0611 63.7946 69.6401 63.2048 69.8914C62.5225 70.1553 61.7479 69.9471 61.2898 69.3767C60.1411 68.0277 58.6368 67.0281 56.9481 66.4916C53.7426 65.4177 52.5055 64.458 51.9804 63.4137C52.7501 63.3177 53.5106 63.1589 54.2544 62.939C54.761 62.7832 55.146 62.369 55.2644 61.8523C55.3828 61.3357 55.2166 60.7951 54.8283 60.4343C54.4401 60.0734 53.8888 59.9471 53.3822 60.1029C52.5499 60.3583 51.6907 60.5161 50.822 60.5731C49.1483 60.7039 47.4668 60.4502 45.9062 59.8315C45.3202 59.6029 44.6539 59.7688 44.2434 60.2453C42.0837 62.7261 38.3874 63.1478 35.7245 61.2171C33.0616 59.2864 32.3131 55.6422 33.9995 52.8183C34.2727 52.3622 34.2818 51.7951 34.0235 51.3305C33.7652 50.8659 33.2786 50.5744 32.7471 50.5659C32.2156 50.5573 31.7199 50.8329 31.4467 51.2889C31.0928 51.8913 30.8081 52.5317 30.5982 53.198C29.4301 53.1365 28.509 52.1811 28.4904 51.0116V50.9745C28.4896 50.5831 28.3325 50.2082 28.0539 49.9332C27.7753 49.6583 27.3984 49.5061 27.0071 49.5104C26.1843 49.5186 25.5221 50.1887 25.5237 51.0116C25.5303 53.6422 27.5141 55.8471 30.1295 56.1305C30.1348 56.6278 30.1799 57.1238 30.2645 57.6139C26.9525 58.3305 23.5173 57.14 21.3591 54.5276C19.2009 51.9152 18.68 48.3171 20.0087 45.1999C20.3405 45.5356 20.711 45.8309 21.1123 46.0795C21.813 46.4899 22.7135 46.2606 23.1326 45.565C23.5517 44.8694 23.3335 43.9661 22.6431 43.5385V43.5445ZM16.1164 55.4601C16.8002 55.3592 17.5063 55.2702 18.2079 55.1782C20.9505 59.5609 26.1959 61.689 31.2168 60.4559C32.5658 63.0164 35.031 64.802 37.8845 65.2857C40.7379 65.7693 43.6538 64.8957 45.7712 62.9227C46.7792 63.2234 47.8175 63.4114 48.8669 63.4834C49.5834 66.2009 51.6541 67.8474 56.0047 69.3055C57.1776 69.6732 58.2239 70.3623 59.0248 71.2947C59.9152 72.3535 61.2251 72.9688 62.6085 72.9782C63.2136 72.978 63.8124 72.856 64.3692 72.6193C66.0507 71.9007 67.1414 70.2485 67.1416 68.42C67.143 67.9431 67.0668 67.4692 66.9161 67.0167C66.5826 65.9687 66.1432 64.9573 65.6049 63.9981C68.1272 62.1849 69.8843 59.4976 70.534 56.4598C70.8499 56.0845 71.1356 55.6847 71.3884 55.2643C71.8853 55.3281 72.3822 55.3844 72.8821 55.4675L78.2369 87.6766C67.7698 84.1814 56.4505 84.1814 45.9833 87.6766V69.1082C45.9833 68.289 45.3192 67.6249 44.5 67.6249C43.6808 67.6249 43.0167 68.289 43.0167 69.1082V87.6825C32.5507 84.1841 21.2316 84.18 10.7631 87.6707L16.1164 55.4601ZM3.93232 93.779C3.65204 93.4405 3.53778 92.9943 3.62082 92.5627L10.1163 59.2144H12.4897L7.83497 87.1886C7.67125 88.2068 8.04617 89.2372 8.82593 89.9121C9.6057 90.5871 10.6792 90.8104 11.6635 90.5023C19.5711 87.9404 27.9956 87.4059 36.1637 88.9478L35.7216 94.3249H5.08784C4.64034 94.3252 4.21628 94.1249 3.93232 93.779ZM44.5 97.2916C40.9267 97.2916 38.8767 96.2354 38.5756 95.7652L39.0858 89.6094C40.7169 90.0155 42.313 90.5507 43.8592 91.2099C44.0592 91.3062 44.278 91.3569 44.5 91.3582C44.7225 91.3579 44.9421 91.3072 45.1423 91.2099C46.6875 90.5468 48.2832 90.0081 49.9142 89.599L50.4244 95.7637C50.1233 96.2354 48.0734 97.2916 44.5 97.2916ZM85.0677 93.779C84.7837 94.1249 84.3597 94.3252 83.9122 94.3249H53.2828L52.8378 88.9374C61.0104 87.3987 69.4385 87.9378 77.3484 90.5053C78.3324 90.8093 79.4036 90.5828 80.1804 89.9066C80.9572 89.2304 81.329 88.2006 81.1635 87.1841L76.5133 59.2159H78.8866L85.3836 92.5612C85.4659 92.994 85.35 93.4408 85.0677 93.779Z" fill="white"/>
<path d="M39.5843 46.3911C38.9771 46.9405 38.9299 47.878 39.4789 48.4855C40.7373 49.8748 42.4003 50.8337 44.233 51.2267C43.403 52.3964 42.0569 53.0905 40.6226 53.0883C39.8034 53.0883 39.1393 53.7524 39.1393 54.5716C39.1393 55.3909 39.8034 56.055 40.6226 56.055C43.6933 56.0672 46.4486 54.1707 47.5334 51.2979C51.2218 50.6867 54.1419 47.8476 54.8567 44.1779C54.9671 43.653 54.7856 43.1094 54.3819 42.7562C53.9782 42.403 53.4153 42.2952 52.9097 42.4744C52.4041 42.6535 52.0346 43.0916 51.9434 43.6202C51.6525 45.1501 50.7698 46.5035 49.487 47.3864C47.0191 49.0485 43.7093 48.6713 41.6787 46.4964C41.1293 45.8892 40.1918 45.842 39.5843 46.3911Z" fill="white"/>
<path d="M34.4133 44.7815C35.2325 44.7815 35.8967 44.1174 35.8967 43.2982C35.8967 42.2753 36.303 41.2944 37.0263 40.5711C37.7495 39.8478 38.7305 39.4415 39.7533 39.4415C40.5725 39.4415 41.2367 38.7774 41.2367 37.9582C41.2367 37.139 40.5725 36.4749 39.7533 36.4749C35.9866 36.4789 32.9341 39.5315 32.93 43.2982C32.93 43.6916 33.0863 44.0689 33.3644 44.3471C33.6426 44.6252 34.0199 44.7815 34.4133 44.7815Z" fill="white"/>
<path d="M45.9833 3.70837V2.22503C45.9833 1.40581 45.3192 0.741699 44.5 0.741699C43.6808 0.741699 43.0167 1.40581 43.0167 2.22503V3.70837C43.0167 4.52759 43.6808 5.1917 44.5 5.1917C45.3192 5.1917 45.9833 4.52759 45.9833 3.70837Z" fill="white"/>
<path d="M68.8415 23.386L67.3582 24.8693C66.9726 25.2417 66.8179 25.7933 66.9537 26.3119C67.0894 26.8305 67.4944 27.2355 68.013 27.3713C68.5317 27.507 69.0832 27.3524 69.4556 26.9668L70.9389 25.4834C71.3245 25.111 71.4792 24.5595 71.3434 24.0409C71.2077 23.5222 70.8027 23.1172 70.284 22.9815C69.7654 22.8457 69.2139 23.0004 68.8415 23.386Z" fill="white"/>
<path d="M20.5931 27.4014C21.193 27.4012 21.7337 27.0398 21.9633 26.4856C22.1928 25.9314 22.066 25.2935 21.6419 24.8693L20.1585 23.386C19.7861 23.0004 19.2346 22.8457 18.716 22.9815C18.1974 23.1172 17.7923 23.5223 17.6566 24.0409C17.5208 24.5595 17.6755 25.111 18.0611 25.4834L19.5444 26.9668C19.8225 27.245 20.1998 27.4013 20.5931 27.4014Z" fill="white"/>
<path d="M32.0118 9.1596C32.2067 9.15918 32.3996 9.1209 32.5799 9.04687C32.9435 8.89627 33.2323 8.60737 33.3828 8.24376C33.5333 7.88016 33.5332 7.47165 33.3824 7.10815L31.6781 2.99635C31.4828 2.49554 31.0319 2.13954 30.4995 2.06581C29.9671 1.99208 29.4364 2.21216 29.1124 2.64107C28.7884 3.06998 28.7218 3.6406 28.9383 4.13258L30.6412 8.24438C30.871 8.79854 31.4119 9.15975 32.0118 9.1596Z" fill="white"/>
<path d="M59.2592 2.19386C58.5026 1.88088 57.6355 2.24005 57.3219 2.99634L55.6176 7.10814C55.4663 7.47181 55.4659 7.88069 55.6165 8.24465C55.767 8.60861 56.0561 8.89775 56.42 9.04834C56.6003 9.12237 56.7933 9.16066 56.9882 9.16108C57.5881 9.16123 58.129 8.80002 58.3588 8.24586L60.0616 4.13406C60.2129 3.77039 60.2133 3.36151 60.0627 2.99755C59.9122 2.63359 59.6231 2.34445 59.2592 2.19386Z" fill="white"/>
<path d="M74.6488 38.8217C74.8438 38.8214 75.0369 38.7826 75.2169 38.7075L79.3272 37.0046C79.8169 36.8019 80.1612 36.3534 80.2305 35.828C80.2998 35.3026 80.0835 34.7801 79.6631 34.4574C79.2427 34.1347 78.6821 34.0607 78.1925 34.2634L74.0807 35.9663C73.4245 36.2358 73.051 36.9322 73.1894 37.6279C73.3278 38.3235 73.9394 38.8239 74.6488 38.8217Z" fill="white"/>
<path d="M13.7831 38.7076C14.5401 39.0214 15.4081 38.6621 15.7219 37.9052C16.0356 37.1482 15.6763 36.2802 14.9194 35.9664L10.8076 34.2636C10.0506 33.9502 9.18294 34.3098 8.86959 35.0668C8.55624 35.8238 8.91586 36.6914 9.67282 37.0048L13.7831 38.7076Z" fill="white"/>
</g>
<defs>
<clipPath id="clip0">
<rect width="89" height="100" fill="white"/>
</clipPath>
</defs>
</svg>
