<svg width="267" height="48" viewBox="0 0 267 48" fill="none" xmlns="http://www.w3.org/2000/svg">
<g clip-path="url(#clip0)">
<path fill-rule="evenodd" clip-rule="evenodd" d="M97.1775 37.7749C95.7662 39.1913 93.9628 40.1577 91.9972 40.5507C90.0316 40.9438 87.9928 40.7458 86.1408 39.9819C84.2888 39.218 82.7075 37.923 81.5984 36.2618C80.4894 34.6006 79.9029 32.6486 79.9137 30.6546C79.8832 29.3161 80.1219 27.985 80.6158 26.7395C81.1098 25.494 81.849 24.3593 82.79 23.4019C83.7311 22.4445 84.855 21.6837 86.0958 21.1644C87.3366 20.645 88.6693 20.3774 90.0155 20.3774C91.3617 20.3774 92.6943 20.645 93.9351 21.1644C95.1759 21.6837 96.2999 22.4445 97.2409 23.4019C98.182 24.3593 98.9212 25.494 99.4151 26.7395C99.909 27.985 100.148 29.3161 100.117 30.6546C100.14 31.9779 99.891 33.2919 99.3855 34.5162C98.8801 35.7405 98.1287 36.8494 97.1775 37.7749ZM84.6381 36.0156C86.0711 37.4091 87.9957 38.1893 89.9999 38.1893C92.004 38.1893 93.9286 37.4091 95.3616 36.0156C96.0686 35.3143 96.625 34.4775 96.9971 33.556C97.3691 32.6345 97.5491 31.6474 97.5261 30.6546C97.5512 29.6569 97.3724 28.6646 97.0003 27.7377C96.6282 26.8108 96.0707 25.9688 95.3616 25.2626C93.9286 23.8691 92.004 23.0889 89.9999 23.0889C87.9957 23.0889 86.0711 23.8691 84.6381 25.2626C83.9299 25.9692 83.3734 26.8115 83.0022 27.7383C82.6311 28.6651 82.453 29.6573 82.4788 30.6546C82.4548 31.6471 82.6338 32.634 83.005 33.5556C83.3762 34.4771 83.9318 35.3141 84.6381 36.0156ZM112.625 26.4942H115.05V40.3623H112.625V34.577H105.409V40.3623H102.984V26.5097H105.409V32.2743H112.625V26.5097V26.4942ZM130.347 26.4942V40.3623H127.928V28.8383H122.433V34.4942C122.433 36.7676 121.974 38.351 121.054 39.2445C120.139 40.1397 118.843 40.5175 117.168 40.3674V38.0958C117.547 38.1861 117.943 38.1763 118.317 38.0674C118.691 37.9585 119.031 37.7542 119.301 37.4748C119.774 36.9263 120.014 35.9224 120.014 34.4373V26.5097L130.347 26.4942ZM145.566 26.4942H147.991V40.3623H145.566V37.9819C145.009 38.8609 144.228 39.5776 143.302 40.0592C142.376 40.5409 141.339 40.7704 140.295 40.7245C139.361 40.7367 138.435 40.5541 137.577 40.1887C136.718 39.8233 135.946 39.2831 135.311 38.6029C133.981 37.2047 133.239 35.353 133.239 33.4282C133.239 31.5034 133.981 29.6517 135.311 28.2536C135.947 27.574 136.719 27.0346 137.577 26.6701C138.436 26.3056 139.362 26.124 140.295 26.1372C141.339 26.0912 142.376 26.3207 143.302 26.8024C144.228 27.2841 145.009 28.0008 145.566 28.8797V26.5097V26.4942ZM140.602 38.3959C141.259 38.413 141.912 38.2949 142.521 38.0492C143.13 37.8034 143.681 37.4352 144.14 36.9677C144.854 36.2761 145.343 35.3877 145.543 34.4171C145.744 33.4466 145.648 32.4384 145.267 31.5228C144.887 30.6071 144.239 29.8259 143.407 29.2801C142.575 28.7343 141.598 28.4488 140.602 28.4606C139.951 28.4462 139.303 28.5651 138.7 28.8099C138.097 29.0547 137.551 29.4201 137.095 29.8836C136.18 30.8351 135.669 32.1011 135.669 33.4179C135.669 34.7347 136.18 36.0007 137.095 36.9522C137.55 37.4173 138.096 37.7842 138.699 38.03C139.302 38.2757 139.95 38.395 140.602 38.3804V38.3959ZM153.953 24.4244V22.3286H161.477V24.4347L153.953 24.4244ZM161.784 26.4942H163.735V40.3623H161.336V30.6391L153.615 40.3623H151.669V26.5097H154.062V36.2225L161.784 26.4942ZM177.055 26.4942H179.474V40.3623H177.055V34.577H169.833V40.3623H167.408V26.5097H169.833V32.2743H177.055V26.5097V26.4942ZM204.558 40.3623H201.358L192.966 31.0479V40.3623H190.364V20.9677H192.966V29.7284L201.098 20.9677H204.277L195.666 30.3907L204.558 40.3623ZM216.9 26.5046H219.324V40.3623H216.9V37.9819C216.344 38.8608 215.564 39.5776 214.639 40.0594C213.714 40.5411 212.677 40.7706 211.634 40.7245C210.7 40.7371 209.773 40.5548 208.913 40.1893C208.054 39.8239 207.281 39.2835 206.645 38.6029C205.318 37.203 204.579 35.3519 204.579 33.4282C204.579 31.5045 205.318 29.6535 206.645 28.2536C207.281 27.5737 208.054 27.034 208.914 26.6695C209.773 26.3049 210.7 26.1236 211.634 26.1372C212.677 26.0911 213.714 26.3206 214.639 26.8023C215.564 27.284 216.344 28.0008 216.9 28.8797V26.5097V26.5046ZM211.941 38.4062C212.598 38.423 213.251 38.3048 213.86 38.0591C214.469 37.8133 215.02 37.4453 215.479 36.978C216.391 36.0248 216.9 34.7594 216.9 33.4438C216.9 32.1281 216.391 30.8628 215.479 29.9095C214.535 28.9969 213.271 28.4863 211.954 28.4863C210.638 28.4863 209.373 28.9969 208.429 29.9095C207.517 30.8628 207.009 32.1281 207.009 33.4438C207.009 34.7594 207.517 36.0248 208.429 36.978C208.884 37.4436 209.431 37.8107 210.035 38.0565C210.64 38.3022 211.289 38.4213 211.941 38.4062ZM229.554 40.7348C228.584 40.7575 227.62 40.5843 226.72 40.2256C225.82 39.8669 225.003 39.3302 224.317 38.648C223.632 37.9658 223.093 37.1524 222.733 36.257C222.373 35.3615 222.199 34.4027 222.223 33.4386C222.2 32.4753 222.375 31.5176 222.736 30.6234C223.096 29.7292 223.636 28.917 224.321 28.2359C225.006 27.5549 225.823 27.0191 226.723 26.6611C227.622 26.303 228.585 26.13 229.554 26.1527C230.856 26.1329 232.139 26.4733 233.258 27.1359C234.316 27.7592 235.164 28.679 235.698 29.7801L233.664 30.9444C233.316 30.2092 232.757 29.5933 232.056 29.1747C231.112 28.6318 230.016 28.4108 228.933 28.5453C227.851 28.6799 226.843 29.1625 226.062 29.9198C225.16 30.8666 224.658 32.1213 224.658 33.4256C224.658 34.73 225.16 35.9847 226.062 36.9315C226.517 37.3932 227.063 37.7568 227.666 37.9999C228.268 38.2429 228.914 38.3601 229.564 38.3441C230.439 38.3536 231.3 38.1283 232.056 37.6921C232.779 37.2786 233.367 36.6681 233.752 35.9328L235.834 37.1281C235.235 38.2173 234.348 39.1227 233.269 39.7465C232.146 40.4021 230.866 40.742 229.564 40.7297L229.554 40.7348ZM244.57 40.7348C243.602 40.7554 242.64 40.5806 241.742 40.2209C240.844 39.8612 240.028 39.324 239.345 38.642C238.662 37.96 238.125 37.1472 237.766 36.2529C237.408 35.3585 237.235 34.4011 237.259 33.4386C237.237 32.4756 237.41 31.518 237.771 30.6238C238.131 29.7296 238.669 28.9173 239.354 28.2362C240.039 27.5551 240.856 27.0192 241.755 26.6611C242.654 26.303 243.617 26.13 244.585 26.1527C245.889 26.1331 247.174 26.4734 248.295 27.1359C249.356 27.7576 250.209 28.6776 250.746 29.7801L248.706 30.9444C248.353 30.2063 247.786 29.5901 247.078 29.1747C246.133 28.6318 245.037 28.4108 243.955 28.5453C242.873 28.6799 241.864 29.1625 241.084 29.9198C240.182 30.8666 239.679 32.1213 239.679 33.4256C239.679 34.73 240.182 35.9847 241.084 36.9315C241.537 37.3935 242.082 37.7575 242.684 38.0006C243.285 38.2436 243.931 38.3606 244.58 38.3441C245.46 38.3572 246.327 38.1318 247.088 37.6921C247.813 37.2803 248.404 36.6695 248.789 35.9328L250.871 37.1281C250.275 38.218 249.389 39.1239 248.311 39.7465C247.186 40.4023 245.904 40.7421 244.601 40.7297L244.57 40.7348ZM264.581 26.5149H267V40.3623H264.581V37.9819C264.023 38.8605 263.242 39.5769 262.316 40.0585C261.391 40.5402 260.354 40.7699 259.31 40.7245C258.376 40.737 257.45 40.5546 256.591 40.1892C255.733 39.8237 254.961 39.2834 254.325 38.6029C252.995 37.2047 252.254 35.353 252.254 33.4282C252.254 31.5034 252.995 29.6517 254.325 28.2536C254.961 27.5738 255.733 27.0342 256.592 26.6696C257.451 26.3051 258.376 26.1237 259.31 26.1372C260.354 26.0917 261.391 26.3215 262.316 26.8031C263.242 27.2847 264.023 28.0011 264.581 28.8797V26.5097V26.5149ZM259.617 38.4166C260.274 38.4337 260.927 38.3156 261.536 38.0698C262.145 37.8241 262.696 37.4559 263.155 36.9884C263.875 36.299 264.37 35.4102 264.575 34.4375C264.781 33.4648 264.688 32.4531 264.308 31.5337C263.928 30.6143 263.28 29.8297 262.446 29.2817C261.612 28.7337 260.632 28.4476 259.632 28.4606C258.98 28.4461 258.332 28.5649 257.728 28.8097C257.124 29.0545 256.577 29.42 256.12 29.8836C255.209 30.8369 254.7 32.1022 254.7 33.4179C254.7 34.7335 255.209 35.9989 256.12 36.9522C256.574 37.4212 257.12 37.792 257.724 38.0413C258.329 38.2906 258.978 38.4131 259.632 38.4011L259.617 38.4166Z" fill="#111111"/>
<path fill-rule="evenodd" clip-rule="evenodd" d="M4.05318 13.7334H71.8958V43.9844C71.8958 45.0535 71.4688 46.0788 70.7087 46.8347C69.9486 47.5907 68.9176 48.0154 67.8426 48.0154H4.05318C2.97821 48.0154 1.94727 47.5907 1.18715 46.8347C0.42703 46.0788 0 45.0535 0 43.9844L0 17.7644C0 16.6953 0.42703 15.67 1.18715 14.9141C1.94727 14.1581 2.97821 13.7334 4.05318 13.7334Z" fill="#AFCA05"/>
<path fill-rule="evenodd" clip-rule="evenodd" d="M80.3248 10.0802C81.688 8.27943 82.3435 5.17464 81.2821 0C67.8895 2.06986 70.7616 9.26779 72.0415 11.5188C74.0141 8.47706 76.3403 5.67723 78.972 3.17723C77.1879 5.74067 75.6448 8.46193 74.3621 11.3066C76.1675 9.23674 78.2852 9.12807 80.3248 10.0802ZM84.5392 14.3027C78.6702 20.8849 75.5223 17.2419 74.3517 15.2652C76.1745 14.6622 78.0937 14.3991 80.0126 14.489C78.0755 13.8941 76.0488 13.6402 74.0239 13.7387C74.7367 12.0362 77.6712 7.01164 84.5392 14.3027Z" fill="#85BC22"/>
<path fill-rule="evenodd" clip-rule="evenodd" d="M40.9793 21.2576H42.7431V23.0118H40.9793V21.2576ZM15.7184 32.2485L20.0994 21.2576H23.0131L16.2804 37.0351C15.2918 39.3481 13.9962 40.3727 11.5976 40.4658C10.3536 40.4846 9.11734 40.2669 7.95547 39.8242V37.6146C10.2292 38.277 10.5258 38.3546 11.3375 38.3391C12.4457 38.3391 13.3823 37.7492 14.4593 35.2757L7.97108 21.2576H10.7859L15.7184 32.2485ZM34.8188 40.4658H32.389V35.3585C31.3209 35.6383 30.2208 35.7792 29.1163 35.7776C25.7083 35.7776 23.6843 34.0286 23.6531 30.5719V26.3908H26.0725V30.6702C26.0725 32.7711 27.1131 33.6871 29.1163 33.6871C30.2208 33.6887 31.3209 33.5478 32.389 33.2679V26.3908H34.8188V40.4658ZM44.4965 40.4658C39.9595 40.4658 37.7638 37.5059 37.7638 33.3818C37.7638 29.7595 40.1104 26.4012 44.1843 26.4012C49.2625 26.4012 50.2251 30.0907 50.2251 34.101H40.0011C39.9985 34.6919 40.1163 35.2771 40.3472 35.8215C40.5781 36.3659 40.9175 36.8582 41.3448 37.2687C41.7721 37.6792 42.2786 37.9994 42.8337 38.21C43.3887 38.4207 43.9809 38.5174 44.5746 38.4943C45.3214 38.5258 46.0653 38.3836 46.7473 38.0791C47.4292 37.7746 48.0303 37.3161 48.5029 36.7401L50.0638 37.8423C48.8151 39.5913 46.9593 40.4658 44.4965 40.4658ZM44.1843 28.3003C41.817 28.3003 40.3549 30.1476 40.0843 32.2019H47.9878C47.9878 30.0959 46.5569 28.3003 44.1843 28.3003ZM63.9195 28.3468H59.1744V40.4658H56.7549V28.3468H52.0722V26.3908H63.8935V28.3365L63.9195 28.3468ZM45.2666 21.2731H47.0304V23.0273H45.2666V21.2731Z" fill="white"/>
</g>
<defs>
<clipPath id="clip0">
<rect width="267" height="48" fill="white"/>
</clipPath>
</defs>
</svg>
