<svg width="319" height="319" viewBox="0 0 319 319" fill="none" xmlns="http://www.w3.org/2000/svg">
<g clip-path="url(#clip0)">
<path d="M26.7428 186.084C12.0848 186.084 0.159485 174.158 0.159485 159.5C0.159485 144.842 12.0848 132.917 26.7428 132.917C41.4009 132.917 53.3261 144.842 53.3261 159.5C53.3261 174.158 41.4009 186.084 26.7428 186.084ZM26.7428 143.55C17.949 143.55 10.7928 150.707 10.7928 159.5C10.7928 168.294 17.949 175.45 26.7428 175.45C35.5366 175.45 42.6928 168.294 42.6928 159.5C42.6928 150.707 35.5366 143.55 26.7428 143.55Z" fill="url(#paint0_linear)"/>
<path d="M292.576 186.084C277.918 186.084 265.993 174.158 265.993 159.5C265.993 144.842 277.918 132.917 292.576 132.917C307.234 132.917 319.16 144.842 319.16 159.5C319.16 174.158 307.234 186.084 292.576 186.084ZM292.576 143.55C283.782 143.55 276.626 150.707 276.626 159.5C276.626 168.294 283.782 175.45 292.576 175.45C301.37 175.45 308.526 168.294 308.526 159.5C308.526 150.707 301.37 143.55 292.576 143.55Z" fill="url(#paint1_linear)"/>
<path d="M159.659 319C145.001 319 133.076 307.074 133.076 292.416C133.076 277.758 145.001 265.833 159.659 265.833C174.318 265.833 186.243 277.758 186.243 292.416C186.243 307.074 174.318 319 159.659 319ZM159.659 276.466C150.866 276.466 143.709 283.623 143.709 292.416C143.709 301.21 150.866 308.366 159.659 308.366C168.453 308.366 175.609 301.21 175.609 292.416C175.609 283.623 168.453 276.466 159.659 276.466Z" fill="url(#paint2_linear)"/>
<path d="M159.659 53.1667C145.001 53.1667 133.076 41.2414 133.076 26.5833C133.076 11.9253 145.001 0 159.659 0C174.318 0 186.243 11.9253 186.243 26.5833C186.243 41.2414 174.318 53.1667 159.659 53.1667ZM159.659 10.6333C150.866 10.6333 143.709 17.7896 143.709 26.5833C143.709 35.3771 150.866 42.5333 159.659 42.5333C168.453 42.5333 175.609 35.3771 175.609 26.5833C175.609 17.7896 168.453 10.6333 159.659 10.6333Z" fill="url(#paint3_linear)"/>
<path d="M290.88 143.72C288.317 143.72 286.053 141.854 285.638 139.238C284.022 129.136 281.193 119.247 277.222 109.858C276.078 107.152 277.339 104.031 280.045 102.888C282.756 101.74 285.872 103.005 287.015 105.711C291.321 115.893 294.394 126.611 296.138 137.563C296.601 140.461 294.628 143.188 291.725 143.651C291.444 143.699 291.162 143.72 290.88 143.72Z" fill="url(#paint4_linear)"/>
<path d="M264.903 83.6473C263.313 83.6473 261.739 82.9349 260.692 81.5791C254.004 72.9183 246.215 65.1293 237.538 58.4303C235.215 56.6386 234.784 53.2998 236.581 50.9764C238.378 48.653 241.717 48.2277 244.04 50.0194C253.435 57.2713 261.867 65.7035 269.108 75.0821C270.9 77.4108 270.475 80.7444 268.151 82.5361C267.178 83.2858 266.041 83.6473 264.903 83.6473Z" fill="url(#paint5_linear)"/>
<path d="M211.369 42.3577C210.678 42.3577 209.976 42.2247 209.301 41.9376C199.912 37.9661 190.023 35.1323 179.916 33.516C177.018 33.0535 175.041 30.326 175.503 27.4231C175.966 24.5255 178.698 22.5424 181.591 23.0156C192.548 24.7648 203.261 27.8378 213.443 32.1443C216.149 33.2874 217.414 36.4083 216.266 39.1145C215.41 41.1401 213.443 42.3577 211.369 42.3577Z" fill="url(#paint6_linear)"/>
<path d="M180.751 296.053C178.183 296.053 175.923 294.187 175.509 291.576C175.046 288.673 177.018 285.946 179.921 285.483C190.028 283.867 199.917 281.033 209.307 277.062C212.018 275.924 215.134 277.173 216.277 279.885C217.42 282.591 216.16 285.712 213.454 286.855C203.272 291.162 192.559 294.235 181.601 295.984C181.309 296.032 181.027 296.053 180.751 296.053Z" fill="url(#paint7_linear)"/>
<path d="M240.829 270.06C239.239 270.06 237.666 269.348 236.618 267.992C234.827 265.663 235.252 262.33 237.575 260.538C246.241 253.844 254.03 246.05 260.724 237.379C262.511 235.05 265.849 234.63 268.178 236.416C270.507 238.213 270.932 241.552 269.14 243.876C261.894 253.27 253.462 261.708 244.078 268.949C243.11 269.699 241.967 270.06 240.829 270.06Z" fill="url(#paint8_linear)"/>
<path d="M282.113 216.532C281.422 216.532 280.72 216.399 280.045 216.112C277.339 214.969 276.073 211.848 277.222 209.142C281.193 199.747 284.027 189.864 285.638 179.762C286.095 176.859 288.833 174.876 291.726 175.349C294.623 175.812 296.601 178.539 296.138 181.437C294.389 192.394 291.321 203.107 287.015 213.289C286.159 215.315 284.186 216.532 282.113 216.532Z" fill="url(#paint9_linear)"/>
<path d="M37.2006 216.532C35.1271 216.532 33.16 215.315 32.304 213.289C27.9975 203.107 24.9245 192.389 23.1806 181.437C22.718 178.539 24.6905 175.812 27.5934 175.349C30.4644 174.876 33.2238 176.859 33.681 179.762C35.2973 189.864 38.1257 199.753 42.0973 209.142C43.2404 211.848 41.9803 214.969 39.2741 216.112C38.5936 216.394 37.8918 216.532 37.2006 216.532Z" fill="url(#paint10_linear)"/>
<path d="M78.5272 270.092C77.3894 270.092 76.2463 269.731 75.2787 268.981C65.8841 261.729 57.4519 253.297 50.2106 243.918C48.4189 241.59 48.8442 238.256 51.1676 236.464C53.491 234.667 56.8245 235.093 58.6269 237.421C65.3153 246.082 73.1042 253.871 81.781 260.57C84.1043 262.362 84.535 265.701 82.738 268.024C81.6906 269.38 80.1169 270.092 78.5272 270.092Z" fill="url(#paint11_linear)"/>
<path d="M138.568 296.053C138.292 296.053 138.01 296.032 137.723 295.984C126.765 294.235 116.052 291.162 105.871 286.855C103.165 285.712 101.899 282.591 103.048 279.885C104.191 277.173 107.306 275.924 110.018 277.062C119.407 281.033 129.296 283.867 139.403 285.483C142.301 285.946 144.278 288.673 143.816 291.576C143.396 294.187 141.136 296.053 138.568 296.053Z" fill="url(#paint12_linear)"/>
<path d="M107.95 42.3578C105.876 42.3578 103.909 41.1402 103.053 39.1146C101.91 36.4084 103.17 33.2875 105.876 32.1444C116.058 27.8379 126.771 24.7649 137.728 23.0157C140.626 22.5425 143.353 24.531 143.816 27.4232C144.278 30.3261 142.306 33.0536 139.403 33.5161C129.296 35.1324 119.407 37.9662 110.018 41.9377C109.337 42.2195 108.641 42.3578 107.95 42.3578Z" fill="url(#paint13_linear)"/>
<path d="M54.3842 83.6896C53.2517 83.6896 52.1086 83.328 51.141 82.5837C48.8123 80.7867 48.387 77.4478 50.1787 75.1244C57.4253 65.7299 65.8575 57.2923 75.2414 50.051C77.5648 48.2593 80.8984 48.6793 82.7007 51.008C84.4924 53.3367 84.0671 56.6703 81.7437 58.462C73.0775 65.1557 65.2886 72.9499 58.5949 81.6214C57.5476 82.9771 55.9738 83.6896 54.3842 83.6896Z" fill="url(#paint14_linear)"/>
<path d="M28.4335 143.72C28.1517 143.72 27.8753 143.699 27.5882 143.651C24.6906 143.188 22.7128 140.461 23.1753 137.563C24.9245 126.606 27.9922 115.893 32.2987 105.711C33.4418 103.005 36.5574 101.74 39.2689 102.888C41.975 104.031 43.2404 107.152 42.092 109.858C38.1205 119.253 35.2867 129.136 33.6757 139.238C33.261 141.859 31.0015 143.72 28.4335 143.72Z" fill="url(#paint15_linear)"/>
<path d="M117.126 180.767C116.313 180.767 115.499 180.581 114.75 180.209L72.2162 158.942C70.4139 158.038 69.2761 156.198 69.2761 154.183V111.65C69.2761 109.805 70.2331 108.099 71.7962 107.126C73.3646 106.147 75.3265 106.073 76.9693 106.892L119.503 128.158C121.305 129.062 122.443 130.902 122.443 132.917V175.45C122.443 177.295 121.486 179.002 119.923 179.975C119.067 180.501 118.094 180.767 117.126 180.767ZM79.9095 150.898L111.809 166.848V136.202L79.9095 120.252V150.898Z" fill="url(#paint16_linear)"/>
<path d="M117.126 180.767C116.153 180.767 115.186 180.501 114.33 179.975C112.766 179.002 111.809 177.295 111.809 175.45V132.917C111.809 130.902 112.947 129.062 114.75 128.158L157.283 106.892C158.931 106.073 160.888 106.147 162.456 107.126C164.019 108.099 164.976 109.805 164.976 111.65V154.183C164.976 156.198 163.838 158.038 162.036 158.942L119.503 180.209C118.753 180.581 117.94 180.767 117.126 180.767ZM122.443 136.202V166.848L154.343 150.898V120.252L122.443 136.202Z" fill="url(#paint17_linear)"/>
<path d="M117.126 138.233C116.313 138.233 115.494 138.047 114.75 137.675L72.2162 116.408C70.4139 115.505 69.2761 113.665 69.2761 111.65C69.2761 109.635 70.4139 107.795 72.2162 106.892L114.75 85.625C116.244 84.8753 118.009 84.8753 119.508 85.625L162.041 106.892C163.844 107.795 164.981 109.635 164.981 111.65C164.981 113.665 163.844 115.505 162.041 116.408L119.508 137.675C118.753 138.047 117.94 138.233 117.126 138.233ZM86.4809 111.65L117.126 126.973L147.771 111.65L117.126 96.3274L86.4809 111.65Z" fill="url(#paint18_linear)"/>
<path d="M202.193 180.767C201.379 180.767 200.566 180.581 199.816 180.209L157.283 158.942C155.481 158.038 154.343 156.198 154.343 154.183V111.65C154.343 109.805 155.3 108.099 156.863 107.126C158.431 106.147 160.393 106.073 162.036 106.892L204.569 128.158C206.372 129.062 207.51 130.902 207.51 132.917V175.45C207.51 177.295 206.553 179.002 204.989 179.975C204.133 180.501 203.16 180.767 202.193 180.767ZM164.976 150.898L196.876 166.848V136.202L164.976 120.252V150.898Z" fill="url(#paint19_linear)"/>
<path d="M202.193 180.767C201.22 180.767 200.252 180.501 199.396 179.975C197.833 179.002 196.876 177.295 196.876 175.45V132.917C196.876 130.902 198.014 129.062 199.816 128.158L242.35 106.892C243.998 106.073 245.954 106.147 247.523 107.126C249.086 108.099 250.043 109.805 250.043 111.65V154.183C250.043 156.198 248.905 158.038 247.103 158.942L204.569 180.209C203.82 180.581 203.006 180.767 202.193 180.767ZM207.51 136.202V166.848L239.41 150.898V120.252L207.51 136.202Z" fill="url(#paint20_linear)"/>
<path d="M202.193 138.233C201.379 138.233 200.561 138.047 199.816 137.675L157.283 116.408C155.481 115.505 154.343 113.665 154.343 111.65C154.343 109.635 155.481 107.795 157.283 106.892L199.816 85.625C201.31 84.8753 203.075 84.8753 204.575 85.625L247.108 106.892C248.91 107.795 250.048 109.635 250.048 111.65C250.048 113.665 248.91 115.505 247.108 116.408L204.575 137.675C203.82 138.047 203.006 138.233 202.193 138.233ZM171.548 111.65L202.193 126.973L232.838 111.65L202.193 96.3274L171.548 111.65Z" fill="url(#paint21_linear)"/>
<path d="M159.659 244.567C158.846 244.567 158.033 244.381 157.283 244.008L114.75 222.742C112.947 221.838 111.809 219.998 111.809 217.983V175.45C111.809 173.605 112.766 171.898 114.33 170.925C115.898 169.947 117.854 169.873 119.503 170.692L162.036 191.958C163.838 192.862 164.976 194.702 164.976 196.717V239.25C164.976 241.095 164.019 242.802 162.456 243.774C161.6 244.301 160.627 244.567 159.659 244.567ZM122.443 214.698L154.343 230.648V200.002L122.443 184.052V214.698Z" fill="url(#paint22_linear)"/>
<path d="M159.66 244.567C158.687 244.567 157.719 244.301 156.863 243.774C155.3 242.802 154.343 241.095 154.343 239.25V196.717C154.343 194.702 155.481 192.862 157.283 191.958L199.816 170.692C201.464 169.873 203.421 169.947 204.989 170.925C206.553 171.898 207.51 173.605 207.51 175.45V217.983C207.51 219.998 206.372 221.838 204.569 222.742L162.036 244.008C161.286 244.381 160.473 244.567 159.66 244.567ZM164.976 200.002V230.648L196.876 214.698V184.052L164.976 200.002Z" fill="url(#paint23_linear)"/>
<path d="M159.659 202.033C158.846 202.033 158.027 201.847 157.283 201.475L114.75 180.208C112.947 179.304 111.809 177.465 111.809 175.45C111.809 173.435 112.947 171.595 114.75 170.691L157.283 149.425C158.777 148.675 160.542 148.675 162.041 149.425L204.575 170.691C206.377 171.595 207.515 173.435 207.515 175.45C207.515 177.465 206.377 179.304 204.575 180.208L162.041 201.475C161.286 201.847 160.473 202.033 159.659 202.033ZM129.014 175.45L159.659 190.772L190.305 175.45L159.659 160.127L129.014 175.45Z" fill="url(#paint24_linear)"/>
</g>
<defs>
<linearGradient id="paint0_linear" x1="31.1058" y1="139.943" x2="-2.32911" y2="175.194" gradientUnits="userSpaceOnUse">
<stop stop-color="#AFCA05"/>
<stop offset="0.651042" stop-color="#74BE3A"/>
<stop offset="1" stop-color="#79B653"/>
</linearGradient>
<linearGradient id="paint1_linear" x1="296.939" y1="139.943" x2="263.504" y2="175.194" gradientUnits="userSpaceOnUse">
<stop stop-color="#AFCA05"/>
<stop offset="0.651042" stop-color="#74BE3A"/>
<stop offset="1" stop-color="#79B653"/>
</linearGradient>
<linearGradient id="paint2_linear" x1="164.022" y1="272.859" x2="130.587" y2="308.11" gradientUnits="userSpaceOnUse">
<stop stop-color="#AFCA05"/>
<stop offset="0.651042" stop-color="#74BE3A"/>
<stop offset="1" stop-color="#79B653"/>
</linearGradient>
<linearGradient id="paint3_linear" x1="164.022" y1="7.02619" x2="130.588" y2="42.2773" gradientUnits="userSpaceOnUse">
<stop stop-color="#AFCA05"/>
<stop offset="0.651042" stop-color="#74BE3A"/>
<stop offset="1" stop-color="#79B653"/>
</linearGradient>
<linearGradient id="paint4_linear" x1="288.095" y1="107.916" x2="267.413" y2="118.173" gradientUnits="userSpaceOnUse">
<stop stop-color="#AFCA05"/>
<stop offset="0.651042" stop-color="#74BE3A"/>
<stop offset="1" stop-color="#79B653"/>
</linearGradient>
<linearGradient id="paint5_linear" x1="255.695" y1="53.5019" x2="233.851" y2="76.5389" gradientUnits="userSpaceOnUse">
<stop stop-color="#AFCA05"/>
<stop offset="0.651042" stop-color="#74BE3A"/>
<stop offset="1" stop-color="#79B653"/>
</linearGradient>
<linearGradient id="paint6_linear" x1="199.448" y1="25.5112" x2="190.349" y2="45.8993" gradientUnits="userSpaceOnUse">
<stop stop-color="#AFCA05"/>
<stop offset="0.651042" stop-color="#74BE3A"/>
<stop offset="1" stop-color="#79B653"/>
</linearGradient>
<linearGradient id="paint7_linear" x1="199.455" y1="279.207" x2="190.357" y2="299.595" gradientUnits="userSpaceOnUse">
<stop stop-color="#AFCA05"/>
<stop offset="0.651042" stop-color="#74BE3A"/>
<stop offset="1" stop-color="#79B653"/>
</linearGradient>
<linearGradient id="paint8_linear" x1="255.73" y1="239.903" x2="233.877" y2="262.936" gradientUnits="userSpaceOnUse">
<stop stop-color="#AFCA05"/>
<stop offset="0.651042" stop-color="#74BE3A"/>
<stop offset="1" stop-color="#79B653"/>
</linearGradient>
<linearGradient id="paint9_linear" x1="288.094" y1="180.731" x2="267.411" y2="190.99" gradientUnits="userSpaceOnUse">
<stop stop-color="#AFCA05"/>
<stop offset="0.651042" stop-color="#74BE3A"/>
<stop offset="1" stop-color="#79B653"/>
</linearGradient>
<linearGradient id="paint10_linear" x1="34.4086" y1="180.731" x2="13.7268" y2="190.988" gradientUnits="userSpaceOnUse">
<stop stop-color="#AFCA05"/>
<stop offset="0.651042" stop-color="#74BE3A"/>
<stop offset="1" stop-color="#79B653"/>
</linearGradient>
<linearGradient id="paint11_linear" x1="69.3267" y1="239.944" x2="47.4801" y2="262.981" gradientUnits="userSpaceOnUse">
<stop stop-color="#AFCA05"/>
<stop offset="0.651042" stop-color="#74BE3A"/>
<stop offset="1" stop-color="#79B653"/>
</linearGradient>
<linearGradient id="paint12_linear" x1="126.639" y1="279.207" x2="117.541" y2="299.596" gradientUnits="userSpaceOnUse">
<stop stop-color="#AFCA05"/>
<stop offset="0.651042" stop-color="#74BE3A"/>
<stop offset="1" stop-color="#79B653"/>
</linearGradient>
<linearGradient id="paint13_linear" x1="126.642" y1="25.5114" x2="117.543" y2="45.8991" gradientUnits="userSpaceOnUse">
<stop stop-color="#AFCA05"/>
<stop offset="0.651042" stop-color="#74BE3A"/>
<stop offset="1" stop-color="#79B653"/>
</linearGradient>
<linearGradient id="paint14_linear" x1="69.2905" y1="53.5335" x2="47.4381" y2="76.566" gradientUnits="userSpaceOnUse">
<stop stop-color="#AFCA05"/>
<stop offset="0.651042" stop-color="#74BE3A"/>
<stop offset="1" stop-color="#79B653"/>
</linearGradient>
<linearGradient id="paint15_linear" x1="34.4047" y1="107.916" x2="13.7209" y2="118.175" gradientUnits="userSpaceOnUse">
<stop stop-color="#AFCA05"/>
<stop offset="0.651042" stop-color="#74BE3A"/>
<stop offset="1" stop-color="#79B653"/>
</linearGradient>
<linearGradient id="paint16_linear" x1="100.222" y1="116.167" x2="55.17" y2="150.094" gradientUnits="userSpaceOnUse">
<stop stop-color="#AFCA05"/>
<stop offset="0.651042" stop-color="#74BE3A"/>
<stop offset="1" stop-color="#79B653"/>
</linearGradient>
<linearGradient id="paint17_linear" x1="142.756" y1="116.167" x2="97.7034" y2="150.094" gradientUnits="userSpaceOnUse">
<stop stop-color="#AFCA05"/>
<stop offset="0.651042" stop-color="#74BE3A"/>
<stop offset="1" stop-color="#79B653"/>
</linearGradient>
<linearGradient id="paint18_linear" x1="124.983" y1="92.0895" x2="97.3631" y2="144.504" gradientUnits="userSpaceOnUse">
<stop stop-color="#AFCA05"/>
<stop offset="0.651042" stop-color="#74BE3A"/>
<stop offset="1" stop-color="#79B653"/>
</linearGradient>
<linearGradient id="paint19_linear" x1="185.289" y1="116.167" x2="140.237" y2="150.094" gradientUnits="userSpaceOnUse">
<stop stop-color="#AFCA05"/>
<stop offset="0.651042" stop-color="#74BE3A"/>
<stop offset="1" stop-color="#79B653"/>
</linearGradient>
<linearGradient id="paint20_linear" x1="227.822" y1="116.167" x2="182.77" y2="150.094" gradientUnits="userSpaceOnUse">
<stop stop-color="#AFCA05"/>
<stop offset="0.651042" stop-color="#74BE3A"/>
<stop offset="1" stop-color="#79B653"/>
</linearGradient>
<linearGradient id="paint21_linear" x1="210.049" y1="92.0895" x2="182.43" y2="144.504" gradientUnits="userSpaceOnUse">
<stop stop-color="#AFCA05"/>
<stop offset="0.651042" stop-color="#74BE3A"/>
<stop offset="1" stop-color="#79B653"/>
</linearGradient>
<linearGradient id="paint22_linear" x1="142.756" y1="179.967" x2="97.7033" y2="213.893" gradientUnits="userSpaceOnUse">
<stop stop-color="#AFCA05"/>
<stop offset="0.651042" stop-color="#74BE3A"/>
<stop offset="1" stop-color="#79B653"/>
</linearGradient>
<linearGradient id="paint23_linear" x1="185.289" y1="179.967" x2="140.237" y2="213.893" gradientUnits="userSpaceOnUse">
<stop stop-color="#AFCA05"/>
<stop offset="0.651042" stop-color="#74BE3A"/>
<stop offset="1" stop-color="#79B653"/>
</linearGradient>
<linearGradient id="paint24_linear" x1="167.516" y1="155.889" x2="139.896" y2="208.304" gradientUnits="userSpaceOnUse">
<stop stop-color="#AFCA05"/>
<stop offset="0.651042" stop-color="#74BE3A"/>
<stop offset="1" stop-color="#79B653"/>
</linearGradient>
<clipPath id="clip0">
<rect width="319" height="319" fill="white"/>
</clipPath>
</defs>
</svg>
