<svg width="146" height="51" viewBox="0 0 146 51" fill="none" xmlns="http://www.w3.org/2000/svg">
<path fill-rule="evenodd" clip-rule="evenodd" d="M92.1314 21.4695C93.5353 21.4232 94.9336 21.6672 96.2372 22.1859C97.5408 22.7047 98.7213 23.4868 99.7035 24.4826C100.678 25.4659 101.443 26.6336 101.953 27.9161C102.463 29.1987 102.707 30.5699 102.671 31.9481C102.704 33.3235 102.458 34.6914 101.948 35.9709C101.439 37.2504 100.675 38.4156 99.7035 39.3975C98.7231 40.3967 97.5433 41.1822 96.2395 41.7038C94.9357 42.2254 93.5366 42.4716 92.1314 42.4268C90.3224 42.44 88.5422 41.9769 86.9728 41.0846C85.4553 40.2432 84.2052 38.9979 83.3635 37.4893L85.7226 36.1633C86.302 37.2786 87.2026 38.1979 88.31 38.8045C89.41 39.464 90.6591 39.8396 91.9432 39.897C93.2273 39.9545 94.5054 39.6919 95.6607 39.1332C96.8161 38.5746 97.8118 37.7378 98.557 36.6992C99.3021 35.6606 99.7729 34.4534 99.9263 33.1879H89.4244V30.676H99.9046C99.6955 28.8025 98.7763 27.0776 97.3331 25.8507C95.8899 24.6238 94.0306 23.9864 92.1314 24.0676C90.7967 24.0566 89.4831 24.399 88.3264 25.0594C87.2132 25.6883 86.3085 26.6247 85.7226 27.7545L83.3635 26.3962C84.2088 24.8889 85.4579 23.6427 86.9728 22.7955C88.5435 21.9129 90.3207 21.4556 92.126 21.4695H92.1314ZM119.995 39.5107H122.17V45.9197H119.452V42.0441H105.998V45.9143H103.28V39.5107H105.058C106.319 37.9547 106.949 35.5865 106.949 32.4063V21.8414H119.963V39.5107H119.995ZM108.145 39.5107H117.288V24.3533H109.678V32.4386C109.678 35.5003 109.164 37.8487 108.134 39.4837L108.145 39.5107ZM141.929 39.3489C140.453 40.8217 138.57 41.8259 136.517 42.2338C134.464 42.6417 132.336 42.4349 130.402 41.6397C128.468 40.8445 126.817 39.4968 125.657 37.7681C124.498 36.0394 123.884 34.0079 123.893 31.932C123.861 30.5377 124.11 29.1511 124.626 27.8537C125.142 26.5563 125.915 25.3743 126.898 24.377C127.881 23.3797 129.055 22.5873 130.351 22.0463C131.648 21.5053 133.04 21.2266 134.446 21.2266C135.853 21.2266 137.245 21.5053 138.541 22.0463C139.838 22.5873 141.012 23.3797 141.995 24.377C142.978 25.3743 143.75 26.5563 144.267 27.8537C144.783 29.1511 145.032 30.5377 145 31.932C145.025 33.3106 144.766 34.6797 144.237 35.9552C143.709 37.2307 142.924 38.3856 141.929 39.3489ZM128.828 37.5324C130.327 38.9843 132.338 39.7973 134.433 39.7973C136.528 39.7973 138.539 38.9843 140.037 37.5324C140.775 36.8017 141.355 35.9299 141.743 34.97C142.131 34.01 142.318 32.9819 142.293 31.9481C142.32 30.9093 142.134 29.8758 141.746 28.9103C141.358 27.9448 140.777 27.0675 140.037 26.3315C138.539 24.8796 136.528 24.0667 134.433 24.0667C132.338 24.0667 130.327 24.8796 128.828 26.3315C128.089 27.0675 127.507 27.9448 127.119 28.9103C126.732 29.8758 126.546 30.9093 126.573 31.9481C126.548 32.9819 126.735 34.01 127.122 34.97C127.51 35.9299 128.091 36.8017 128.828 37.5324Z" fill="#333333"/>
<path fill-rule="evenodd" clip-rule="evenodd" d="M4.23449 14.3057H75.1119V45.8171C75.1119 46.9307 74.6658 47.9988 73.8716 48.7862C73.0775 49.5737 72.0005 50.0161 70.8774 50.0161H4.23449C3.11143 50.0161 2.03437 49.5737 1.24025 48.7862C0.446132 47.9988 0 46.9307 0 45.8171L0 18.5047C0 17.391 0.446132 16.323 1.24025 15.5355C2.03437 14.7481 3.11143 14.3057 4.23449 14.3057Z" fill="#009EE3"/>
<path fill-rule="evenodd" clip-rule="evenodd" d="M83.9179 10.5002C85.3421 8.62441 86.027 5.39025 84.9181 0C70.9264 2.1561 73.9269 9.65395 75.2641 11.9987C77.3249 8.83027 79.7552 5.91378 82.5046 3.30962C80.6407 5.97987 79.0286 8.81451 77.6885 11.7777C79.5747 9.6216 81.7871 9.50841 83.9179 10.5002ZM88.3209 14.8987C82.1893 21.7551 78.9007 17.9603 77.6776 15.9013C79.582 15.2732 81.587 14.999 83.5918 15.0927C81.568 14.473 79.4507 14.2085 77.3352 14.3111C78.0799 12.5377 81.1457 7.30379 88.3209 14.8987Z" fill="#85BC22"/>
<path fill-rule="evenodd" clip-rule="evenodd" d="M42.8124 22.1431H44.6551V23.9704H42.8124V22.1431ZM16.4216 33.592L20.9985 22.1431H24.0426L17.0086 38.5779C15.9758 40.9874 14.6223 42.0547 12.1164 42.1517C10.8167 42.1713 9.52518 41.9444 8.31134 41.4833V39.1817C10.6868 39.8716 10.9966 39.9525 11.8446 39.9363C13.0024 39.9363 13.9809 39.3218 15.1061 36.7453L8.32765 22.1431H11.2684L16.4216 33.592ZM36.3764 42.1517H33.8379V36.8315C32.722 37.123 31.5727 37.2698 30.4187 37.2681C26.8583 37.2681 24.7438 35.4462 24.7112 31.8455V27.4902H27.2388V31.9479C27.2388 34.1364 28.326 35.0905 30.4187 35.0905C31.5727 35.0921 32.722 34.9454 33.8379 34.6538V27.4902H36.3764V42.1517ZM46.487 42.1517C41.747 42.1517 39.453 39.0685 39.453 34.7724C39.453 30.9993 41.9046 27.501 46.1608 27.501C51.4662 27.501 52.4718 31.3442 52.4718 35.5217H41.7904C41.7878 36.1371 41.9108 36.7468 42.152 37.3139C42.3933 37.8809 42.7478 38.3937 43.1943 38.8213C43.6407 39.2489 44.1698 39.5825 44.7497 39.8019C45.3296 40.0213 45.9483 40.122 46.5685 40.098C47.3488 40.1308 48.126 39.9827 48.8384 39.6655C49.5508 39.3483 50.1788 38.8707 50.6725 38.2707L52.3033 39.4188C50.9987 41.2407 49.0599 42.1517 46.487 42.1517ZM46.1608 29.4792C43.6875 29.4792 42.1601 31.4035 41.8774 33.5434H50.1344C50.1344 31.3496 48.6396 29.4792 46.1608 29.4792ZM66.7788 29.5277H61.8214V42.1517H59.2937V29.5277H54.4015V27.4902H66.7516V29.5169L66.7788 29.5277ZM47.2915 22.1592H49.1342V23.9865H47.2915V22.1592Z" fill="white"/>
</svg>
