<svg width="381" height="50" viewBox="0 0 381 50" fill="none" xmlns="http://www.w3.org/2000/svg">
<g clip-path="url(#clip0)">
<path fill-rule="evenodd" clip-rule="evenodd" d="M95.2617 21.8418V42.0445H92.6558V24.386H83.6759V42.0445H81.0699V21.8418H95.2617ZM106.9 27.232C107.836 27.2183 108.764 27.4073 109.625 27.787C110.485 28.1667 111.26 28.7287 111.898 29.4367C113.227 30.8949 113.967 32.8231 113.967 34.8269C113.967 36.8308 113.227 38.7589 111.898 40.2172C111.26 40.9259 110.486 41.4887 109.625 41.8693C108.764 42.2499 107.836 42.4399 106.9 42.4272C105.856 42.4742 104.818 42.2347 103.893 41.7329C102.968 41.2312 102.187 40.4851 101.631 39.5703V47.8228H99.2019V27.6148H101.631V30.0997C102.187 29.1841 102.969 28.4375 103.895 27.9357C104.822 27.4339 105.86 27.1948 106.905 27.2428L106.9 27.232ZM106.592 39.9908C107.246 40.0064 107.896 39.8824 108.501 39.6264C109.107 39.3704 109.654 38.988 110.11 38.5031C111.024 37.5101 111.533 36.192 111.533 34.8215C111.533 33.451 111.024 32.133 110.11 31.14C109.165 30.1894 107.898 29.6575 106.579 29.6575C105.261 29.6575 103.994 30.1894 103.048 31.14C102.135 32.133 101.626 33.451 101.626 34.8215C101.626 36.192 102.135 37.5101 103.048 38.5031C103.508 38.9898 104.06 39.3731 104.67 39.6291C105.28 39.8851 105.934 40.0082 106.592 39.9908ZM128.643 40.2226C127.249 41.6291 125.379 42.4164 123.432 42.4164C121.484 42.4164 119.614 41.6291 118.22 40.2226C116.855 38.7835 116.09 36.8481 116.09 34.8323C116.09 32.8165 116.855 30.8811 118.22 29.4421C119.249 28.3742 120.562 27.6466 121.991 27.3515C123.421 27.0565 124.903 27.2072 126.25 27.7847C127.597 28.3621 128.747 29.3403 129.556 30.595C130.364 31.8497 130.794 33.3245 130.791 34.8323C130.81 35.8352 130.63 36.8315 130.261 37.759C129.891 38.6865 129.341 39.5251 128.643 40.2226ZM123.432 39.9638C124.086 39.9741 124.735 39.8479 125.341 39.5927C125.947 39.3375 126.497 38.9586 126.959 38.4786C127.42 37.9986 127.783 37.4273 128.026 36.799C128.269 36.1706 128.387 35.4981 128.372 34.8215C128.387 34.1452 128.269 33.4729 128.026 32.8449C127.783 32.2168 127.42 31.6459 126.958 31.1663C126.497 30.6867 125.947 30.3083 125.341 30.0537C124.735 29.7991 124.086 29.6736 123.432 29.6846C122.784 29.6707 122.141 29.7941 121.541 30.0471C120.941 30.3002 120.398 30.6776 119.945 31.1562C119.031 32.1425 118.521 33.4556 118.521 34.8215C118.521 36.1874 119.031 37.5006 119.945 38.4869C120.397 38.9672 120.94 39.3461 121.54 39.6002C122.14 39.8542 122.784 39.978 123.432 39.9638ZM142.971 34.6221C143.632 34.8637 144.199 35.3207 144.587 35.9244C144.975 36.528 145.163 37.2457 145.123 37.9694C145.141 38.5149 145.047 39.0581 144.848 39.5634C144.648 40.0687 144.348 40.5248 143.966 40.9017C143.047 41.7178 141.855 42.1281 140.646 42.0445H133.668V27.6148H140.089C141.261 27.5347 142.418 27.9203 143.325 28.6928C143.704 29.0535 144.002 29.4946 144.2 29.9859C144.398 30.4772 144.491 31.007 144.472 31.5389C144.507 32.1461 144.386 32.7522 144.121 33.295C143.855 33.8377 143.455 34.2976 142.96 34.6275L142.971 34.6221ZM139.984 29.8571H136.029V33.6303H139.964C141.381 33.6303 142.085 32.9834 142.085 31.6952C142.085 30.4069 141.381 29.8463 139.964 29.8463L139.984 29.8571ZM140.506 39.759C141.095 39.7932 141.676 39.6012 142.137 39.22C142.332 39.0338 142.484 38.8053 142.583 38.5508C142.683 38.2964 142.726 38.0223 142.71 37.7484C142.725 37.485 142.68 37.2217 142.581 36.9788C142.482 36.7358 142.33 36.5197 142.137 36.347C141.671 35.9791 141.091 35.799 140.506 35.8403H136.029V39.7374L140.506 39.759ZM149.439 35.9858C149.619 37.1751 150.228 38.2496 151.143 38.9936C152.106 39.7295 153.281 40.1092 154.478 40.0716C156.323 40.0716 157.663 39.3655 158.497 37.964L160.582 39.1769C159.22 41.333 157.173 42.411 154.442 42.411C153.447 42.4523 152.453 42.2822 151.524 41.9114C150.594 41.5406 149.748 40.9769 149.037 40.2549C148.349 39.5426 147.809 38.6921 147.451 37.7558C147.092 36.8196 146.923 35.8173 146.953 34.8107C146.925 33.8111 147.091 32.8159 147.441 31.8836C147.791 30.9514 148.318 30.1011 148.99 29.3828C149.677 28.6653 150.501 28.1033 151.409 27.7321C152.317 27.361 153.289 27.1889 154.265 27.2267C155.208 27.1955 156.146 27.3798 157.013 27.7665C157.88 28.1531 158.653 28.7326 159.279 29.4636C160.566 30.9385 161.26 32.867 161.217 34.8539C161.217 35.231 161.189 35.6077 161.134 35.9804L149.439 35.9858ZM154.27 29.6092C153.103 29.5481 151.957 29.946 151.062 30.7229C150.166 31.4997 149.588 32.5981 149.444 33.7974H158.768C158.642 32.5915 158.084 31.478 157.204 30.6764C156.382 29.9659 155.341 29.5835 154.27 29.5984V29.6092ZM171.719 27.2428C172.654 27.2288 173.582 27.4178 174.442 27.7975C175.302 28.1772 176.075 28.7393 176.712 29.4474C178.045 30.9038 178.787 32.8327 178.787 34.8377C178.787 36.8427 178.045 38.7715 176.712 40.2279C176.075 40.9368 175.302 41.4997 174.442 41.8804C173.582 42.261 172.655 42.451 171.719 42.438C170.674 42.4853 169.635 42.246 168.708 41.7443C167.781 41.2426 166.998 40.4963 166.44 39.5811V47.8228H164.016V27.6148H166.44V30.0997C166.998 29.1845 167.781 28.4382 168.708 27.9365C169.635 27.4348 170.674 27.1955 171.719 27.2428ZM171.412 40.0016C172.066 40.0172 172.715 39.8932 173.321 39.6372C173.926 39.3812 174.474 38.9988 174.93 38.5138C175.843 37.5208 176.352 36.2028 176.352 34.8323C176.352 33.4618 175.843 32.1438 174.93 31.1508C173.984 30.2001 172.717 29.6683 171.399 29.6683C170.08 29.6683 168.813 30.2001 167.868 31.1508C166.951 32.1419 166.439 33.4607 166.439 34.8323C166.439 36.204 166.951 37.5227 167.868 38.5138C168.328 39.0008 168.88 39.3844 169.49 39.6404C170.099 39.8964 170.754 40.0193 171.412 40.0016ZM193.484 42.0445H190.471L184.108 35.2096V42.0445H181.679V27.6148H184.108V33.9968L190.133 27.6148H193.26L186.589 34.6221L193.484 42.0445ZM206.018 27.6094H208.473V42.0445H206.044V39.5649C205.487 40.4801 204.706 41.2264 203.779 41.7282C202.853 42.2299 201.815 42.4692 200.77 42.4218C199.834 42.4349 198.905 42.245 198.044 41.8643C197.184 41.4837 196.409 40.9208 195.772 40.2118C194.443 38.7535 193.703 36.8254 193.703 34.8215C193.703 32.8177 194.443 30.8895 195.772 29.4313C196.41 28.723 197.184 28.1609 198.045 27.7812C198.906 27.4014 199.834 27.2125 200.77 27.2267C201.815 27.1792 202.853 27.4185 203.779 27.9203C204.706 28.422 205.487 29.1683 206.044 30.0835V27.6148L206.018 27.6094ZM201.046 40.007C201.705 40.0248 202.36 39.9019 202.971 39.6459C203.581 39.3899 204.135 39.0064 204.595 38.5192C205.509 37.5262 206.018 36.2082 206.018 34.8377C206.018 33.4672 205.509 32.1492 204.595 31.1562C203.65 30.2055 202.383 29.6737 201.064 29.6737C199.746 29.6737 198.479 30.2055 197.533 31.1562C196.62 32.1492 196.111 33.4672 196.111 34.8377C196.111 36.2082 196.62 37.5262 197.533 38.5192C197.988 39.0038 198.535 39.386 199.14 39.642C199.744 39.8979 200.393 40.0222 201.046 40.007ZM230.915 42.0445H227.903L221.539 35.2096V42.0445H219.11V27.6148H221.539V33.9968L227.564 27.6148H230.691L224.02 34.6221L230.915 42.0445ZM243.674 40.2279C242.279 41.6332 240.409 42.4196 238.462 42.4196C236.515 42.4196 234.645 41.6332 233.25 40.2279C231.885 38.7889 231.12 36.8535 231.12 34.8377C231.12 32.8219 231.885 30.8865 233.25 29.4474C234.28 28.3804 235.593 27.6535 237.023 27.3589C238.452 27.0642 239.934 27.2151 241.281 27.7923C242.628 28.3695 243.779 29.3472 244.588 30.6014C245.397 31.8556 245.828 33.33 245.826 34.8377C245.845 35.8405 245.664 36.8365 245.295 37.7638C244.925 38.6911 244.375 39.5299 243.679 40.2279H243.674ZM238.462 39.9692C239.115 39.978 239.763 39.8509 240.367 39.5954C240.972 39.3399 241.52 38.9612 241.98 38.4819C242.44 38.0026 242.802 37.4325 243.045 36.8055C243.287 36.1786 243.406 35.5075 243.392 34.8323C243.406 34.156 243.288 33.4837 243.045 32.8556C242.802 32.2276 242.439 31.6567 241.978 31.1771C241.517 30.6975 240.967 30.3191 240.361 30.0645C239.755 29.8099 239.105 29.6844 238.451 29.6954C237.804 29.6815 237.16 29.8048 236.561 30.0579C235.961 30.311 235.418 30.6884 234.965 31.1669C234.049 32.152 233.537 33.4656 233.537 34.8323C233.537 36.199 234.049 37.5126 234.965 38.4977C235.417 38.9779 235.96 39.3569 236.56 39.611C237.159 39.865 237.803 39.9888 238.451 39.9746L238.462 39.9692ZM258.366 27.6094H260.795V42.0445H258.366V36.0182H251.121V42.0445H248.698V27.6148H251.121V33.6195H258.355V27.6148L258.366 27.6094ZM274.861 27.6094V30.035H270.113V42.0445H267.685V30.0404H262.916V27.6148L274.861 27.6094ZM284.685 27.2374C285.621 27.2237 286.549 27.4127 287.41 27.7924C288.271 28.1721 289.046 28.7341 289.684 29.4421C291.013 30.9003 291.753 32.8285 291.753 34.8323C291.753 36.8362 291.013 38.7643 289.684 40.2226C289.046 40.9313 288.272 41.494 287.411 41.8747C286.55 42.2553 285.622 42.4453 284.685 42.4326C283.641 42.4806 282.602 42.2415 281.676 41.7397C280.749 41.2379 279.968 40.4913 279.411 39.5757V47.8228H276.982V27.6148H279.411V30.0997C279.968 29.1841 280.749 28.4375 281.676 27.9357C282.602 27.4339 283.641 27.1948 284.685 27.2428V27.2374ZM284.378 39.9962C285.032 40.0118 285.682 39.8878 286.287 39.6318C286.892 39.3758 287.44 38.9934 287.896 38.5085C288.809 37.5155 289.319 36.1974 289.319 34.8269C289.319 33.4564 288.809 32.1384 287.896 31.1454C286.95 30.1947 285.684 29.6629 284.365 29.6629C283.046 29.6629 281.78 30.1947 280.834 31.1454C279.921 32.1384 279.411 33.4564 279.411 34.8269C279.411 36.1974 279.921 37.5155 280.834 38.5085C281.294 38.9952 281.846 39.3785 282.456 39.6345C283.066 39.8905 283.72 40.0136 284.378 39.9962ZM306.205 27.5986H308.634V42.0445H306.195V39.5649C305.638 40.4805 304.856 41.2271 303.93 41.7289C303.004 42.2307 301.965 42.4698 300.92 42.4218C299.984 42.4349 299.056 42.245 298.195 41.8643C297.334 41.4837 296.56 40.9208 295.922 40.2118C294.593 38.7535 293.853 36.8254 293.853 34.8215C293.853 32.8177 294.593 30.8895 295.922 29.4313C296.56 28.723 297.334 28.1609 298.195 27.7812C299.056 27.4014 299.985 27.2125 300.92 27.2267C301.965 27.1786 303.004 27.4177 303.93 27.9195C304.856 28.4213 305.638 29.168 306.195 30.0835V27.6148L306.205 27.5986ZM301.238 39.9962C301.896 40.0136 302.55 39.8905 303.16 39.6345C303.77 39.3785 304.322 38.9952 304.782 38.5085C305.696 37.5155 306.205 36.1974 306.205 34.8269C306.205 33.4564 305.696 32.1384 304.782 31.1454C303.837 30.1947 302.57 29.6629 301.251 29.6629C299.933 29.6629 298.666 30.1947 297.72 31.1454C296.807 32.1384 296.298 33.4564 296.298 34.8269C296.298 36.1974 296.807 37.5155 297.72 38.5085C298.176 38.995 298.725 39.3789 299.331 39.6358C299.937 39.8927 300.588 40.0173 301.243 40.0016L301.238 39.9962ZM321.476 27.5986V30.0242H314.737V42.0445H312.308V27.6148L321.476 27.5986ZM324.738 35.975C324.924 37.1646 325.539 38.2372 326.458 38.9774C327.421 39.7141 328.596 40.0939 329.794 40.0555C331.634 40.0555 332.973 39.3493 333.812 37.9479L335.897 39.1607C334.542 41.3168 332.495 42.3948 329.757 42.3948C328.763 42.4353 327.771 42.265 326.842 41.8942C325.913 41.5234 325.068 40.96 324.358 40.2387C323.67 39.5264 323.13 38.6759 322.771 37.7397C322.413 36.8034 322.243 35.8011 322.273 34.7946C322.244 33.7948 322.41 32.7992 322.76 31.8668C323.11 30.9344 323.637 30.0842 324.311 29.3666C324.998 28.6486 325.821 28.0862 326.729 27.715C327.637 27.3439 328.61 27.172 329.585 27.2105C330.528 27.1794 331.465 27.3638 332.331 27.7504C333.197 28.1371 333.97 28.7165 334.594 29.4474C335.882 30.9223 336.576 32.8508 336.533 34.8377C336.533 35.2149 336.505 35.5915 336.449 35.9643L324.738 35.975ZM329.57 29.593C328.402 29.5331 327.256 29.9313 326.36 30.7078C325.465 31.4843 324.885 32.582 324.738 33.7812H334.078C333.957 32.5738 333.399 31.4585 332.514 30.6603C331.694 29.9497 330.655 29.5672 329.585 29.5822L329.57 29.593ZM348.968 27.5986H351.397V42.0445H348.968V36.0182H341.729V42.0445H339.29V27.6148H341.718V33.6195H348.947V27.6148L348.968 27.5986ZM365.464 27.5986V30.0242H360.721V42.0445H358.292V30.0404H353.518V27.6148L365.464 27.5986ZM378.582 27.5986H380.984V42.0445H378.556V39.5649C377.999 40.4805 377.217 41.2271 376.291 41.7289C375.365 42.2307 374.326 42.4698 373.281 42.4218C372.345 42.4345 371.417 42.2445 370.556 41.8639C369.695 41.4833 368.921 40.9205 368.283 40.2118C366.954 38.7535 366.214 36.8254 366.214 34.8215C366.214 32.8177 366.954 30.8895 368.283 29.4313C368.921 28.7233 369.696 28.1613 370.557 27.7816C371.417 27.4019 372.346 27.2129 373.281 27.2267C374.326 27.1786 375.365 27.4177 376.291 27.9195C377.217 28.4213 377.999 29.168 378.556 30.0835V27.6148L378.582 27.5986ZM373.615 39.9962C374.273 40.0136 374.927 39.8905 375.537 39.6345C376.147 39.3785 376.699 38.9952 377.159 38.5085C378.072 37.5155 378.581 36.1974 378.581 34.8269C378.581 33.4564 378.072 32.1384 377.159 31.1454C376.213 30.1947 374.947 29.6629 373.628 29.6629C372.309 29.6629 371.042 30.1947 370.097 31.1454C369.184 32.1384 368.674 33.4564 368.674 34.8269C368.674 36.1974 369.184 37.5155 370.097 38.5085C370.551 38.993 371.097 39.3757 371.7 39.6325C372.304 39.8894 372.952 40.015 373.604 40.0016L373.615 39.9962Z" fill="#333333"/>
<path fill-rule="evenodd" clip-rule="evenodd" d="M4.06001 14.3052H72.017V45.8166C72.017 46.9302 71.5892 47.9983 70.8278 48.7857C70.0664 49.5732 69.0338 50.0156 67.957 50.0156H4.06001C2.98323 50.0156 1.95055 49.5732 1.18915 48.7857C0.42775 47.9983 0 46.9302 0 45.8166L0 18.5042C0 17.3905 0.42775 16.3225 1.18915 15.535C1.95055 14.7476 2.98323 14.3052 4.06001 14.3052Z" fill="#E31724"/>
<path fill-rule="evenodd" clip-rule="evenodd" d="M80.4601 10.5002C81.8256 8.62441 82.4823 5.39025 81.4191 0C68.0038 2.1561 70.8808 9.65395 72.1629 11.9987C74.1388 8.83027 76.4689 5.91378 79.105 3.30962C77.3179 5.97987 75.7722 8.81451 74.4874 11.7777C76.2959 9.6216 78.4171 9.50841 80.4601 10.5002ZM84.6817 14.8987C78.8027 21.7551 75.6496 17.9603 74.4769 15.9013C76.3029 15.2732 78.2252 14.999 80.1474 15.0927C78.207 14.473 76.1769 14.2085 74.1486 14.3111C74.8626 12.5377 77.8021 7.30379 84.6817 14.8987Z" fill="#85BC22"/>
<path fill-rule="evenodd" clip-rule="evenodd" d="M41.0483 22.1431H42.8151V23.9704H41.0483V22.1431ZM15.7449 33.592L20.1333 22.1431H23.0519L16.3078 38.5779C15.3175 40.9874 14.0198 42.0547 11.6172 42.1517C10.371 42.1713 9.13269 41.9444 7.96887 41.4833V39.1817C10.2464 39.8716 10.5435 39.9525 11.3566 39.9363C12.4667 39.9363 13.4048 39.3218 14.4837 36.7453L7.98451 22.1431H10.8041L15.7449 33.592ZM34.8775 42.1517H32.4436V36.8315C31.3737 37.123 30.2718 37.2698 29.1654 37.2681C25.7516 37.2681 23.7242 35.4462 23.6929 31.8455V27.4902H26.1164V31.9479C26.1164 34.1364 27.1588 35.0905 29.1654 35.0905C30.2718 35.0921 31.3737 34.9454 32.4436 34.6538V27.4902H34.8775V42.1517ZM44.5715 42.1517C40.0268 42.1517 37.8274 39.0685 37.8274 34.7724C37.8274 30.9993 40.178 27.501 44.2588 27.501C49.3456 27.501 50.3097 31.3442 50.3097 35.5217H40.0685C40.0659 36.1371 40.1839 36.7468 40.4152 37.3139C40.6465 37.8809 40.9864 38.3937 41.4145 38.8213C41.8425 39.2489 42.3498 39.5825 42.9058 39.8019C43.4618 40.0213 44.055 40.122 44.6497 40.098C45.3978 40.1308 46.143 39.9827 46.826 39.6655C47.5091 39.3483 48.1112 38.8707 48.5846 38.2707L50.1482 39.4188C48.8973 41.2407 47.0384 42.1517 44.5715 42.1517ZM44.2588 29.4792C41.8874 29.4792 40.4229 31.4035 40.1519 33.5434H48.0687C48.0687 31.3496 46.6354 29.4792 44.2588 29.4792ZM64.0273 29.5277H59.2741V42.1517H56.8506V29.5277H52.1599V27.4902H64.0012V29.5169L64.0273 29.5277ZM45.3429 22.1592H47.1097V23.9865H45.3429V22.1592Z" fill="white"/>
</g>
<defs>
<clipPath id="clip0">
<rect width="381" height="50" fill="white"/>
</clipPath>
</defs>
</svg>
