<svg width="24" height="22" viewBox="0 0 24 22" fill="none" xmlns="http://www.w3.org/2000/svg">
<path d="M11.7315 21.8118C8.99183 20.179 6.44507 18.2537 4.13778 16.0711C2.50893 14.5128 1.26495 12.61 0.500916 10.5082C-0.864243 6.40921 0.724887 1.72466 5.16165 0.333933C7.50346 -0.375701 10.0504 0.0599262 12.0088 1.50507C13.9679 0.0615424 16.514 -0.373943 18.8559 0.333933C23.2927 1.72466 24.8925 6.40921 23.5273 10.5082C22.7695 12.608 21.5329 14.5106 19.9118 16.0711C17.6024 18.2513 15.0559 20.1764 12.3181 21.8118L12.0194 22L11.7315 21.8118Z" fill="#F44336"/>
<path d="M12.0132 21.9999L11.7313 21.8117C8.98831 20.179 6.438 18.2538 4.12698 16.071C2.4904 14.5148 1.23902 12.6119 0.468778 10.5081C-0.885716 6.40912 0.703414 1.72457 5.14018 0.333841C7.48199 -0.375793 10.0625 0.0601677 12.0132 1.51741V21.9999Z" fill="#F44336"/>
<path d="M19.4765 8.10444C19.2354 8.08946 19.011 7.97321 18.8556 7.78294C18.7003 7.59266 18.6278 7.34506 18.6551 7.09815C18.6811 6.28489 18.2016 5.54466 17.462 5.25664C16.9931 5.13312 16.7091 4.64307 16.8264 4.15979C16.9377 3.68428 17.3992 3.38862 17.863 3.49564C17.9215 3.50502 17.9779 3.52549 18.0292 3.55602C19.5121 4.10664 20.4721 5.58854 20.3957 7.20884C20.3933 7.45442 20.2941 7.68847 20.1207 7.85732C19.9474 8.02618 19.7149 8.11536 19.4765 8.10444Z" fill="white"/>
</svg>
