<svg width="24" height="30" viewBox="0 0 24 30" fill="none" xmlns="http://www.w3.org/2000/svg">
<path d="M12 16.6971C14.9129 16.6971 17.2743 14.3357 17.2743 11.4228C17.2743 8.50993 14.9129 6.14856 12 6.14856C9.08711 6.14856 6.72574 8.50993 6.72574 11.4228C6.72574 14.3357 9.08711 16.6971 12 16.6971Z" fill="#D94646"/>
<path d="M22.1769 9.29313C21.8189 9.02702 21.703 8.58322 21.879 8.16772C22.3829 7.00023 22.1734 6.19245 21.8953 5.69538C21.4858 5.01377 20.7578 4.61802 19.7551 4.52015C19.2942 4.46348 18.9594 4.12869 18.9053 3.68916C18.8048 2.66502 18.4091 1.93711 17.7026 1.513C17.2313 1.24858 16.4201 1.03913 15.262 1.5413C14.8397 1.71729 14.395 1.60395 14.1246 1.23915C12.8713 -0.410763 11.1338 -0.41762 9.87016 1.246C9.60492 1.60395 9.16107 1.71987 8.74475 1.54388C7.57896 1.04083 6.76948 1.24858 6.27241 1.52759C5.59079 1.93705 5.19505 2.66502 5.09718 3.66771C5.04051 4.12869 4.70571 4.46348 4.26619 4.51757C3.24204 4.61802 2.51414 5.01377 2.09003 5.72023C1.82649 6.19239 1.61704 7.00017 2.11833 8.16163C2.29689 8.5831 2.18098 9.02696 1.81617 9.29823C0.991219 9.92488 0.572266 10.6391 0.572266 11.4229C0.572266 12.2066 0.99116 12.9209 1.82303 13.5527C2.18098 13.8188 2.29689 14.2626 2.12091 14.6781C1.61698 15.8456 1.82649 16.6534 2.10462 17.1505C2.51408 17.8321 3.24204 18.2278 4.24474 18.3257C4.70571 18.3823 5.04051 18.7171 5.0946 19.1567C5.19505 20.1808 5.59079 20.9087 6.29725 21.3328C6.76854 21.5972 7.5772 21.8058 8.73866 21.3045C9.16529 21.126 9.60481 21.2436 9.87526 21.6067C10.5019 22.4316 11.2162 22.8506 11.9999 22.8506C12.7837 22.8506 13.4979 22.4317 14.1297 21.5998C14.3958 21.2419 14.8379 21.1285 15.2551 21.3019C16.4226 21.8059 17.2313 21.5964 17.7275 21.3182C18.4091 20.9088 18.8048 20.1808 18.9027 19.1781C18.9594 18.7171 19.2942 18.3823 19.7337 18.3283C20.7578 18.2278 21.4858 17.8321 21.9099 17.1256C22.1734 16.6534 22.3828 15.8457 21.8816 14.6842C21.703 14.2627 21.8189 13.8189 22.1837 13.5476C23.0087 12.921 23.4276 12.2067 23.4276 11.4229C23.4276 10.6392 23.0087 9.92493 22.1769 9.29313ZM12 18.4552C8.12244 18.4552 4.96767 15.3005 4.96767 11.4229C4.96767 7.5453 8.12244 4.39052 12 4.39052C15.8776 4.39052 19.0324 7.5453 19.0324 11.4229C19.0324 15.3005 15.8776 18.4552 12 18.4552Z" fill="#D94646"/>
<path d="M8.86242 23.2501C8.37139 23.4055 7.87954 23.4845 7.39963 23.4845C6.70085 23.4854 6.02182 23.3111 5.43725 22.9831C5.14014 22.8052 4.83142 22.5463 4.5374 22.2343L2.4945 25.094C2.30305 25.3618 2.27732 25.7138 2.42752 26.0074C2.5786 26.3001 2.87988 26.4838 3.20958 26.4838H6.18239L7.69751 29.5142C7.84689 29.812 8.15075 30 8.48385 30C8.81695 30 9.12081 29.812 9.27018 29.5142L11.6787 24.6972C10.8717 24.6335 9.8449 24.3152 8.86242 23.2501Z" fill="#D94646"/>
<path d="M19.4691 22.2433C19.1918 22.5356 18.9042 22.7798 18.6332 22.9428C17.9791 23.3103 17.3086 23.4828 16.5944 23.4828C16.1196 23.4828 15.6312 23.4047 15.1359 23.2493C14.1478 24.3154 13.1249 24.6336 12.3214 24.6973L14.7298 29.5142C14.8792 29.8121 15.1831 30.0001 15.5161 30.0001C15.8492 30.0001 16.1531 29.8121 16.3025 29.5142L17.8176 26.4839H20.7904C21.12 26.4839 21.4214 26.3002 21.5725 26.0075C21.7227 25.7139 21.6969 25.3619 21.5055 25.0941L19.4691 22.2433Z" fill="#D94646"/>
</svg>
