<svg width="25" height="25" viewBox="0 0 25 25" fill="none" xmlns="http://www.w3.org/2000/svg">
<path d="M0 9.375V21.875C0 22.7379 0.69952 23.4375 1.5625 23.4375H6.25V7.8125H1.5625C0.69952 7.8125 0 8.51202 0 9.375Z" fill="#F44336"/>
<path d="M22.1146 9.37465H17.4988C17.0952 9.37465 16.893 9.10533 16.8251 8.98936C16.7572 8.87416 16.6199 8.56669 16.8152 8.21422L18.4425 5.28376C18.7996 4.64213 18.8362 3.88758 18.544 3.2139C18.2518 2.53947 17.675 2.05042 16.9617 1.87266L15.8142 1.58579C15.535 1.5156 15.2389 1.60486 15.0444 1.82078L8.81424 8.74217C8.16803 9.46162 7.8125 10.3894 7.8125 11.3552V19.5309C7.8125 21.6847 9.56497 23.4371 11.7187 23.4371L19.4908 23.4364C21.2456 23.4364 22.7951 22.2546 23.2582 20.5631L24.926 12.9093C24.9748 12.6965 25 12.4783 25 12.2601C25 10.6693 23.7053 9.37463 22.1145 9.37463L22.1146 9.37465Z" fill="#F44336"/>
</svg>
