<svg width="18" height="14" viewBox="0 0 18 14" fill="none" xmlns="http://www.w3.org/2000/svg">
<path d="M11.4545 6.86111C13.2627 6.86111 14.7273 5.32594 14.7273 3.43056C14.7273 1.53517 13.2627 0 11.4545 0C9.64636 0 8.18182 1.53517 8.18182 3.43056C8.18182 5.32594 9.64636 6.86111 11.4545 6.86111ZM4.09091 5.14583V3.43056C4.09091 2.95885 3.72273 2.57292 3.27273 2.57292C2.82273 2.57292 2.45455 2.95885 2.45455 3.43056V5.14583H0.818182C0.368182 5.14583 0 5.53177 0 6.00347C0 6.47517 0.368182 6.86111 0.818182 6.86111H2.45455V8.57639C2.45455 9.04809 2.82273 9.43403 3.27273 9.43403C3.72273 9.43403 4.09091 9.04809 4.09091 8.57639V6.86111H5.72727C6.17727 6.86111 6.54545 6.47517 6.54545 6.00347C6.54545 5.53177 6.17727 5.14583 5.72727 5.14583H4.09091ZM11.4545 8.57639C9.27 8.57639 4.90909 9.72562 4.90909 12.0069V12.8646C4.90909 13.3363 5.27727 13.7222 5.72727 13.7222H17.1818C17.6318 13.7222 18 13.3363 18 12.8646V12.0069C18 9.72562 13.6391 8.57639 11.4545 8.57639Z" fill="white"/>
</svg>
