<svg width="24" height="24" viewBox="0 0 24 24" fill="none" xmlns="http://www.w3.org/2000/svg">
<path d="M12 3C7.03732 3 3 7.03732 3 12C3 16.9627 7.03732 21 12 21C16.9627 21 21 16.9627 21 12C21 7.03732 16.9627 3 12 3ZM12 19.0328C8.12202 19.0328 4.96721 15.878 4.96721 12C4.96721 8.12221 8.12202 4.96721 12 4.96721C15.878 4.96721 19.0328 8.12221 19.0328 12C19.0328 15.878 15.878 19.0328 12 19.0328Z" fill="#93C456"/>
<path d="M12.7791 12.0109V8.23881C12.7791 7.81762 12.4378 7.47632 12.0167 7.47632C11.5956 7.47632 11.2542 7.81762 11.2542 8.23881V12.2545C11.2542 12.2665 11.2572 12.2777 11.2578 12.2897C11.2477 12.4971 11.3192 12.7076 11.4775 12.8659L14.3172 15.7054C14.6151 16.0033 15.0978 16.0033 15.3954 15.7054C15.6931 15.4076 15.6933 14.9248 15.3954 14.6272L12.7791 12.0109Z" fill="#93C456"/>
</svg>
