<svg width="16" height="16" viewBox="0 0 16 16" fill="none" xmlns="http://www.w3.org/2000/svg">
<path d="M16 6.35718C15.9987 5.2531 15.1041 4.35843 14 4.35718H8.57143C7.46735 4.35843 6.57268 5.2531 6.57143 6.35718V9.78575C6.57268 10.8898 7.46735 11.7845 8.57143 11.7857H10.2857C10.3615 11.7857 10.4341 11.8159 10.4877 11.8695L13.1429 14.5246V12.0715C13.1429 11.9137 13.2708 11.7857 13.4286 11.7857H14C15.1041 11.7845 15.9987 10.8898 16 9.78575V6.35718ZM14.5714 10.0715H8C7.84221 10.0715 7.71428 9.94353 7.71428 9.78575C7.71428 9.62796 7.84221 9.50003 8 9.50003H14.5714C14.7292 9.50003 14.8571 9.62796 14.8571 9.78575C14.8571 9.94353 14.7292 10.0715 14.5714 10.0715ZM14.5714 8.35718H8C7.84221 8.35718 7.71428 8.22925 7.71428 8.07146C7.71428 7.91368 7.84221 7.78575 8 7.78575H14.5714C14.7292 7.78575 14.8571 7.91368 14.8571 8.07146C14.8571 8.22925 14.7292 8.35718 14.5714 8.35718ZM14.5714 6.64289H8C7.84221 6.64289 7.71428 6.51496 7.71428 6.35718C7.71428 6.19939 7.84221 6.07146 8 6.07146H14.5714C14.7292 6.07146 14.8571 6.19939 14.8571 6.35718C14.8571 6.51496 14.7292 6.64289 14.5714 6.64289Z" fill="#93C456"/>
<path d="M4.94085 9.01228C4.99442 8.95871 5.0671 8.92857 5.14286 8.92857H6V6.35714C6.00167 4.93764 7.15193 3.78739 8.57143 3.78571H9.42857V3.5C9.42732 2.39593 8.53265 1.50126 7.42857 1.5H2C0.895926 1.50126 0.00125558 2.39593 0 3.5V6.92857C0.00125558 8.03265 0.895926 8.92732 2 8.92857H2.57143C2.72921 8.92857 2.85714 9.0565 2.85714 9.21429V11.096L4.94085 9.01228ZM1.14286 3.21429H7.14286C7.30064 3.21429 7.42857 3.34222 7.42857 3.5C7.42857 3.65778 7.30064 3.78571 7.14286 3.78571H1.14286C0.985073 3.78571 0.857143 3.65778 0.857143 3.5C0.857143 3.34222 0.985073 3.21429 1.14286 3.21429ZM1.14286 4.92857H5.42857C5.58636 4.92857 5.71429 5.0565 5.71429 5.21429C5.71429 5.37207 5.58636 5.5 5.42857 5.5H1.14286C0.985073 5.5 0.857143 5.37207 0.857143 5.21429C0.857143 5.0565 0.985073 4.92857 1.14286 4.92857ZM1.14286 7.21429C0.985073 7.21429 0.857143 7.08636 0.857143 6.92857C0.857143 6.77079 0.985073 6.64286 1.14286 6.64286H5.14286C5.30064 6.64286 5.42857 6.77079 5.42857 6.92857C5.42857 7.08636 5.30064 7.21429 5.14286 7.21429H1.14286Z" fill="#93C456"/>
</svg>
