<svg width="12" height="12" viewBox="0 0 12 12" fill="none" xmlns="http://www.w3.org/2000/svg">
<g clip-path="url(#clip0)">
<path d="M11.2174 2.3383H10.3439C10.4591 2.15596 10.5352 1.95128 10.5568 1.73481C10.6261 1.04301 10.2618 0.422851 9.64148 0.147906C9.07134 -0.104821 8.43063 -0.0015084 7.96927 0.416945L6.8663 1.41655C6.65149 1.18162 6.3427 1.03396 6 1.03396C5.65669 1.03396 5.34741 1.18209 5.13255 1.41775L4.02818 0.416828C3.56606 -0.00162557 2.92561 -0.10454 2.35573 0.148046C1.73562 0.423015 1.37121 1.04338 1.44068 1.73516C1.46241 1.95147 1.53839 2.15605 1.65359 2.3383H0.782602C0.350367 2.3383 0 2.6887 0 3.12091V4.29482C0 4.51091 0.175195 4.68613 0.391312 4.68613H11.6087C11.8248 4.68613 12 4.51094 12 4.29482V3.12091C12 2.6887 11.6496 2.3383 11.2174 2.3383ZM4.82609 2.20787V2.3383H2.98523C2.49886 2.3383 2.11608 1.88488 2.23755 1.37849C2.29106 1.15548 2.45203 0.965382 2.66023 0.869148C2.94612 0.737007 3.2628 0.779429 3.50292 0.996765L4.82641 2.19634C4.82634 2.20021 4.82609 2.20401 4.82609 2.20787ZM9.78033 1.63091C9.75117 2.03762 9.38379 2.33835 8.97605 2.33835H7.17391V2.20792C7.17391 2.2033 7.17363 2.19873 7.17359 2.19412C7.4734 1.92234 8.12381 1.33284 8.47657 1.01308C8.67705 0.831367 8.95758 0.746546 9.21689 0.82389C9.58901 0.93489 9.80754 1.25134 9.78033 1.63091Z" fill="#93C456"/>
<path d="M0.782608 5.46777V11.2069C0.782608 11.6391 1.13298 11.9895 1.56521 11.9895H5.21738V5.46777H0.782608Z" fill="#93C456"/>
<path d="M6.78259 5.46777V11.9895H10.4348C10.867 11.9895 11.2174 11.6391 11.2174 11.2069V5.46777H6.78259Z" fill="#93C456"/>
</g>
<defs>
<clipPath id="clip0">
<rect width="12" height="12" fill="white"/>
</clipPath>
</defs>
</svg>
