<svg width="14" height="14" viewBox="0 0 14 14" fill="none" xmlns="http://www.w3.org/2000/svg">
<path d="M6.07852 5.43561C6.61857 4.84984 6.91612 4.06411 6.91612 3.22292C6.91612 1.62133 5.77215 0 3.58531 0C2.5676 0 1.70904 0.349555 1.10232 1.01085C0.564892 1.5967 0.268997 2.38226 0.268997 3.22292C0.268997 4.82469 1.40813 6.44593 3.58531 6.44593C4.60682 6.44598 5.46914 6.09668 6.07852 5.43561ZM3.58531 1.49855C4.78352 1.49855 5.3292 2.393 5.3292 3.22406C5.3292 3.67613 5.17708 4.09463 4.90062 4.40231C4.59219 4.74597 4.14396 4.92769 3.60474 4.92769C2.37624 4.92769 1.81658 4.03333 1.81658 3.20236C1.81658 2.35441 2.36357 1.49855 3.58531 1.49855Z" fill="#93C456"/>
<path d="M11.5386 1.24327C11.3404 1.24685 11.0699 1.37041 10.9373 1.51777L1.09965 12.4555C0.967133 12.603 1.06101 12.8097 1.25919 12.8097H2.54677C2.74495 12.8097 3.01525 12.6888 3.14755 12.5412L12.9244 1.60571C13.0566 1.458 13.0479 1.21769 12.7204 1.21777L11.5386 1.24327Z" fill="#93C456"/>
<path d="M10.4634 7.67651C9.46531 7.67651 8.62304 8.01961 8.0278 8.66829C7.50063 9.24279 7.21019 10.0135 7.21019 10.8382C7.21019 12.4093 8.32766 13.9998 10.4634 13.9998C11.4658 13.9998 12.3114 13.6571 12.9093 13.0087C13.4392 12.434 13.731 11.6632 13.731 10.8382C13.7309 9.2671 12.6086 7.67651 10.4634 7.67651ZM10.4827 12.549C9.28743 12.549 8.74284 11.6514 8.74284 10.8179C8.74284 10.3639 8.89487 9.94386 9.17112 9.635C9.47906 9.29033 9.9259 9.10818 10.4634 9.10818C11.6587 9.10818 12.2031 10.0056 12.2031 10.8394C12.2031 11.2932 12.051 11.7134 11.775 12.0222C11.4669 12.3668 11.0201 12.549 10.4827 12.549Z" fill="#93C456"/>
</svg>
