<svg width="47" height="47" viewBox="0 0 47 47" fill="none" xmlns="http://www.w3.org/2000/svg"><path d="M36.998 1.316V1.31A4.447 4.447 0 0 0 33.847 0H13.148a4.472 4.472 0 0 0-4.457 4.457v38.08c0 1.184.472 2.318 1.311 3.152A4.447 4.447 0 0 0 13.148 47h20.704a4.447 4.447 0 0 0 3.146-1.311 4.448 4.448 0 0 0 1.31-3.146V4.463a4.448 4.448 0 0 0-1.31-3.147zM23.5 43.976a1.204 1.204 0 1 1 0-2.41 1.204 1.204 0 0 1 0 2.41zm11.27-7.56a2.913 2.913 0 0 1-2.914 2.913H15.14a2.913 2.913 0 0 1-2.913-2.914V8.035a2.913 2.913 0 0 1 2.913-2.913h16.722a2.913 2.913 0 0 1 2.913 2.914l-.005 28.38z" fill="#77BB46"/></svg>