<svg width="184" height="183" viewBox="0 0 184 183" fill="none" xmlns="http://www.w3.org/2000/svg"><g clip-path="url(#a)" opacity=".9"><path d="M11.5 30.5h37.167a5 5 0 0 1 5 5v80.594a4 4 0 0 1-4 4H33.708a4 4 0 0 1-4-4v-59.16a2 2 0 0 0-2-2H11.5V30.5z" fill="#6AA727"/><path d="M11.5 22.875h35.958c6.075 0 11 4.925 11 11v82.219a4 4 0 0 1-4 4H37.542a4 4 0 0 1-4-4V51.389a2 2 0 0 0-2-2H11.5V22.875z" fill="url(#b)"/><path d="M89.852 80.063H79.223c-17.29 0-31.306 11.948-31.306 26.687s14.016 26.688 31.306 26.688h51.499a7.279 7.279 0 0 0 0-14.557H79.223c-7.86 0-14.23-5.431-14.23-12.131s6.37-12.13 14.23-12.13h10.629V80.061z" fill="#6AA727"/><path d="M94.255 55.281H75.622C46.558 55.281 23 78.325 23 106.75s23.56 51.469 52.621 51.469h84.759c7.752 0 14.037-6.285 14.037-14.037 0-7.753-6.285-14.037-14.037-14.037H75.622c-13.21 0-23.92-10.474-23.92-23.395 0-12.92 10.71-23.395 23.92-23.395h18.633V55.281z" fill="url(#c)"/></g><defs><linearGradient id="b" x1="38.833" y1="35.723" x2="-10.683" y2="60.939" gradientUnits="userSpaceOnUse"><stop stop-color="#AFCA05"/><stop offset=".651" stop-color="#74BE3A"/><stop offset="1" stop-color="#79B653"/></linearGradient><linearGradient id="c" x1="111.134" y1="68.885" x2="52.086" y2="160.46" gradientUnits="userSpaceOnUse"><stop stop-color="#AFCA05"/><stop offset=".651" stop-color="#74BE3A"/><stop offset="1" stop-color="#79B653"/></linearGradient><clipPath id="a"><path fill="#fff" transform="translate(5.75 22.875)" d="M0 0h172.5v137.25H0z"/></clipPath></defs></svg>