<svg width="36" height="36" viewBox="0 0 36 36" fill="none" xmlns="http://www.w3.org/2000/svg"><g clip-path="url(#a)"><rect x="2.118" y="2.118" width="26.118" height="33.882" rx="5" fill="#77BB46"/><path d="M15.046 11.17c-.697 0-1.265-.487-1.265-1.085 0-.597.568-1.083 1.265-1.083.698 0 1.266.486 1.266 1.083a.703.703 0 0 0 1.406 0c0-1.146-.835-2.113-1.968-2.401v-.476a.703.703 0 0 0-1.407 0v.476c-1.133.288-1.968 1.255-1.968 2.401 0 1.373 1.198 2.49 2.671 2.49.698 0 1.266.486 1.266 1.084 0 .597-.568 1.083-1.266 1.083-.697 0-1.265-.486-1.265-1.083a.703.703 0 0 0-1.406 0c0 1.146.835 2.113 1.968 2.402v.573a.703.703 0 1 0 1.407 0v-.573c1.133-.289 1.968-1.256 1.968-2.402 0-1.373-1.198-2.49-2.671-2.49zM22.11 11.17h-1.37a.703.703 0 0 0 0 1.406h1.37a.703.703 0 1 0 0-1.407zM9.353 11.17h-1.37a.703.703 0 0 0 0 1.406h1.37a.703.703 0 1 0 0-1.407zM22.466 18.985H11.327a.703.703 0 0 0 0 1.406h11.14a.703.703 0 0 0 0-1.406zM8.124 19.19a.708.708 0 0 0-.497-.205.708.708 0 0 0-.497.206.709.709 0 0 0-.206.497c0 .185.075.366.206.497.13.13.312.206.497.206a.708.708 0 0 0 .497-.206.708.708 0 0 0 .206-.497.708.708 0 0 0-.206-.497zM22.466 23.625H11.327a.703.703 0 0 0 0 1.407h11.14a.703.703 0 0 0 0-1.407zM8.124 23.831a.708.708 0 0 0-.497-.206.708.708 0 0 0-.497.206.709.709 0 0 0-.206.498c0 .184.075.366.206.497.13.13.312.206.497.206a.708.708 0 0 0 .497-.206.708.708 0 0 0 .206-.497.708.708 0 0 0-.206-.498zM22.466 28.266H11.327a.703.703 0 0 0 0 1.406h11.14a.703.703 0 0 0 0-1.406zM8.124 28.472a.709.709 0 0 0-.497-.206.709.709 0 0 0-.497.206.709.709 0 0 0-.206.497c0 .185.075.366.206.497.13.13.312.206.497.206a.709.709 0 0 0 .497-.206.708.708 0 0 0 .206-.497.709.709 0 0 0-.206-.497z" fill="#fff"/><path d="M25 2h3v6h-3V2z" fill="#77BB46"/><rect x="21" y="1" width="3" height="6" rx="1.5" fill="#77BB46"/><path fill="#77BB46" d="M21 2h3v6h-3z"/><rect x="16" y="1" width="3" height="6" rx="1.5" fill="#77BB46"/><rect x="11" y="1" width="3" height="6" rx="1.5" fill="#77BB46"/><rect x="2" y="2" width="3" height="6" rx="1.5" fill="#77BB46"/><path fill="#77BB46" d="M7 1h1v2H7z"/></g><path d="M33.398 17.297h-5.204V.703a.703.703 0 0 0-1.2-.497l-1.992 1.992L23.01.206a.703.703 0 0 0-.994 0l-1.992 1.992L18.032.206a.703.703 0 0 0-.994 0l-1.992 1.992L13.054.206a.703.703 0 0 0-.994 0l-1.992 1.992L8.076.206a.703.703 0 0 0-.994 0L5.09 2.198 3.098.206A.703.703 0 0 0 1.9.722v31.622A3.66 3.66 0 0 0 5.555 36h24.89a3.661 3.661 0 0 0 3.656-3.656V18a.703.703 0 0 0-.703-.703zM5.555 34.594c-1.24 0-2.25-1.01-2.25-2.25V2.402l1.288 1.287c.274.275.72.275.994 0L7.58 1.697 9.571 3.69c.275.275.72.275.994 0l1.992-1.992L14.55 3.69c.275.275.72.275.994 0l1.992-1.992 1.992 1.992c.275.275.72.275.994 0l1.992-1.992 1.992 1.992c.275.275.72.275.995 0l1.288-1.288V18l.001.019v14.325c0 .848.291 1.629.778 2.25H5.555zm27.14-2.25c0 1.24-1.01 2.25-2.25 2.25s-2.25-1.01-2.25-2.25v-13.64h4.5v13.64z" fill="#77BB46"/><defs><clipPath id="a"><path fill="#fff" d="M0 0h36v36H0z"/></clipPath></defs></svg>