<svg width="46" height="46" viewBox="0 0 46 46" fill="none" xmlns="http://www.w3.org/2000/svg"><path d="M.747 43.273a2.134 2.134 0 1 0 4.257-.296 2.134 2.134 0 0 0-4.257.296zM6.935 39.878a.812.812 0 1 0 0-1.625.812.812 0 0 0 0 1.625zM9.233 37.58a.813.813 0 1 0 0-1.625.813.813 0 0 0 0 1.625zM10.957 33.895a.813.813 0 1 0 1.15 1.15.813.813 0 0 0-1.15-1.15zM13.255 31.596a.813.813 0 1 0 1.15 1.15.813.813 0 0 0-1.15-1.15zM14.157 18.825l2.928 9.595.478-4.923c.02-.209.12-.401.278-.538l21.3-18.678-24.984 14.544z" fill="#78B94C"/><path d="M19.568 23.617l8.308 8.23L45.162.111 19.568 23.617zM18.601 29.623l1.957-2.739-1.543-1.528-.414 4.267z" fill="#78B94C"/><path d="M13.322 17.43L45.162.112 8.442 12.597l4.88 4.833z" fill="#78B94C"/></svg>