<svg width="32" height="32" viewBox="0 0 32 32" fill="none" xmlns="http://www.w3.org/2000/svg"><path d="M29.57 10.757a8.9 8.9 0 0 0 .15-1.62A9.144 9.144 0 0 0 11.98 6.03a4.572 4.572 0 0 0-6.136 3.18 6.858 6.858 0 0 0 1.018 13.64h5.714a1.143 1.143 0 0 0 0-2.285H6.862a4.572 4.572 0 0 1 0-9.144c.63 0 1.143-.512 1.143-1.143A2.286 2.286 0 0 1 11.89 8.65a1.143 1.143 0 0 0 1.93-.63 6.85 6.85 0 1 1 13.373 2.907c-.13.477.06.985.473 1.257a4.572 4.572 0 0 1-2.517 8.382h-3.43a1.143 1.143 0 1 0 0 2.286h3.43a6.858 6.858 0 0 0 4.42-12.095z" fill="#fff"/><path d="M23.645 24.33a1.143 1.143 0 0 0-1.588 0l-3.766 3.763v-16.67a1.143 1.143 0 1 0-2.286 0v16.67l-3.764-3.763a1.143 1.143 0 0 0-1.616 1.616l5.715 5.714c.446.447 1.17.448 1.616.002.001 0 .002 0 .002-.002l5.715-5.714a1.143 1.143 0 0 0-.028-1.616z" fill="#fff"/></svg>