<svg width="12" height="12" viewBox="0 0 12 12" fill="none" xmlns="http://www.w3.org/2000/svg"><g clip-path="url(#a)" fill="#93C456"><path d="M11.217 2.338h-.873c.115-.182.191-.387.213-.603A1.54 1.54 0 0 0 9.64.148 1.534 1.534 0 0 0 7.97.417l-1.103 1a1.171 1.171 0 0 0-1.733 0l-1.105-1A1.535 1.535 0 0 0 2.356.148a1.54 1.54 0 0 0-.915 1.587c.021.216.097.421.213.603H.783A.783.783 0 0 0 0 3.121v1.174c0 .216.175.391.391.391H11.61A.391.391 0 0 0 12 4.295V3.12a.783.783 0 0 0-.783-.783zm-6.39-.13v.13H2.984a.772.772 0 0 1-.747-.96A.768.768 0 0 1 2.66.87a.753.753 0 0 1 .843.128l1.323 1.2v.01zM9.78 1.63c-.029.407-.396.707-.804.707H7.174v-.13-.014l1.303-1.18a.783.783 0 0 1 .74-.19c.372.11.59.427.563.807zM.783 5.468v5.739c0 .432.35.782.782.782h3.652V5.468H.783zM6.783 5.468v6.521h3.652c.432 0 .782-.35.782-.782v-5.74H6.783z"/></g><defs><clipPath id="a"><path fill="#fff" d="M0 0h12v12H0z"/></clipPath></defs></svg>