<svg width="14" height="14" viewBox="0 0 14 14" fill="none" xmlns="http://www.w3.org/2000/svg"><path d="M6.079 5.436c.54-.586.837-1.372.837-2.213C6.916 1.62 5.772 0 3.586 0 2.567 0 1.708.35 1.101 1.01.565 1.598.27 2.383.27 3.224c0 1.602 1.14 3.223 3.316 3.223 1.022 0 1.884-.35 2.494-1.01zM3.585 1.499c1.199 0 1.744.894 1.744 1.725 0 .452-.152.87-.428 1.178-.309.344-.757.526-1.296.526-1.229 0-1.788-.895-1.788-1.726 0-.848.547-1.703 1.768-1.703zM11.539 1.243a.951.951 0 0 0-.602.275L1.1 12.456c-.133.147-.039.354.16.354h1.287c.198 0 .468-.121.6-.269l9.777-10.935c.133-.148.124-.388-.204-.388l-1.181.025zM10.463 7.677c-.998 0-1.84.343-2.435.991-.527.575-.818 1.346-.818 2.17C7.21 12.41 8.328 14 10.463 14c1.003 0 1.848-.343 2.446-.991.53-.575.822-1.346.822-2.17 0-1.572-1.122-3.162-3.268-3.162zm.02 4.872c-1.196 0-1.74-.898-1.74-1.731 0-.454.152-.874.428-1.183.308-.345.755-.527 1.292-.527 1.196 0 1.74.898 1.74 1.731 0 .454-.152.874-.428 1.183-.308.345-.755.527-1.292.527z" fill="#93C456"/></svg>