<svg width="88" height="87" viewBox="0 0 88 87" fill="none" xmlns="http://www.w3.org/2000/svg"><g clip-path="url(#a)" fill="#fff"><path d="M87.83 47.519c-.79-7.857-4.34-15.264-9.997-20.858a34.63 34.63 0 0 0-16.979-9.216v-4.318c2.543-.625 4.434-2.9 4.434-5.606 0-3.186-2.622-5.777-5.844-5.777H47.068c-3.222 0-5.843 2.591-5.843 5.777 0 2.705 1.89 4.98 4.433 5.606v4.33a34.627 34.627 0 0 0-19.844 12.479c-.044-.003-.087-.007-.13-.007H13.434c-.949 0-1.719.761-1.719 1.7 0 .938.77 1.699 1.72 1.699h10.039a33.88 33.88 0 0 0-3.05 6.531H1.72c-.95 0-1.719.76-1.719 1.7 0 .938.77 1.699 1.719 1.699h17.735a34.183 34.183 0 0 0-.853 6.531H11c-.95 0-1.72.76-1.72 1.7 0 .938.77 1.699 1.72 1.699h7.655c.145 2.199.502 4.387 1.073 6.53H8.594c-.95 0-1.719.762-1.719 1.7 0 .939.77 1.7 1.719 1.7h12.232a34.088 34.088 0 0 0 7.906 12.086c5.663 5.599 13.163 9.11 21.118 9.887 1.136.11 2.272.166 3.407.166 6.707 0 13.328-1.92 18.947-5.537a1.688 1.688 0 0 0 .503-2.351 1.73 1.73 0 0 0-2.379-.497c-12.299 7.918-28.77 6.206-39.165-4.07-12.197-12.059-12.197-31.679 0-43.737 12.196-12.058 32.042-12.058 44.239 0 10.381 10.263 12.122 26.534 4.14 38.687-.517.787-.291 1.84.505 2.35a1.73 1.73 0 0 0 2.377-.5A34.129 34.129 0 0 0 87.83 47.52zM44.662 7.52c0-1.311 1.08-2.379 2.407-2.379h12.375c1.327 0 2.406 1.067 2.406 2.38 0 1.311-1.08 2.378-2.406 2.378H47.068c-1.326 0-2.406-1.067-2.406-2.379zm4.434 9.352v-3.574h8.32v3.568a35.419 35.419 0 0 0-8.32.006z"/><path d="M76.618 72.303c-.454 0-.896.182-1.215.498a1.695 1.695 0 0 0-.504 1.201c0 .447.183.885.504 1.201a1.73 1.73 0 0 0 2.43 0c.32-.316.504-.754.504-1.2 0-.448-.184-.886-.504-1.202a1.745 1.745 0 0 0-1.215-.498zM53.282 24.573c-14.702 0-26.663 11.825-26.663 26.36s11.961 26.36 26.663 26.36 26.663-11.825 26.663-26.36-11.96-26.36-26.663-26.36zm0 49.321c-12.806 0-23.225-10.3-23.225-22.961 0-12.661 10.418-22.962 23.225-22.962 12.807 0 23.226 10.3 23.226 22.962 0 12.66-10.419 22.961-23.226 22.961z"/><path d="M64.154 37.781l-8.513 8.416a5.358 5.358 0 0 0-2.359-.544c-.846 0-1.647.196-2.359.544l-3.81-3.767a1.733 1.733 0 0 0-2.43 0 1.686 1.686 0 0 0 0 2.404l3.81 3.766a5.197 5.197 0 0 0-.552 2.333c0 2.911 2.396 5.28 5.341 5.28 2.945 0 5.341-2.369 5.341-5.28a5.2 5.2 0 0 0-.55-2.333l8.262-8.169.25-.247a1.686 1.686 0 0 0 0-2.403 1.733 1.733 0 0 0-2.43 0zM53.282 52.815a1.895 1.895 0 0 1-1.903-1.882c0-1.038.854-1.882 1.903-1.882 1.05 0 1.904.844 1.904 1.882a1.895 1.895 0 0 1-1.904 1.882zM71.66 49.254h-1.593c-.95 0-1.719.761-1.719 1.7 0 .938.77 1.699 1.719 1.699h1.592c.95 0 1.719-.761 1.719-1.7 0-.938-.77-1.699-1.719-1.699zM36.498 49.213h-1.593c-.949 0-1.718.76-1.718 1.699 0 .938.77 1.7 1.718 1.7h1.593c.949 0 1.718-.762 1.718-1.7s-.77-1.7-1.718-1.7zM53.303 36.038c.95 0 1.719-.76 1.719-1.7v-1.573c0-.939-.77-1.7-1.719-1.7-.949 0-1.719.761-1.719 1.7v1.574c0 .938.77 1.699 1.72 1.699zM53.261 65.828c-.949 0-1.719.76-1.719 1.699V69.1c0 .938.77 1.7 1.72 1.7.948 0 1.718-.762 1.718-1.7v-1.574c0-.939-.77-1.7-1.719-1.7zM1.719 59.718c-.452 0-.896.182-1.215.498-.32.316-.504.755-.504 1.201 0 .45.184.886.504 1.202.32.316.763.498 1.215.498.452 0 .895-.182 1.215-.498.32-.316.503-.755.503-1.202 0-.446-.183-.885-.503-1.2a1.741 1.741 0 0 0-1.215-.499z"/></g><defs><clipPath id="a"><path fill="#fff" d="M0 0h88v87H0z"/></clipPath></defs></svg>