<svg width="86" height="86" viewBox="0 0 86 86" fill="none" xmlns="http://www.w3.org/2000/svg"><g clip-path="url(#a)" fill="#fff"><path d="M81.7 0H4.3A4.3 4.3 0 0 0 0 4.3v57.333a4.3 4.3 0 0 0 4.3 4.3h9.334a31.52 31.52 0 0 0 58.732 0H81.7a4.3 4.3 0 0 0 4.3-4.3V4.3A4.3 4.3 0 0 0 81.7 0zM4.3 2.867h77.4c.792 0 1.433.641 1.433 1.433v7.167H2.867V4.3c0-.792.641-1.433 1.433-1.433zM25.839 55.9a54.299 54.299 0 0 0 1.697 12.514 87.2 87.2 0 0 0-8.572 1.621A28.448 28.448 0 0 1 14.406 55.9H25.84zm18.594-14.353c3.807-.046 7.538-.266 11.126-.663a50.905 50.905 0 0 1 1.737 12.15H44.433V41.546zm0-2.867V25.95c4.176.875 7.884 5.523 10.236 12.144-3.307.347-6.735.543-10.236.586zm-2.866-12.73v12.73c-3.5-.043-6.93-.24-10.236-.586 2.352-6.62 6.06-11.27 10.236-12.143zm0 15.597v11.486H28.704c.087-4.105.67-8.184 1.737-12.149 3.588.396 7.319.617 11.126.663zM28.704 55.9h12.863v11.487c-3.807.046-7.538.265-11.126.662A50.903 50.903 0 0 1 28.704 55.9zm12.863 14.353V82.99c-4.176-.874-7.884-5.523-10.236-12.143 3.307-.354 6.735-.55 10.236-.594zm2.866 12.737V70.253c3.5.043 6.93.24 10.236.587-2.352 6.62-6.06 11.269-10.236 12.15zm0-15.596V55.9h12.863a50.903 50.903 0 0 1-1.737 12.149 114.393 114.393 0 0 0-11.126-.662v.007zM60.161 55.9h11.433a28.448 28.448 0 0 1-4.558 14.136 87.2 87.2 0 0 0-8.572-1.622A54.299 54.299 0 0 0 60.161 55.9zm0-2.867a54.3 54.3 0 0 0-1.697-12.514 87.17 87.17 0 0 0 8.572-1.621 28.448 28.448 0 0 1 4.558 14.135H60.16zm-2.525-15.295a28.62 28.62 0 0 0-5.947-10.584 28.754 28.754 0 0 1 13.528 9.23c-2.41.547-4.948.999-7.581 1.354zm-29.272 0a86.649 86.649 0 0 1-7.582-1.354 28.754 28.754 0 0 1 13.53-9.23 28.62 28.62 0 0 0-5.948 10.584zm-9.4 1.16a87.17 87.17 0 0 0 8.572 1.62 54.3 54.3 0 0 0-1.697 12.515H14.406a28.448 28.448 0 0 1 4.558-14.135zm1.82 33.652a85.141 85.141 0 0 1 7.582-1.355 28.618 28.618 0 0 0 5.947 10.584 28.754 28.754 0 0 1-13.53-9.23zm30.906 9.229a28.618 28.618 0 0 0 5.947-10.584c2.633.356 5.172.807 7.582 1.355a28.753 28.753 0 0 1-13.53 9.229h.001zM81.7 63.067h-8.37a31.533 31.533 0 1 0-60.66 0H4.3a1.433 1.433 0 0 1-1.433-1.434v-47.3h80.266v47.3c0 .792-.641 1.434-1.433 1.434z"/><path d="M7.167 8.6a1.433 1.433 0 1 0 0-2.867 1.433 1.433 0 0 0 0 2.867zM12.9 8.6a1.433 1.433 0 1 0 0-2.867 1.433 1.433 0 0 0 0 2.867zM18.633 8.6a1.433 1.433 0 1 0 0-2.867 1.433 1.433 0 0 0 0 2.867zM38.7 8.6h8.6a1.433 1.433 0 0 0 0-2.867h-8.6a1.433 1.433 0 0 0 0 2.867zM63.067 8.6h15.766a1.433 1.433 0 1 0 0-2.867H63.067a1.433 1.433 0 1 0 0 2.867zM7.167 21.5h2.866a1.433 1.433 0 1 0 0-2.867H7.167a1.433 1.433 0 0 0 0 2.867zM10.033 30.1H7.167a1.433 1.433 0 1 0 0 2.867h2.866a1.433 1.433 0 0 0 0-2.867zM28.667 18.633h-12.9a1.433 1.433 0 0 0 0 2.867h12.9a1.433 1.433 0 1 0 0-2.867zM18.633 24.367H7.167a1.433 1.433 0 1 0 0 2.866h11.466a1.433 1.433 0 1 0 0-2.866z"/></g><defs><clipPath id="a"><path fill="#fff" d="M0 0h86v86H0z"/></clipPath></defs></svg>