<svg width="95" height="94" viewBox="0 0 95 94" fill="none" xmlns="http://www.w3.org/2000/svg"><path d="M11.875 73.438H7.422c-.394 0-.771.154-1.05.43a1.46 1.46 0 0 0 0 2.077c.279.275.656.43 1.05.43h4.453c.394 0 .771-.155 1.05-.43a1.46 1.46 0 0 0 0-2.077 1.492 1.492 0 0 0-1.05-.43zM17.813 73.438h-1.485c-.394 0-.771.154-1.05.43a1.46 1.46 0 0 0 0 2.077c.279.275.656.43 1.05.43h1.485c.393 0 .77-.155 1.05-.43a1.46 1.46 0 0 0 0-2.077 1.492 1.492 0 0 0-1.05-.43z" fill="#fff"/><path d="M87.578 30.844H84.61v-11.75a5.851 5.851 0 0 0-1.741-4.152 5.977 5.977 0 0 0-4.196-1.723H16.328a5.976 5.976 0 0 0-4.196 1.722 5.85 5.85 0 0 0-1.741 4.153V45.53H7.42a5.977 5.977 0 0 0-4.196 1.723 5.85 5.85 0 0 0-1.74 4.152v23.5a5.85 5.85 0 0 0 1.74 4.153 5.976 5.976 0 0 0 4.197 1.722h14.844a5.977 5.977 0 0 0 4.196-1.723 5.852 5.852 0 0 0 1.741-4.152V70.5h12.942l-.742 2.938h-4.778c-.394 0-.771.154-1.05.43a1.46 1.46 0 0 0-.434 1.038v4.406c0 .39.156.764.434 1.04.279.274.656.43 1.05.43h51.953a5.977 5.977 0 0 0 4.196-1.724 5.852 5.852 0 0 0 1.742-4.152V36.72a5.851 5.851 0 0 0-1.742-4.152 5.977 5.977 0 0 0-4.196-1.723zM25.234 74.906a2.926 2.926 0 0 1-.87 2.076 2.99 2.99 0 0 1-2.098.862H7.422a2.99 2.99 0 0 1-2.098-.862 2.926 2.926 0 0 1-.87-2.076v-23.5a2.926 2.926 0 0 1 .87-2.076 2.989 2.989 0 0 1 2.098-.861H9.32l1.147 3.402c.098.292.287.547.54.727.253.18.556.277.868.277h5.938c.311 0 .615-.097.867-.277a1.47 1.47 0 0 0 .54-.727l1.148-3.402h1.898c.787 0 1.541.31 2.098.861.556.55.87 1.297.87 2.076v23.5zM12.45 48.47h4.787l-.495 1.468h-3.796l-.496-1.468zm15.753 19.093v-4.406h26.719v4.407H28.203zM54.922 70.5v2.938h-.325l-.742-2.938h1.067zm-3.386 2.938h-8.072l.742-2.938h6.587l.743 2.938zm-14.427 4.406v-1.469h18c.136.515.342 1.009.613 1.469H37.109zm17.813-41.125v23.5H28.203v-8.813a5.852 5.852 0 0 0-1.741-4.152 5.978 5.978 0 0 0-4.196-1.723h-8.907V19.094a2.926 2.926 0 0 1 .871-2.076 2.99 2.99 0 0 1 2.098-.862h62.344a2.99 2.99 0 0 1 2.098.862c.556.55.87 1.297.87 2.076v11.75H60.86a5.977 5.977 0 0 0-4.197 1.723 5.851 5.851 0 0 0-1.741 4.152zm35.625 38.187a2.926 2.926 0 0 1-.87 2.076 2.99 2.99 0 0 1-2.099.862H60.86a2.99 2.99 0 0 1-2.098-.862 2.926 2.926 0 0 1-.87-2.076V36.72a2.926 2.926 0 0 1 .87-2.076 2.99 2.99 0 0 1 2.098-.862h26.72a2.99 2.99 0 0 1 2.097.862c.557.55.87 1.297.87 2.076v38.187z" fill="#fff"/><path d="M87.578 35.25H60.86c-.393 0-.77.155-1.05.43a1.46 1.46 0 0 0-.434 1.039V70.5c0 .39.156.763.435 1.039.278.275.656.43 1.05.43h26.718c.394 0 .771-.155 1.05-.43.278-.276.434-.65.434-1.039V36.719c0-.39-.156-.763-.434-1.039a1.492 1.492 0 0 0-1.05-.43zm-1.484 33.781h-23.75V38.187h23.75v30.844zM72.734 76.375c.82 0 1.485-.658 1.485-1.469 0-.81-.665-1.469-1.485-1.469-.82 0-1.484.658-1.484 1.47 0 .81.665 1.468 1.484 1.468z" fill="#fff"/></svg>