<svg width="97" height="97" viewBox="0 0 97 97" fill="none" xmlns="http://www.w3.org/2000/svg"><path d="M82.613 33H42.387c-.368 0-.72.137-.98.38a1.26 1.26 0 0 0-.407.92v10.4c0 .345.146.675.406.92.26.243.613.38.981.38h40.226c.368 0 .72-.137.98-.38A1.26 1.26 0 0 0 84 44.7V34.3a1.26 1.26 0 0 0-.406-.92 1.436 1.436 0 0 0-.981-.38zm-1.387 10.4H43.774v-7.8h37.452v7.8zM15 8h31v3H15V8zM15 15h31v3H15v-3zM28 22h29v2H28v-2z" fill="#fff"/><path d="M85.85 27.333H72.017V8.2c0-.362-.146-.71-.405-.966-.26-.257-.612-.4-.979-.4H58.751L52.248.395A1.438 1.438 0 0 0 51.267 0H8.383c-.367 0-.718.144-.978.4-.26.257-.405.604-.405.967V73.8c0 .362.146.71.405.966.26.257.611.4.978.4h5.534v5.467c0 .363.145.71.405.967.26.256.611.4.978.4h70.55a4.188 4.188 0 0 0 2.93-1.204A4.088 4.088 0 0 0 90 77.9V31.433a4.088 4.088 0 0 0-1.22-2.895 4.189 4.189 0 0 0-2.93-1.205zM69.25 9.567v17.766H65.1V13.667a1.403 1.403 0 0 0-.401-.97l-3.182-3.13h7.733zM52.65 4.66l7.733 7.64H52.65V4.66zM16.683 79.267v-4.1H36.05V77.9c.004.466.088.928.249 1.367H16.683zM36.05 31.433v41H9.767v-69.7h40.116v10.934c0 .362.146.71.405.966.26.256.612.4.979.4h11.066v12.3H40.2a4.189 4.189 0 0 0-2.93 1.205 4.088 4.088 0 0 0-1.22 2.895zM87.233 77.9c0 .362-.145.71-.405.966-.26.257-.611.4-.978.4H40.2c-.367 0-.719-.143-.978-.4a1.358 1.358 0 0 1-.405-.966V31.433c0-.362.145-.71.405-.966s.611-.4.978-.4h45.65c.367 0 .719.144.978.4.26.256.405.604.405.966V77.9z" fill="#fff"/><path d="M50.625 51h-8.25A1.375 1.375 0 0 0 41 52.375v8.25A1.375 1.375 0 0 0 42.375 62h8.25A1.375 1.375 0 0 0 52 60.625v-8.25A1.375 1.375 0 0 0 50.625 51zm-1.375 8.25h-5.5v-5.5h5.5v5.5zM50.625 64h-8.25A1.375 1.375 0 0 0 41 65.375v8.25A1.375 1.375 0 0 0 42.375 75h8.25A1.375 1.375 0 0 0 52 73.625v-8.25A1.375 1.375 0 0 0 50.625 64zm-1.375 8.25h-5.5v-5.5h5.5v5.5zM66.625 51h-8.25A1.375 1.375 0 0 0 57 52.375v8.25A1.375 1.375 0 0 0 58.375 62h8.25A1.375 1.375 0 0 0 68 60.625v-8.25A1.375 1.375 0 0 0 66.625 51zm-1.375 8.25h-5.5v-5.5h5.5v5.5zM81.625 51h-8.25c-.365 0-.714.14-.972.39s-.403.59-.403.943v21.334c0 .353.145.692.403.942s.607.391.972.391h8.25c.365 0 .714-.14.972-.39s.403-.59.403-.943V52.333c0-.353-.145-.692-.403-.942a1.397 1.397 0 0 0-.972-.391zM80.25 72.333h-5.5V53.667h5.5v18.666zM66.625 64h-8.25A1.375 1.375 0 0 0 57 65.375v8.25A1.375 1.375 0 0 0 58.375 75h8.25A1.375 1.375 0 0 0 68 73.625v-8.25A1.375 1.375 0 0 0 66.625 64zm-1.375 8.25h-5.5v-5.5h5.5v5.5zM19.5 19a5.48 5.48 0 0 0-3.889 1.622 5.56 5.56 0 0 0-1.61 3.917v38.374c-.003.21.044.42.137.61l4.124 8.696A1.382 1.382 0 0 0 19.5 73a1.368 1.368 0 0 0 1.238-.781l4.124-8.697c.093-.19.14-.398.138-.61V24.54a5.56 5.56 0 0 0-1.611-3.917A5.48 5.48 0 0 0 19.5 19zm0 49.41l-2.42-5.096h4.84L19.5 68.41zm2.75-7.865h-5.5V34.233h5.5v26.312zm0-29.082h-5.5v-2.77h5.5v2.77zm0-5.539h-5.5V24.54c0-.734.29-1.439.805-1.958a2.74 2.74 0 0 1 1.945-.811c.73 0 1.429.291 1.945.81a2.78 2.78 0 0 1 .805 1.96v1.384z" fill="#fff"/></svg>