<svg width="87" height="87" viewBox="0 0 87 87" fill="none" xmlns="http://www.w3.org/2000/svg"><g clip-path="url(#a)" fill="#fff"><path d="M63.075 81.2h-36.25a1.45 1.45 0 0 0 0 2.9h37.7a1.451 1.451 0 0 0 1.025-.425l17.4-17.4a1.45 1.45 0 0 0 .425-1.025v-58A7.259 7.259 0 0 0 76.125 0h-58a7.259 7.259 0 0 0-7.25 7.25v52.2a1.45 1.45 0 0 0 2.9 0V7.25a4.35 4.35 0 0 1 4.35-4.35h58a4.35 4.35 0 0 1 4.35 4.35V63.8h-10.15a7.259 7.259 0 0 0-7.25 7.25V81.2zm7.25-14.5h8.1l-12.45 12.45v-8.1a4.35 4.35 0 0 1 4.35-4.35z"/><path d="M23.925 8.7h-2.9a1.45 1.45 0 1 0 0 2.9h2.9a1.45 1.45 0 0 0 0-2.9zM73.225 8.7h-43.5a1.45 1.45 0 0 0 0 2.9h43.5a1.45 1.45 0 0 0 0-2.9zM23.925 17.4h-2.9a1.45 1.45 0 1 0 0 2.9h2.9a1.45 1.45 0 0 0 0-2.9zM29.725 20.3h33.35a1.45 1.45 0 0 0 0-2.9h-33.35a1.45 1.45 0 0 0 0 2.9zM77.575 30.45a1.45 1.45 0 0 0-2.9 0v20.3a1.45 1.45 0 0 0 2.9 0v-20.3zM76.125 55.1c-.8 0-1.45.65-1.45 1.45v2.9a1.45 1.45 0 0 0 2.9 0v-2.9c0-.8-.65-1.45-1.45-1.45zM41.209 66.809a17.4 17.4 0 0 0 6.986-33.33 1.45 1.45 0 0 0-1.16 2.658 14.519 14.519 0 1 1-8.329-1 1.45 1.45 0 1 0-.494-2.856c-8.859 1.587-15.046 9.667-14.268 18.633.779 8.966 8.265 15.858 17.265 15.895z"/><path d="M7.375 85.3a5.8 5.8 0 0 0 8.2 0l9.229-9.227a2.884 2.884 0 0 0 .74-2.79l3.903-3.902c10.064 5.932 22.97 3.454 30.122-5.784 7.153-9.237 6.321-22.352-1.941-30.611-8.263-8.26-21.378-9.087-30.613-1.931-9.234 7.156-11.708 20.062-5.773 30.125l-3.899 3.9a2.887 2.887 0 0 0-2.792.741l-9.227 9.227a5.8 5.8 0 0 0 0 8.202l2.05 2.05zm19.48-50.239c7.928-7.927 20.781-7.927 28.708.001 7.928 7.928 7.928 20.78 0 28.708-7.927 7.928-20.78 7.928-28.708.001a20.238 20.238 0 0 1 0-28.71zm-3.96 28.565c.59.77 1.228 1.503 1.909 2.194.69.681 1.423 1.319 2.194 1.908l-3.218 3.219-2.05-2.05-2.052-2.052 3.217-3.219zM7.38 77.096l9.223-9.224 6.15 6.15-9.227 9.228a2.968 2.968 0 0 1-4.101 0l-2.05-2.05a2.9 2.9 0 0 1 0-4.102l.005-.001z"/></g><defs><clipPath id="a"><path fill="#fff" d="M0 0h87v87H0z"/></clipPath></defs></svg>