<svg width="88" height="88" viewBox="0 0 88 88" fill="none" xmlns="http://www.w3.org/2000/svg"><path d="M32.417 38.449h-.035a1.721 1.721 0 0 0 0 3.444h.035a1.722 1.722 0 1 0 0-3.444z" fill="#fff"/><path d="M81.436 35.122H76.57v-6.456a6.24 6.24 0 0 0 4.506-5.985 6.236 6.236 0 0 0-6.227-6.23c-2.837 0-5.235 1.908-5.984 4.508h-4.037V9.665c0-3.623-2.946-6.571-6.568-6.571H6.57A6.578 6.578 0 0 0 0 9.664v35.234a6.578 6.578 0 0 0 6.569 6.571h17.033l-1.127 5.982H20.49a1.722 1.722 0 1 0 0 3.444h10.205v4.932a6.24 6.24 0 0 0-4.506 5.986 6.235 6.235 0 0 0 6.228 6.23c2.836 0 5.234-1.908 5.983-4.508h14.618v4.806c0 3.62 2.945 6.566 6.563 6.566h21.855c3.62 0 6.564-2.945 6.564-6.566V41.688c0-3.621-2.945-6.566-6.564-6.566zm3.12 40.194H56.462V44.381h9.786l1.206 1.285c.325.348.78.544 1.256.544h3.36c.517 0 1.006-.233 1.333-.634l.976-1.195h10.177v30.935zm-9.707-55.42a2.788 2.788 0 0 1 2.783 2.785 2.788 2.788 0 0 1-2.783 2.786 2.788 2.788 0 0 1-2.784-2.786 2.788 2.788 0 0 1 2.784-2.786zm-10.02 4.507h4.037a6.25 6.25 0 0 0 4.26 4.263v6.456h-8.298v-10.72zm16.608 14.162a3.125 3.125 0 0 1 3.025 2.372h-10.9c-.518 0-1.008.232-1.335.633l-.975 1.197h-1.796l-1.207-1.286a1.722 1.722 0 0 0-1.255-.544H56.556c.014-.052.025-.104.04-.155.015-.04.03-.08.042-.12a3.123 3.123 0 0 1 2.944-2.097h21.854zm-74.868 9.46a3.13 3.13 0 0 1-3.125-3.127v-3.006h22.068a1.722 1.722 0 1 0 0-3.443H3.444V9.665a3.13 3.13 0 0 1 3.125-3.128H58.26a3.13 3.13 0 0 1 3.126 3.128v25.457H59.58a6.567 6.567 0 0 0-5.706 3.327H39.253a1.722 1.722 0 1 0 0 3.444h13.765v6.133H39.18 6.57zm19.41 9.426l1.127-5.982h10.618l1.13 5.982H25.978zm9.22 14.41a2.786 2.786 0 0 1-2.782 2.738 2.788 2.788 0 0 1-2.784-2.786 2.788 2.788 0 0 1 2.784-2.786 2.786 2.786 0 0 1 2.781 2.738l-.002.048.002.048zm3.201-1.77a6.252 6.252 0 0 0-4.261-4.263v-4.933h10.2a1.722 1.722 0 0 0 0-3.444h-1.981l-1.13-5.982h11.79v18.622H38.4zm43.036 11.372H59.581a3.124 3.124 0 0 1-3.089-2.703h28.033a3.123 3.123 0 0 1-3.089 2.703z" fill="#fff"/></svg>