<svg width="73" height="79" viewBox="0 0 73 79" fill="none" xmlns="http://www.w3.org/2000/svg"><path d="M47.539 44.746c12.336 0 22.373-10.037 22.373-22.373C69.912 10.036 59.875 0 47.539 0 35.202 0 25.166 10.037 25.166 22.373s10.036 22.373 22.373 22.373zm0-40.117c9.784 0 17.744 7.96 17.744 17.744 0 9.784-7.96 17.744-17.744 17.744-9.784 0-17.744-7.96-17.744-17.744 0-9.784 7.96-17.744 17.744-17.744z" fill="#fff"/><path d="M50.735 19.55a2.314 2.314 0 0 0 3.048-1.193 1.27 1.27 0 0 1 2.324 0 2.315 2.315 0 1 0 4.242-1.854 5.898 5.898 0 0 0-10.808 0 2.314 2.314 0 0 0 1.194 3.048zM35.922 19.55a2.314 2.314 0 0 0 3.048-1.193 1.27 1.27 0 0 1 2.325 0 2.315 2.315 0 1 0 4.241-1.854 5.898 5.898 0 0 0-10.807 0 2.314 2.314 0 0 0 1.194 3.048zM71.284 51.35a6.9 6.9 0 0 0-4.216-3.235 6.9 6.9 0 0 0-5.268.693l-12.856 7.423a6.903 6.903 0 0 0-.932-3.484 6.9 6.9 0 0 0-4.216-3.235L29.36 45.644c-2.986-.8-6.105-.39-8.781 1.156L1.183 57.997a2.314 2.314 0 0 0-.847 3.162l9.632 16.683a2.313 2.313 0 0 0 3.162.847l8.747-5.05 18.71 1.207c2.287.147 4.546-.38 6.53-1.526l21.626-12.486a6.95 6.95 0 0 0 2.541-9.484zm-4.856 5.476L44.805 69.311a6.925 6.925 0 0 1-3.919.916l-19.41-1.252a2.318 2.318 0 0 0-1.306.306l-7.349 4.243-7.318-12.675 17.391-10.04a6.899 6.899 0 0 1 5.269-.694l14.436 3.868a2.3 2.3 0 0 1 1.405 1.078 2.3 2.3 0 0 1 .231 1.757 2.3 2.3 0 0 1-1.078 1.405 2.3 2.3 0 0 1-1.756.23l-11.306-3.029a2.314 2.314 0 1 0-1.198 4.471l11.306 3.03h.002l.977.262a8.429 8.429 0 0 0 6.44-.848l16.493-9.522a2.317 2.317 0 0 1 3.161.847 2.317 2.317 0 0 1-.847 3.162zM39.87 26.008a2.314 2.314 0 1 0-4.182 1.987c2.163 4.552 6.814 7.493 11.85 7.493 5.037 0 9.689-2.941 11.851-7.493a2.314 2.314 0 1 0-4.18-1.987 8.532 8.532 0 0 1-7.67 4.851 8.532 8.532 0 0 1-7.67-4.85z" fill="#fff"/></svg>