<svg width="79" height="79" viewBox="0 0 79 79" fill="none" xmlns="http://www.w3.org/2000/svg"><g clip-path="url(#a)" fill="#fff"><path d="M31.408 53.234l10.91-32.731a2.315 2.315 0 0 0-4.391-1.464L27.017 51.77a2.315 2.315 0 0 0 4.391 1.464zM47.76 43.08a6.951 6.951 0 0 0 6.943-6.943 6.951 6.951 0 0 0-6.943-6.944 6.951 6.951 0 0 0-6.943 6.944 6.951 6.951 0 0 0 6.943 6.943zm0-9.258a2.317 2.317 0 0 1 2.314 2.315 2.317 2.317 0 0 1-2.314 2.314 2.317 2.317 0 0 1-2.314-2.314 2.317 2.317 0 0 1 2.314-2.315zM21.575 29.193a6.951 6.951 0 0 0-6.943 6.944 6.951 6.951 0 0 0 6.943 6.943 6.951 6.951 0 0 0 6.943-6.943 6.951 6.951 0 0 0-6.943-6.944zm0 9.258a2.317 2.317 0 0 1-2.315-2.314 2.317 2.317 0 0 1 2.315-2.315 2.317 2.317 0 0 1 2.314 2.315 2.317 2.317 0 0 1-2.314 2.314z"/><path d="M78.537 28.7l-8.07-10.762.314-2.203a2.315 2.315 0 0 0-.654-1.964l-4.91-4.91 4.91-4.91A2.315 2.315 0 0 0 66.854.678l-4.91 4.91-4.91-4.91A2.317 2.317 0 0 0 55.07.023L32.158 3.296c-.495.071-.955.301-1.309.655L2.482 32.318c-3.309 3.309-3.309 8.693 0 12.002l24.003 24.003a8.47 8.47 0 0 0 1.597 1.253v.938c0 4.68 3.807 8.486 8.487 8.486h33.945C75.194 79 79 75.193 79 70.514V30.088c0-.5-.162-.988-.463-1.389zM5.755 41.046a3.862 3.862 0 0 1 0-5.456L33.577 7.77l21.002-3 4.092 4.091-3.273 3.273-1.637-1.636a2.315 2.315 0 0 0-3.273 3.273l6.546 6.546a2.307 2.307 0 0 0 1.637.678 2.314 2.314 0 0 0 1.636-3.951l-1.637-1.637 3.274-3.273 4.091 4.092-3 21.002L35.213 65.05a3.832 3.832 0 0 1-2.727 1.13c-1.03 0-2-.402-2.728-1.13L5.755 41.047zm68.616 29.467a3.862 3.862 0 0 1-3.857 3.857H36.569a3.862 3.862 0 0 1-3.846-3.572 8.453 8.453 0 0 0 5.763-2.476l28.367-28.367c.354-.354.584-.814.655-1.31l2.033-14.227 4.83 6.44v39.655z"/></g><defs><clipPath id="a"><path fill="#fff" d="M0 0h79v79H0z"/></clipPath></defs></svg>