<svg width="73" height="72" viewBox="0 0 73 72" fill="none" xmlns="http://www.w3.org/2000/svg"><path d="M33.578 56.776c-2.833 0-5.665-1.188-6.898-1.827l-1.417 5.207c1.737 1.096 4.98 2.102 8.817 2.102 7.537 0 12.15-3.837 12.15-9.09 0-3.883-2.877-6.577-6.44-7.218v-.093c3.655-1.277 5.436-3.744 5.436-6.896 0-4.065-3.517-7.4-9.867-7.4-3.836 0-7.4 1.097-9.18 2.24l1.415 5.023c1.234-.731 3.791-1.78 6.212-1.78 2.924 0 4.386 1.324 4.386 3.106 0 2.513-2.97 3.38-5.299 3.425h-2.695v4.98h2.833c3.06 0 5.983 1.324 5.983 4.247 0 2.237-1.827 3.974-5.436 3.974z" fill="#fff"/><path d="M68.19 7.448h-7.069V0h-9.947v7.448H21.998V0h-9.946v7.448h-7.07A4.483 4.483 0 0 0 .5 11.931v55.586A4.483 4.483 0 0 0 4.983 72H68.19a4.482 4.482 0 0 0 4.483-4.483V11.931a4.483 4.483 0 0 0-4.483-4.483zM68 67H6V26h62v41z" fill="#fff"/></svg>