<svg width="75" height="71" viewBox="0 0 75 71" fill="none" xmlns="http://www.w3.org/2000/svg"><path fill-rule="evenodd" clip-rule="evenodd" d="M62.372 10.525C55.794 3.94 47.045.311 37.725.307c-19.204 0-34.834 15.63-34.842 34.84a34.779 34.779 0 0 0 4.65 17.418L2.592 70.62l18.47-4.846a34.804 34.804 0 0 0 16.65 4.241h.015c19.202 0 34.834-15.63 34.84-34.84.005-9.31-3.616-18.064-10.194-24.65zM37.725 64.131h-.012a28.923 28.923 0 0 1-14.739-4.036l-1.057-.628-10.96 2.875 2.925-10.686-.689-1.096a28.886 28.886 0 0 1-4.427-15.412c.006-15.966 12.997-28.956 28.97-28.956 7.736.002 15.007 3.018 20.475 8.492 5.467 5.474 8.476 12.75 8.474 20.488-.007 15.968-12.998 28.96-28.96 28.96zM53.61 42.442c-.87-.436-5.15-2.541-5.949-2.832-.797-.29-1.378-.435-1.958.436-.58.871-2.249 2.832-2.757 3.413s-1.015.654-1.886.218c-.87-.436-3.676-1.355-7.001-4.321-2.588-2.309-4.335-5.16-4.843-6.03-.508-.873-.005-1.298.382-1.777.942-1.17 1.886-2.398 2.176-2.978.29-.581.145-1.09-.073-1.526-.217-.435-1.958-4.72-2.684-6.464-.707-1.697-1.424-1.468-1.959-1.494a34.82 34.82 0 0 0-1.668-.03c-.58 0-1.524.217-2.322 1.089s-3.047 2.977-3.047 7.263c0 4.285 3.12 8.424 3.555 9.005.435.581 6.14 9.375 14.872 13.145a49.814 49.814 0 0 0 4.963 1.835c2.086.662 3.983.569 5.483.345 1.673-.25 5.15-2.107 5.877-4.14.725-2.034.725-3.777.507-4.14-.217-.363-.798-.58-1.668-1.017z" fill="#fff"/></svg>