<svg width="79" height="59" viewBox="0 0 79 59" fill="none" xmlns="http://www.w3.org/2000/svg"><g clip-path="url(#a)" fill="#fff"><path d="M2.548 30.765A2.547 2.547 0 0 1 0 28.216c0-9.835 8.004-17.838 17.839-17.838H61.16a2.547 2.547 0 0 1 2.548 2.548 2.547 2.547 0 0 1-2.548 2.549H17.84c-7.026 0-12.742 5.716-12.742 12.741 0 1.41-1.14 2.549-2.549 2.549z"/><path d="M61.161 25.668a2.548 2.548 0 0 1-2.548-2.548V2.731a2.547 2.547 0 0 1 3.962-2.12l15.29 10.193a2.55 2.55 0 0 1 0 4.241l-15.29 10.193a2.542 2.542 0 0 1-1.414.429zM63.71 7.493V18.36l8.149-5.433-8.149-5.433zM61.161 48.604H17.84a2.547 2.547 0 0 1-2.548-2.549 2.547 2.547 0 0 1 2.548-2.548H61.16c7.026 0 12.742-5.716 12.742-12.742a2.547 2.547 0 1 1 5.097 0c0 9.835-8.004 17.839-17.839 17.839z"/><path d="M17.839 58.797c-.496 0-.989-.144-1.414-.428L1.135 48.175a2.548 2.548 0 0 1 0-4.24l15.29-10.194a2.548 2.548 0 1 1 3.962 2.12V56.25a2.548 2.548 0 0 1-2.548 2.548zM7.142 46.055l8.148 5.433V40.623l-8.148 5.432z"/></g><defs><clipPath id="a"><path fill="#fff" d="M0 0h79v59H0z"/></clipPath></defs></svg>