<svg width="89" height="100" viewBox="0 0 89 100" fill="none" xmlns="http://www.w3.org/2000/svg"><g clip-path="url(#a)" fill="#fff"><path d="M81.795 58.655a2.967 2.967 0 0 0-2.911-2.407h-2.865l-.21-1.263a2.981 2.981 0 0 0-2.479-2.457c-.282-.045-.567-.075-.847-.113a9.048 9.048 0 0 0-1.127-6.614 6.07 6.07 0 0 0-4.398-8.12 12.622 12.622 0 0 0-12.331-10.303c-.149 0-.28.019-.422.023a6.034 6.034 0 0 0-9.23-1.148 10.183 10.183 0 0 0-5.54-1.645 10.299 10.299 0 0 0-8.095 3.987 7.388 7.388 0 0 0-9.443 6.64 6.105 6.105 0 0 0-3.74 5.625c.005.425.055.85.149 1.265a11.938 11.938 0 0 0-1.423 10.235c-.397.055-.804.104-1.186.16a2.984 2.984 0 0 0-2.498 2.456l-.21 1.267h-2.873a2.967 2.967 0 0 0-2.91 2.402L.711 91.993a4.45 4.45 0 0 0 4.377 5.299H36.02c1.228 2.026 4.96 2.966 8.479 2.966 3.481 0 7.178-.918 8.442-2.966h30.97a4.45 4.45 0 0 0 4.377-5.297l-6.494-33.34zm-59.152-15.11a3.133 3.133 0 0 1 1.602-5.818 3.076 3.076 0 0 1 2.49 1.258 1.483 1.483 0 0 0 2.383-1.768 5.993 5.993 0 0 0-4.207-2.374 4.51 4.51 0 0 1 4.398-3.57c.181.009.361.029.54.06-.12.303-.223.613-.311.928a1.483 1.483 0 0 0 2.871.741 7.212 7.212 0 0 1 .77-1.857 7.325 7.325 0 0 1 6.257-3.57 7.205 7.205 0 0 1 3.93 1.187 6.027 6.027 0 0 0-.35 1.944 1.483 1.483 0 0 0 2.967 0 3.12 3.12 0 0 1 6.24 0 1.483 1.483 0 0 0 2.967 0c0-.114-.028-.222-.034-.337a9.628 9.628 0 0 1 8.785 7.426 6.019 6.019 0 0 0-1.92.957 1.484 1.484 0 0 0 1.78 2.373 3.127 3.127 0 0 1 4.587 4.045 3.165 3.165 0 0 1-1.405 1.3 1.483 1.483 0 0 0 .632 2.818c.217 0 .432-.048.629-.141.393-.19.764-.423 1.108-.693a6.336 6.336 0 0 1-1.255 6.327l-.036.037a6.407 6.407 0 0 1-7.565 1.388 5.88 5.88 0 0 1-.718-.448 5.052 5.052 0 0 0 .392-5.221 1.484 1.484 0 1 0-2.65 1.335c.487.98.183 2.17-.716 2.796a2.238 2.238 0 0 1-3.221-.822 1.484 1.484 0 0 0-2.654 1.328 5.143 5.143 0 0 0 4.622 2.86 5.09 5.09 0 0 0 1.861-.367 8.78 8.78 0 0 0 1.739 1.187 9.137 9.137 0 0 0 6.851.633 9.454 9.454 0 0 1-6.108 3.746 1.483 1.483 0 0 0 .469 2.93 12.19 12.19 0 0 0 2.631-.769c.457.808.828 1.661 1.107 2.547.05.154.077.316.077.479a1.6 1.6 0 0 1-.973 1.471 1.68 1.68 0 0 1-1.915-.514 9.468 9.468 0 0 0-4.342-2.885c-3.205-1.074-4.443-2.034-4.968-3.078.77-.096 1.53-.255 2.274-.475a1.484 1.484 0 1 0-.872-2.836c-.832.255-1.691.413-2.56.47a11.01 11.01 0 0 1-4.916-.742 1.483 1.483 0 0 0-1.663.414A6.352 6.352 0 0 1 34 52.818a1.488 1.488 0 0 0-2.552-1.53 9.264 9.264 0 0 0-.849 1.91 2.225 2.225 0 0 1-2.108-2.186v-.038a1.467 1.467 0 0 0-1.483-1.464 1.498 1.498 0 0 0-1.483 1.502 5.162 5.162 0 0 0 4.605 5.118c.006.498.05.994.136 1.484A9.065 9.065 0 0 1 20.009 45.2c.331.336.702.63 1.103.88a1.483 1.483 0 0 0 1.531-2.541v.005zM16.116 55.46c.684-.1 1.39-.19 2.092-.282a11.976 11.976 0 0 0 13.009 5.278 9.292 9.292 0 0 0 14.554 2.467c1.008.3 2.047.488 3.096.56.716 2.718 2.787 4.364 7.138 5.822a6.573 6.573 0 0 1 3.02 1.99 4.724 4.724 0 0 0 3.584 1.683c.605 0 1.203-.122 1.76-.359a4.567 4.567 0 0 0 2.773-4.199 4.4 4.4 0 0 0-.226-1.403 16.216 16.216 0 0 0-1.311-3.019 12.505 12.505 0 0 0 4.929-7.538c.316-.376.602-.775.854-1.196.497.064.994.12 1.494.203l5.355 32.21a50.917 50.917 0 0 0-32.254 0V69.108a1.483 1.483 0 0 0-2.966 0v18.575a50.926 50.926 0 0 0-32.254-.012l5.353-32.21zM3.932 93.78a1.471 1.471 0 0 1-.311-1.216l6.495-33.349h2.374L7.835 87.19a2.977 2.977 0 0 0 3.829 3.313 49.625 49.625 0 0 1 24.5-1.554l-.442 5.377H5.088c-.448 0-.872-.2-1.156-.546zM44.5 97.292c-3.573 0-5.623-1.057-5.924-1.527l.51-6.156c1.63.407 3.227.942 4.773 1.6.2.097.419.148.641.15.222-.001.442-.052.642-.15a31.588 31.588 0 0 1 4.772-1.61l.51 6.165c-.3.471-2.35 1.528-5.924 1.528zm40.568-3.513a1.494 1.494 0 0 1-1.156.546h-30.63l-.444-5.388a49.64 49.64 0 0 1 24.51 1.568 2.976 2.976 0 0 0 3.816-3.32l-4.65-27.97h2.373l6.497 33.346c.082.433-.034.88-.316 1.218z"/><path d="M39.584 46.391a1.483 1.483 0 0 0-.105 2.095 8.945 8.945 0 0 0 4.754 2.74 4.419 4.419 0 0 1-3.61 1.862 1.483 1.483 0 0 0 0 2.967 7.356 7.356 0 0 0 6.91-4.757 8.952 8.952 0 0 0 7.324-7.12 1.483 1.483 0 1 0-2.914-.558 5.913 5.913 0 0 1-2.456 3.766 6.055 6.055 0 0 1-7.808-.89 1.483 1.483 0 0 0-2.095-.105zM34.413 44.782c.82 0 1.484-.665 1.484-1.484a3.857 3.857 0 0 1 3.856-3.857 1.483 1.483 0 1 0 0-2.966 6.83 6.83 0 0 0-6.823 6.823 1.484 1.484 0 0 0 1.483 1.483zM45.983 3.708V2.225a1.483 1.483 0 1 0-2.966 0v1.483a1.483 1.483 0 1 0 2.966 0zM68.841 23.386l-1.483 1.483a1.483 1.483 0 1 0 2.098 2.098l1.483-1.484a1.483 1.483 0 1 0-2.097-2.097zM20.593 27.401a1.484 1.484 0 0 0 1.049-2.532l-1.483-1.483a1.483 1.483 0 1 0-2.098 2.097l1.483 1.484c.279.278.656.434 1.05.434zM32.012 9.16a1.483 1.483 0 0 0 1.37-2.051l-1.704-4.113a1.484 1.484 0 1 0-2.74 1.137l1.703 4.111c.23.555.77.916 1.37.916zM59.26 2.194a1.483 1.483 0 0 0-1.938.802l-1.704 4.112a1.483 1.483 0 1 0 2.74 1.138l1.704-4.112a1.483 1.483 0 0 0-.803-1.94zM74.649 38.822c.195 0 .388-.04.568-.114l4.11-1.703a1.483 1.483 0 1 0-1.135-2.742l-4.111 1.703a1.483 1.483 0 0 0 .568 2.856zM13.783 38.708a1.484 1.484 0 1 0 1.136-2.742l-4.111-1.702a1.483 1.483 0 1 0-1.135 2.74l4.11 1.704z"/></g><defs><clipPath id="a"><path fill="#fff" d="M0 0h89v100H0z"/></clipPath></defs></svg>