<svg width="25" height="25" viewBox="0 0 25 25" fill="none" xmlns="http://www.w3.org/2000/svg"><path d="M0 9.375v12.5c0 .863.7 1.563 1.563 1.563H6.25V7.813H1.562C.7 7.813 0 8.511 0 9.374zM22.115 9.375h-4.616a.768.768 0 0 1-.674-.386.769.769 0 0 1-.01-.775l1.627-2.93a2.324 2.324 0 0 0 .102-2.07 2.325 2.325 0 0 0-1.582-1.341l-1.148-.287a.78.78 0 0 0-.77.235l-6.23 6.921a3.904 3.904 0 0 0-1.002 2.613v8.176a3.91 3.91 0 0 0 3.907 3.906h7.772a3.915 3.915 0 0 0 3.767-2.874l1.668-7.654a2.89 2.89 0 0 0-2.811-3.535z" fill="#F44336"/></svg>