<svg width="18" height="18" viewBox="0 0 18 18" fill="none" xmlns="http://www.w3.org/2000/svg"><path d="M7.725 5.775a.738.738 0 0 0 0 1.05L9.15 8.25h-6.9A.752.752 0 0 0 1.5 9c0 .412.337.75.75.75h6.9l-1.425 1.425a.738.738 0 0 0 0 1.05.738.738 0 0 0 1.05 0l2.692-2.692a.747.747 0 0 0 0-1.058l-2.692-2.7a.738.738 0 0 0-1.05 0zM15 14.25H9.75A.752.752 0 0 0 9 15c0 .412.338.75.75.75H15c.825 0 1.5-.675 1.5-1.5V3.75c0-.825-.675-1.5-1.5-1.5H9.75A.752.752 0 0 0 9 3c0 .413.338.75.75.75H15v10.5z" fill="#fff"/></svg>