<svg width="319" height="319" viewBox="0 0 319 319" fill="none" xmlns="http://www.w3.org/2000/svg"><g clip-path="url(#a)"><path d="M26.743 186.084C12.085 186.084.159 174.158.159 159.5s11.926-26.583 26.584-26.583 26.583 11.925 26.583 26.583c0 14.658-11.925 26.584-26.583 26.584zm0-42.534c-8.794 0-15.95 7.157-15.95 15.95 0 8.794 7.156 15.95 15.95 15.95s15.95-7.156 15.95-15.95c0-8.793-7.156-15.95-15.95-15.95z" fill="url(#b)"/><path d="M292.576 186.084c-14.658 0-26.583-11.926-26.583-26.584s11.925-26.583 26.583-26.583c14.658 0 26.584 11.925 26.584 26.583 0 14.658-11.926 26.584-26.584 26.584zm0-42.534c-8.794 0-15.95 7.157-15.95 15.95 0 8.794 7.156 15.95 15.95 15.95s15.95-7.156 15.95-15.95c0-8.793-7.156-15.95-15.95-15.95z" fill="url(#c)"/><path d="M159.659 319c-14.658 0-26.583-11.926-26.583-26.584s11.925-26.583 26.583-26.583c14.659 0 26.584 11.925 26.584 26.583 0 14.658-11.925 26.584-26.584 26.584zm0-42.534c-8.793 0-15.95 7.157-15.95 15.95 0 8.794 7.157 15.95 15.95 15.95 8.794 0 15.95-7.156 15.95-15.95 0-8.793-7.156-15.95-15.95-15.95z" fill="url(#d)"/><path d="M159.659 53.167c-14.658 0-26.583-11.926-26.583-26.584S145.001 0 159.659 0c14.659 0 26.584 11.925 26.584 26.583 0 14.658-11.925 26.584-26.584 26.584zm0-42.534c-8.793 0-15.95 7.157-15.95 15.95 0 8.794 7.157 15.95 15.95 15.95 8.794 0 15.95-7.156 15.95-15.95 0-8.793-7.156-15.95-15.95-15.95z" fill="url(#e)"/><path d="M290.88 143.72a5.32 5.32 0 0 1-5.242-4.482 127.006 127.006 0 0 0-8.416-29.38 5.316 5.316 0 0 1 2.823-6.97 5.31 5.31 0 0 1 6.97 2.823 137.297 137.297 0 0 1 9.123 31.852 5.315 5.315 0 0 1-4.413 6.088 5.009 5.009 0 0 1-.845.069z" fill="url(#f)"/><path d="M264.903 83.647a5.31 5.31 0 0 1-4.211-2.068 128.43 128.43 0 0 0-23.154-23.149 5.31 5.31 0 0 1-.957-7.454 5.322 5.322 0 0 1 7.459-.957 138.942 138.942 0 0 1 25.068 25.063 5.314 5.314 0 0 1-.957 7.454 5.291 5.291 0 0 1-3.248 1.111z" fill="url(#g)"/><path d="M211.369 42.358a5.269 5.269 0 0 1-2.068-.42 126.978 126.978 0 0 0-29.385-8.422 5.322 5.322 0 0 1-4.413-6.093c.463-2.897 3.195-4.88 6.088-4.407a137.47 137.47 0 0 1 31.852 9.128 5.312 5.312 0 0 1 2.823 6.97 5.312 5.312 0 0 1-4.897 3.244z" fill="url(#h)"/><path d="M180.751 296.053a5.315 5.315 0 0 1-5.242-4.477 5.317 5.317 0 0 1 4.412-6.093 127.009 127.009 0 0 0 29.386-8.421c2.711-1.138 5.827.111 6.97 2.823a5.316 5.316 0 0 1-2.823 6.97 137.43 137.43 0 0 1-31.853 9.129 5.215 5.215 0 0 1-.85.069z" fill="url(#i)"/><path d="M240.829 270.06a5.316 5.316 0 0 1-3.254-9.522 128.517 128.517 0 0 0 23.149-23.159c1.787-2.329 5.125-2.749 7.454-.963a5.318 5.318 0 0 1 .962 7.46 138.635 138.635 0 0 1-25.062 25.073 5.281 5.281 0 0 1-3.249 1.111z" fill="url(#j)"/><path d="M282.113 216.532a5.311 5.311 0 0 1-4.891-7.39 126.845 126.845 0 0 0 8.416-29.38c.457-2.903 3.195-4.886 6.088-4.413a5.319 5.319 0 0 1 4.412 6.088 137.472 137.472 0 0 1-9.123 31.852 5.319 5.319 0 0 1-4.902 3.243z" fill="url(#k)"/><path d="M37.2 216.532a5.311 5.311 0 0 1-4.896-3.243 137.269 137.269 0 0 1-9.123-31.852 5.316 5.316 0 0 1 4.412-6.088c2.871-.473 5.63 1.51 6.088 4.413a126.992 126.992 0 0 0 8.416 29.38 5.316 5.316 0 0 1-4.896 7.39z" fill="url(#l)"/><path d="M78.527 270.092a5.28 5.28 0 0 1-3.248-1.111 138.957 138.957 0 0 1-25.068-25.063 5.315 5.315 0 0 1 .957-7.454 5.314 5.314 0 0 1 7.459.957A128.445 128.445 0 0 0 81.78 260.57a5.31 5.31 0 0 1 .957 7.454 5.31 5.31 0 0 1-4.21 2.068z" fill="url(#m)"/><path d="M138.568 296.053c-.276 0-.558-.021-.845-.069a137.408 137.408 0 0 1-31.852-9.129 5.311 5.311 0 0 1-2.823-6.97c1.143-2.712 4.258-3.961 6.97-2.823a126.987 126.987 0 0 0 29.385 8.421 5.322 5.322 0 0 1 4.413 6.093 5.326 5.326 0 0 1-5.248 4.477z" fill="url(#n)"/><path d="M107.95 42.358a5.317 5.317 0 0 1-2.074-10.213 137.47 137.47 0 0 1 31.852-9.13c2.898-.473 5.625 1.516 6.088 4.408a5.318 5.318 0 0 1-4.413 6.093 126.978 126.978 0 0 0-29.385 8.422 5.387 5.387 0 0 1-2.068.42z" fill="url(#o)"/><path d="M54.384 83.69a5.318 5.318 0 0 1-4.206-8.565A138.657 138.657 0 0 1 75.242 50.05a5.315 5.315 0 1 1 6.502 8.411 128.476 128.476 0 0 0-23.148 23.16 5.31 5.31 0 0 1-4.21 2.068z" fill="url(#p)"/><path d="M28.433 143.72a5.32 5.32 0 0 1-5.258-6.157 137.458 137.458 0 0 1 9.124-31.852 5.31 5.31 0 0 1 6.97-2.823 5.312 5.312 0 0 1 2.823 6.97 126.821 126.821 0 0 0-8.416 29.38 5.311 5.311 0 0 1-5.243 4.482z" fill="url(#q)"/><path d="M117.126 180.767a5.34 5.34 0 0 1-2.376-.558l-42.534-21.267a5.324 5.324 0 0 1-2.94-4.759V111.65a5.33 5.33 0 0 1 2.52-4.524 5.305 5.305 0 0 1 5.173-.234l42.534 21.266a5.324 5.324 0 0 1 2.94 4.759v42.533a5.332 5.332 0 0 1-2.52 4.525 5.35 5.35 0 0 1-2.797.792zm-37.217-29.869l31.9 15.95v-30.646l-31.9-15.95v30.646z" fill="url(#r)"/><path d="M117.126 180.767c-.973 0-1.94-.266-2.796-.792a5.33 5.33 0 0 1-2.521-4.525v-42.533a5.323 5.323 0 0 1 2.941-4.759l42.533-21.266a5.304 5.304 0 0 1 5.173.234 5.33 5.33 0 0 1 2.52 4.524v42.533a5.324 5.324 0 0 1-2.94 4.759l-42.533 21.267a5.344 5.344 0 0 1-2.377.558zm5.317-44.565v30.646l31.9-15.95v-30.646l-31.9 15.95z" fill="url(#s)"/><path d="M117.126 138.233a5.325 5.325 0 0 1-2.376-.558l-42.534-21.267a5.321 5.321 0 0 1 0-9.516l42.534-21.267a5.314 5.314 0 0 1 4.758 0l42.533 21.267a5.32 5.32 0 0 1 0 9.516l-42.533 21.267a5.381 5.381 0 0 1-2.382.558zM86.481 111.65l30.645 15.323 30.645-15.323-30.645-15.323-30.645 15.323z" fill="url(#t)"/><path d="M202.193 180.767a5.344 5.344 0 0 1-2.377-.558l-42.533-21.267a5.324 5.324 0 0 1-2.94-4.759V111.65a5.33 5.33 0 0 1 2.52-4.524 5.304 5.304 0 0 1 5.173-.234l42.533 21.266a5.323 5.323 0 0 1 2.941 4.759v42.533a5.33 5.33 0 0 1-2.521 4.525 5.349 5.349 0 0 1-2.796.792zm-37.217-29.869l31.9 15.95v-30.646l-31.9-15.95v30.646z" fill="url(#u)"/><path d="M202.193 180.767a5.337 5.337 0 0 1-2.797-.792 5.332 5.332 0 0 1-2.52-4.525v-42.533a5.324 5.324 0 0 1 2.94-4.759l42.534-21.266a5.304 5.304 0 0 1 5.173.234 5.33 5.33 0 0 1 2.52 4.524v42.533a5.324 5.324 0 0 1-2.94 4.759l-42.534 21.267a5.34 5.34 0 0 1-2.376.558zm5.317-44.565v30.646l31.9-15.95v-30.646l-31.9 15.95z" fill="url(#v)"/><path d="M202.193 138.233a5.329 5.329 0 0 1-2.377-.558l-42.533-21.267a5.321 5.321 0 0 1 0-9.516l42.533-21.267a5.316 5.316 0 0 1 4.759 0l42.533 21.267a5.321 5.321 0 0 1 0 9.516l-42.533 21.267a5.384 5.384 0 0 1-2.382.558zm-30.645-26.583l30.645 15.323 30.645-15.323-30.645-15.323-30.645 15.323z" fill="url(#w)"/><path d="M159.659 244.567a5.331 5.331 0 0 1-2.376-.559l-42.533-21.266a5.323 5.323 0 0 1-2.941-4.759V175.45a5.33 5.33 0 0 1 2.521-4.525 5.306 5.306 0 0 1 5.173-.233l42.533 21.266a5.324 5.324 0 0 1 2.94 4.759v42.533a5.329 5.329 0 0 1-2.52 4.524 5.341 5.341 0 0 1-2.797.793zm-37.216-29.869l31.9 15.95v-30.646l-31.9-15.95v30.646z" fill="url(#x)"/><path d="M159.66 244.567a5.328 5.328 0 0 1-2.797-.793 5.329 5.329 0 0 1-2.52-4.524v-42.533a5.324 5.324 0 0 1 2.94-4.759l42.533-21.266a5.306 5.306 0 0 1 5.173.233 5.33 5.33 0 0 1 2.521 4.525v42.533a5.323 5.323 0 0 1-2.941 4.759l-42.533 21.266a5.331 5.331 0 0 1-2.376.559zm5.316-44.565v30.646l31.9-15.95v-30.646l-31.9 15.95z" fill="url(#y)"/><path d="M159.659 202.033a5.325 5.325 0 0 1-2.376-.558l-42.533-21.267a5.322 5.322 0 0 1 0-9.517l42.533-21.266a5.312 5.312 0 0 1 4.758 0l42.534 21.266a5.323 5.323 0 0 1 0 9.517l-42.534 21.267a5.381 5.381 0 0 1-2.382.558zm-30.645-26.583l30.645 15.322 30.646-15.322-30.646-15.323-30.645 15.323z" fill="url(#z)"/></g><defs><linearGradient id="b" x1="31.106" y1="139.943" x2="-2.329" y2="175.194" gradientUnits="userSpaceOnUse"><stop stop-color="#AFCA05"/><stop offset=".651" stop-color="#74BE3A"/><stop offset="1" stop-color="#79B653"/></linearGradient><linearGradient id="c" x1="296.939" y1="139.943" x2="263.504" y2="175.194" gradientUnits="userSpaceOnUse"><stop stop-color="#AFCA05"/><stop offset=".651" stop-color="#74BE3A"/><stop offset="1" stop-color="#79B653"/></linearGradient><linearGradient id="d" x1="164.022" y1="272.859" x2="130.587" y2="308.11" gradientUnits="userSpaceOnUse"><stop stop-color="#AFCA05"/><stop offset=".651" stop-color="#74BE3A"/><stop offset="1" stop-color="#79B653"/></linearGradient><linearGradient id="e" x1="164.022" y1="7.026" x2="130.588" y2="42.277" gradientUnits="userSpaceOnUse"><stop stop-color="#AFCA05"/><stop offset=".651" stop-color="#74BE3A"/><stop offset="1" stop-color="#79B653"/></linearGradient><linearGradient id="f" x1="288.095" y1="107.916" x2="267.413" y2="118.173" gradientUnits="userSpaceOnUse"><stop stop-color="#AFCA05"/><stop offset=".651" stop-color="#74BE3A"/><stop offset="1" stop-color="#79B653"/></linearGradient><linearGradient id="g" x1="255.695" y1="53.502" x2="233.851" y2="76.539" gradientUnits="userSpaceOnUse"><stop stop-color="#AFCA05"/><stop offset=".651" stop-color="#74BE3A"/><stop offset="1" stop-color="#79B653"/></linearGradient><linearGradient id="h" x1="199.448" y1="25.511" x2="190.349" y2="45.899" gradientUnits="userSpaceOnUse"><stop stop-color="#AFCA05"/><stop offset=".651" stop-color="#74BE3A"/><stop offset="1" stop-color="#79B653"/></linearGradient><linearGradient id="i" x1="199.455" y1="279.207" x2="190.357" y2="299.595" gradientUnits="userSpaceOnUse"><stop stop-color="#AFCA05"/><stop offset=".651" stop-color="#74BE3A"/><stop offset="1" stop-color="#79B653"/></linearGradient><linearGradient id="j" x1="255.73" y1="239.903" x2="233.877" y2="262.936" gradientUnits="userSpaceOnUse"><stop stop-color="#AFCA05"/><stop offset=".651" stop-color="#74BE3A"/><stop offset="1" stop-color="#79B653"/></linearGradient><linearGradient id="k" x1="288.094" y1="180.731" x2="267.411" y2="190.99" gradientUnits="userSpaceOnUse"><stop stop-color="#AFCA05"/><stop offset=".651" stop-color="#74BE3A"/><stop offset="1" stop-color="#79B653"/></linearGradient><linearGradient id="l" x1="34.409" y1="180.731" x2="13.727" y2="190.988" gradientUnits="userSpaceOnUse"><stop stop-color="#AFCA05"/><stop offset=".651" stop-color="#74BE3A"/><stop offset="1" stop-color="#79B653"/></linearGradient><linearGradient id="m" x1="69.327" y1="239.944" x2="47.48" y2="262.981" gradientUnits="userSpaceOnUse"><stop stop-color="#AFCA05"/><stop offset=".651" stop-color="#74BE3A"/><stop offset="1" stop-color="#79B653"/></linearGradient><linearGradient id="n" x1="126.639" y1="279.207" x2="117.541" y2="299.596" gradientUnits="userSpaceOnUse"><stop stop-color="#AFCA05"/><stop offset=".651" stop-color="#74BE3A"/><stop offset="1" stop-color="#79B653"/></linearGradient><linearGradient id="o" x1="126.642" y1="25.511" x2="117.543" y2="45.899" gradientUnits="userSpaceOnUse"><stop stop-color="#AFCA05"/><stop offset=".651" stop-color="#74BE3A"/><stop offset="1" stop-color="#79B653"/></linearGradient><linearGradient id="p" x1="69.29" y1="53.533" x2="47.438" y2="76.566" gradientUnits="userSpaceOnUse"><stop stop-color="#AFCA05"/><stop offset=".651" stop-color="#74BE3A"/><stop offset="1" stop-color="#79B653"/></linearGradient><linearGradient id="q" x1="34.405" y1="107.916" x2="13.721" y2="118.175" gradientUnits="userSpaceOnUse"><stop stop-color="#AFCA05"/><stop offset=".651" stop-color="#74BE3A"/><stop offset="1" stop-color="#79B653"/></linearGradient><linearGradient id="r" x1="100.222" y1="116.167" x2="55.17" y2="150.094" gradientUnits="userSpaceOnUse"><stop stop-color="#AFCA05"/><stop offset=".651" stop-color="#74BE3A"/><stop offset="1" stop-color="#79B653"/></linearGradient><linearGradient id="s" x1="142.756" y1="116.167" x2="97.703" y2="150.094" gradientUnits="userSpaceOnUse"><stop stop-color="#AFCA05"/><stop offset=".651" stop-color="#74BE3A"/><stop offset="1" stop-color="#79B653"/></linearGradient><linearGradient id="t" x1="124.983" y1="92.09" x2="97.363" y2="144.504" gradientUnits="userSpaceOnUse"><stop stop-color="#AFCA05"/><stop offset=".651" stop-color="#74BE3A"/><stop offset="1" stop-color="#79B653"/></linearGradient><linearGradient id="u" x1="185.289" y1="116.167" x2="140.237" y2="150.094" gradientUnits="userSpaceOnUse"><stop stop-color="#AFCA05"/><stop offset=".651" stop-color="#74BE3A"/><stop offset="1" stop-color="#79B653"/></linearGradient><linearGradient id="v" x1="227.822" y1="116.167" x2="182.77" y2="150.094" gradientUnits="userSpaceOnUse"><stop stop-color="#AFCA05"/><stop offset=".651" stop-color="#74BE3A"/><stop offset="1" stop-color="#79B653"/></linearGradient><linearGradient id="w" x1="210.049" y1="92.09" x2="182.43" y2="144.504" gradientUnits="userSpaceOnUse"><stop stop-color="#AFCA05"/><stop offset=".651" stop-color="#74BE3A"/><stop offset="1" stop-color="#79B653"/></linearGradient><linearGradient id="x" x1="142.756" y1="179.967" x2="97.703" y2="213.893" gradientUnits="userSpaceOnUse"><stop stop-color="#AFCA05"/><stop offset=".651" stop-color="#74BE3A"/><stop offset="1" stop-color="#79B653"/></linearGradient><linearGradient id="y" x1="185.289" y1="179.967" x2="140.237" y2="213.893" gradientUnits="userSpaceOnUse"><stop stop-color="#AFCA05"/><stop offset=".651" stop-color="#74BE3A"/><stop offset="1" stop-color="#79B653"/></linearGradient><linearGradient id="z" x1="167.516" y1="155.889" x2="139.896" y2="208.304" gradientUnits="userSpaceOnUse"><stop stop-color="#AFCA05"/><stop offset=".651" stop-color="#74BE3A"/><stop offset="1" stop-color="#79B653"/></linearGradient><clipPath id="a"><path fill="#fff" d="M0 0h319v319H0z"/></clipPath></defs></svg>