<svg width="146" height="51" viewBox="0 0 146 51" fill="none" xmlns="http://www.w3.org/2000/svg"><path fill-rule="evenodd" clip-rule="evenodd" d="M92.131 21.47a10.198 10.198 0 0 1 4.106.716 10.269 10.269 0 0 1 5.716 5.73 10.19 10.19 0 0 1 .718 4.032 10.202 10.202 0 0 1-.723 4.023 10.273 10.273 0 0 1-2.244 3.427c-.98.999-2.16 1.784-3.464 2.306a10.187 10.187 0 0 1-4.109.723c-1.809.013-3.589-.45-5.158-1.342a9.288 9.288 0 0 1-3.61-3.596l2.36-1.326a6.353 6.353 0 0 0 2.587 2.642 7.738 7.738 0 0 0 7.35.328 7.675 7.675 0 0 0 2.897-2.434 7.59 7.59 0 0 0 1.37-3.511H89.423v-2.512h10.48a7.414 7.414 0 0 0-2.57-4.825 7.536 7.536 0 0 0-5.203-1.783 7.55 7.55 0 0 0-3.805.991 6.573 6.573 0 0 0-2.603 2.695l-2.36-1.358a9.391 9.391 0 0 1 3.61-3.6 10.358 10.358 0 0 1 5.153-1.326h.005zm27.864 18.04h2.175v6.41h-2.718v-3.876h-13.454v3.87h-2.718v-6.403h1.778c1.261-1.556 1.891-3.925 1.891-7.105V21.841h13.014v17.67h.032zm-11.85 0h9.143V24.354h-7.61v8.086c0 3.061-.514 5.41-1.544 7.045l.011.027zm33.784-.161a10.579 10.579 0 0 1-5.412 2.885 10.634 10.634 0 0 1-6.115-.594 10.537 10.537 0 0 1-4.745-3.872 10.397 10.397 0 0 1-1.764-5.836c-.032-1.394.217-2.78.733-4.078a10.462 10.462 0 0 1 2.272-3.477 10.56 10.56 0 0 1 3.453-2.33 10.638 10.638 0 0 1 8.19 0 10.553 10.553 0 0 1 3.454 2.33c.983.997 1.755 2.18 2.272 3.477.516 1.297.765 2.684.733 4.078a10.025 10.025 0 0 1-.763 4.023 10.1 10.1 0 0 1-2.308 3.394zm-13.101-1.817a8.056 8.056 0 0 0 5.605 2.265 8.052 8.052 0 0 0 5.604-2.265 7.629 7.629 0 0 0 1.706-2.562c.388-.96.575-1.988.55-3.022a7.615 7.615 0 0 0-.547-3.038 7.671 7.671 0 0 0-1.709-2.579 8.052 8.052 0 0 0-5.604-2.264 8.056 8.056 0 0 0-5.605 2.264 7.632 7.632 0 0 0-2.255 5.617 7.591 7.591 0 0 0 2.255 5.584z" fill="#333"/><path fill-rule="evenodd" clip-rule="evenodd" d="M4.234 14.306h70.878v31.511a4.18 4.18 0 0 1-1.24 2.97 4.252 4.252 0 0 1-2.995 1.23H4.234c-1.123 0-2.2-.443-2.994-1.23A4.181 4.181 0 0 1 0 45.816V18.505c0-1.114.446-2.182 1.24-2.97a4.253 4.253 0 0 1 2.994-1.23z" fill="#009EE3"/><path fill-rule="evenodd" clip-rule="evenodd" d="M83.918 10.5c1.424-1.876 2.109-5.11 1-10.5-13.992 2.156-10.991 9.654-9.654 11.999a48.066 48.066 0 0 1 7.24-8.69 52.825 52.825 0 0 0-4.816 8.469c1.887-2.156 4.1-2.27 6.23-1.278zM88.32 14.9c-6.132 6.856-9.42 3.061-10.643 1.002a16.435 16.435 0 0 1 5.914-.808 18.337 18.337 0 0 0-6.257-.782c.745-1.773 3.81-7.007 10.986.588z" fill="#85BC22"/><path fill-rule="evenodd" clip-rule="evenodd" d="M42.812 22.143h1.843v1.827h-1.843v-1.827zm-26.39 11.449l4.576-11.449h3.045l-7.034 16.435c-1.033 2.41-2.387 3.477-4.893 3.574a10.28 10.28 0 0 1-3.805-.669v-2.301c2.376.69 2.686.77 3.534.754 1.157 0 2.136-.614 3.261-3.19L8.328 22.142h2.94l5.154 11.449zm19.954 8.56h-2.538v-5.32a13.45 13.45 0 0 1-3.42.436c-3.56 0-5.674-1.822-5.707-5.422V27.49h2.528v4.458c0 2.188 1.087 3.142 3.18 3.142a13.45 13.45 0 0 0 3.419-.436V27.49h2.538v14.662zm10.111 0c-4.74 0-7.034-3.084-7.034-7.38 0-3.773 2.452-7.271 6.708-7.271 5.305 0 6.31 3.843 6.31 8.02h-10.68a4.53 4.53 0 0 0 1.403 3.3 4.634 4.634 0 0 0 3.374 1.277 5.059 5.059 0 0 0 2.27-.432 5.018 5.018 0 0 0 1.834-1.395l1.631 1.148C51 41.24 49.06 42.152 46.487 42.152zm-.326-12.673c-2.474 0-4 1.925-4.284 4.064h8.257c0-2.193-1.494-4.064-3.973-4.064zm20.618.049H61.82v12.624h-2.527V29.528h-4.892V27.49h12.35v2.027l.027.01zm-19.487-7.369h1.842v1.828h-1.843v-1.828z" fill="#fff"/></svg>