<svg width="514" height="93" viewBox="0 0 514 93" fill="none" xmlns="http://www.w3.org/2000/svg"><g clip-path="url(#a)" fill-rule="evenodd" clip-rule="evenodd"><path d="M186.77 73a19.397 19.397 0 0 1-21.212 4.265A19.4 19.4 0 0 1 153.59 59.24a19.42 19.42 0 1 1 38.83 0A18.804 18.804 0 0 1 186.77 73zm-24.1-3.4a14.74 14.74 0 0 0 20.61 0 14.165 14.165 0 0 0 4.16-10.36 14.23 14.23 0 0 0-4.16-10.42 14.74 14.74 0 0 0-20.61 0 14.236 14.236 0 0 0-4.15 10.42 14.17 14.17 0 0 0 4.15 10.36zm53.79-18.4h4.66V78h-4.66V66.82h-13.87V78h-4.66V51.23h4.66v11.14h13.87V51.2zm34.06 0V78h-4.65V55.73h-10.56v10.93c0 4.393-.883 7.453-2.65 9.18-1.76 1.73-4.25 2.46-7.47 2.17v-4.39a4.301 4.301 0 0 0 4.1-1.2c.91-1.06 1.37-3 1.37-5.87V51.23l19.86-.03zm29.25 0h4.66V78h-4.66v-4.6a11.382 11.382 0 0 1-10.13 5.3 12.845 12.845 0 0 1-9.58-4.1 14.547 14.547 0 0 1 0-20 12.838 12.838 0 0 1 9.58-4.09 11.38 11.38 0 0 1 10.13 5.3V51.2zm-9.54 23a9.17 9.17 0 0 0 6.8-2.76 9.582 9.582 0 0 0-1.409-14.856A9.583 9.583 0 0 0 270.23 55a9.144 9.144 0 0 0-6.74 2.75 9.88 9.88 0 0 0 0 13.66 9.105 9.105 0 0 0 6.74 2.76v.03zm25.66-27v-4.05h14.46v4.07l-14.46-.02zm15.05 4h3.75V78h-4.61V59.21L295.24 78h-3.74V51.23h4.6V70l14.84-18.8zm29.35 0h4.65V78h-4.65V66.82h-13.88V78h-4.66V51.23h4.66v11.14h13.88V51.2zM393.15 78H387l-16.13-18v18h-5V40.52h5v16.93l15.63-16.93h6.11l-16.55 18.21L393.15 78zm23.72-26.78h4.66V78h-4.66v-4.6a11.36 11.36 0 0 1-10.12 5.3 12.856 12.856 0 0 1-9.59-4.1 14.579 14.579 0 0 1 0-20 12.85 12.85 0 0 1 9.59-4.09 11.363 11.363 0 0 1 10.12 5.3v-4.59zm-9.53 23a9.181 9.181 0 0 0 6.8-2.76 9.912 9.912 0 0 0 0-13.66 9.72 9.72 0 0 0-13.55 0 9.912 9.912 0 0 0 0 13.66 9.126 9.126 0 0 0 6.75 2.76zm33.85 4.5a13.77 13.77 0 0 1-14.09-14.1 13.781 13.781 0 0 1 4.033-10.054 13.765 13.765 0 0 1 10.057-4.026c2.503-.038 4.968.62 7.12 1.9a12 12 0 0 1 4.69 5.11l-3.91 2.25a7.932 7.932 0 0 0-3.09-3.42 9.611 9.611 0 0 0-11.52 1.44 9.849 9.849 0 0 0 0 13.55 9.11 9.11 0 0 0 6.73 2.73 9.348 9.348 0 0 0 4.79-1.26 8.397 8.397 0 0 0 3.26-3.4l4 2.31a13.15 13.15 0 0 1-4.93 5.06 13.797 13.797 0 0 1-7.12 1.9l-.02.01zm28.86 0A13.761 13.761 0 0 1 456 64.62a13.757 13.757 0 0 1 14.08-14.08c2.507-.038 4.975.62 7.13 1.9a12 12 0 0 1 4.71 5.11L478 59.8a7.927 7.927 0 0 0-3.13-3.42 9.611 9.611 0 0 0-11.52 1.44 9.849 9.849 0 0 0 0 13.55 9.07 9.07 0 0 0 6.72 2.73 9.321 9.321 0 0 0 4.82-1.26 8.358 8.358 0 0 0 3.27-3.4l4 2.31a13.064 13.064 0 0 1-4.92 5.06 13.83 13.83 0 0 1-7.13 1.9l-.06.01zm38.46-27.48h4.65V78h-4.65v-4.6a11.393 11.393 0 0 1-10.13 5.3 12.84 12.84 0 0 1-9.58-4.1 14.547 14.547 0 0 1 0-20 12.83 12.83 0 0 1 9.58-4.09 11.39 11.39 0 0 1 10.13 5.3v-4.58.01zm-9.54 23a9.17 9.17 0 0 0 6.8-2.76 9.575 9.575 0 0 0 2.216-10.541A9.576 9.576 0 0 0 499 55a9.16 9.16 0 0 0-6.75 2.75 9.912 9.912 0 0 0 0 13.66 9.129 9.129 0 0 0 6.75 2.8l-.03.03z" fill="#fff"/><path d="M7.79 26.54h130.39V85a7.79 7.79 0 0 1-7.79 7.79H7.79A7.79 7.79 0 0 1 0 85V34.33a7.79 7.79 0 0 1 7.79-7.79z" fill="#AFCA05"/><path d="M154.38 19.48C157 16 158.26 10 156.22 0 130.48 4 136 17.91 138.46 22.26a88.993 88.993 0 0 1 13.32-16.12 98.191 98.191 0 0 0-8.86 15.71c3.47-4 7.54-4.21 11.46-2.37zm8.1 8.16c-11.28 12.72-17.33 5.68-19.58 1.86a29.997 29.997 0 0 1 10.88-1.5 33.47 33.47 0 0 0-11.51-1.45c1.37-3.29 7.01-13 20.21 1.09z" fill="#85BC22"/><path d="M78.76 41.08h3.39v3.39h-3.39v-3.39zM30.21 62.32l8.42-21.24h5.6L31.29 71.57c-1.9 4.47-4.39 6.45-9 6.63a18.772 18.772 0 0 1-7-1.24v-4.27c4.37 1.28 4.94 1.43 6.5 1.4 2.13 0 3.93-1.14 6-5.92L15.32 41.08h5.41l9.48 21.24zM66.92 78.2h-4.67v-9.87c-2.053.54-4.167.813-6.29.81-6.55 0-10.44-3.38-10.5-10.06V51h4.65v8.27c0 4.06 2 5.83 5.85 5.83 2.123.003 4.237-.27 6.29-.81V51h4.67v27.2zm18.6 0c-8.72 0-12.94-5.72-12.94-13.69 0-7 4.51-13.49 12.34-13.49 9.76 0 11.61 7.13 11.61 14.88H76.88a8.46 8.46 0 0 0 8.79 8.49A9.24 9.24 0 0 0 93.22 71l3 2.13c-2.4 3.38-5.967 5.07-10.7 5.07zm-.6-23.51c-4.55 0-7.36 3.57-7.88 7.54h15.19c0-4.07-2.75-7.54-7.31-7.54zm37.93.09h-9.12V78.2h-4.65V54.78h-9V51h22.72v3.76l.05.02zM87 41.11h3.39v3.39H87v-3.39z" fill="#fff"/></g><defs><clipPath id="a"><path fill="#fff" d="M0 0h513.16v92.76H0z"/></clipPath></defs></svg>