<svg width="381" height="50" viewBox="0 0 381 50" fill="none" xmlns="http://www.w3.org/2000/svg"><g clip-path="url(#a)" fill-rule="evenodd" clip-rule="evenodd"><path d="M95.262 21.842v20.203h-2.606V24.386h-8.98v17.659H81.07V21.841h14.192zm11.638 5.39a6.512 6.512 0 0 1 2.725.555c.86.38 1.635.942 2.273 1.65a8.006 8.006 0 0 1 2.069 5.39c0 2.004-.74 3.932-2.069 5.39a6.712 6.712 0 0 1-2.273 1.652c-.861.38-1.789.57-2.725.558a5.76 5.76 0 0 1-3.007-.694 6 6 0 0 1-2.262-2.163v8.253h-2.43V27.615h2.43V30.1a5.997 5.997 0 0 1 2.264-2.164 5.761 5.761 0 0 1 3.01-.693l-.005-.011zm-.308 12.759a4.614 4.614 0 0 0 1.909-.365 4.743 4.743 0 0 0 1.609-1.123 5.438 5.438 0 0 0 1.423-3.681c0-1.371-.509-2.689-1.423-3.682a4.978 4.978 0 0 0-3.531-1.483 4.982 4.982 0 0 0-3.531 1.483 5.442 5.442 0 0 0-1.422 3.681c0 1.371.509 2.69 1.422 3.682.46.487 1.012.87 1.622 1.126.61.256 1.264.38 1.922.362zm22.051.232a7.336 7.336 0 0 1-5.211 2.193 7.336 7.336 0 0 1-5.212-2.193 7.836 7.836 0 0 1-2.13-5.39c0-2.017.765-3.952 2.13-5.39a7.287 7.287 0 0 1 3.771-2.091 7.135 7.135 0 0 1 4.259.433 7.421 7.421 0 0 1 3.306 2.81 7.804 7.804 0 0 1 1.235 4.237c.019 1.003-.161 2-.53 2.927a7.307 7.307 0 0 1-1.618 2.464zm-5.211-.26a4.724 4.724 0 0 0 1.909-.37 4.871 4.871 0 0 0 1.618-1.114 5.058 5.058 0 0 0 1.067-1.68c.243-.628.361-1.3.346-1.977a5.163 5.163 0 0 0-.346-1.977 5.038 5.038 0 0 0-1.068-1.679 4.85 4.85 0 0 0-1.617-1.112 4.72 4.72 0 0 0-1.909-.37 4.608 4.608 0 0 0-1.891.363 4.73 4.73 0 0 0-1.596 1.11 5.395 5.395 0 0 0-1.424 3.665c0 1.365.51 2.679 1.424 3.665.452.48.995.86 1.595 1.113.6.254 1.244.378 1.892.364zm19.539-5.34a3.253 3.253 0 0 1 1.616 1.301c.388.604.576 1.322.536 2.045a3.994 3.994 0 0 1-.275 1.594c-.2.506-.5.962-.882 1.339a4.525 4.525 0 0 1-3.32 1.142h-6.978v-14.43h6.421a4.512 4.512 0 0 1 3.236 1.079c.379.36.677.802.875 1.293.198.491.291 1.021.272 1.553a3.542 3.542 0 0 1-.351 1.756 3.39 3.39 0 0 1-1.161 1.332l.011-.005zm-2.987-4.766h-3.955v3.773h3.935c1.417 0 2.121-.647 2.121-1.935s-.704-1.849-2.121-1.849l.02.011zm.522 9.902a2.345 2.345 0 0 0 1.631-.539 1.892 1.892 0 0 0 .573-1.472 1.774 1.774 0 0 0-.129-.77 1.716 1.716 0 0 0-.444-.631 2.362 2.362 0 0 0-1.631-.507h-4.477v3.897l4.477.022zm8.933-3.773a4.798 4.798 0 0 0 1.704 3.008 5.22 5.22 0 0 0 3.335 1.078c1.845 0 3.185-.707 4.019-2.108l2.085 1.213c-1.362 2.156-3.409 3.234-6.14 3.234a7.079 7.079 0 0 1-2.918-.5 7.272 7.272 0 0 1-2.487-1.656 7.4 7.4 0 0 1-1.586-2.5 7.597 7.597 0 0 1-.498-2.944c-.028-1 .138-1.995.488-2.927a7.538 7.538 0 0 1 1.549-2.501 7.04 7.04 0 0 1 2.419-1.65 6.843 6.843 0 0 1 2.856-.506 6.235 6.235 0 0 1 2.748.54c.867.386 1.64.966 2.266 1.697a7.943 7.943 0 0 1 1.938 5.39c0 .377-.028.754-.083 1.126l-11.695.006zm4.831-6.377a4.529 4.529 0 0 0-3.208 1.114 4.828 4.828 0 0 0-1.618 3.074h9.324a4.91 4.91 0 0 0-1.564-3.12 4.391 4.391 0 0 0-2.934-1.079v.011zm17.449-2.366a6.498 6.498 0 0 1 2.723.555 6.69 6.69 0 0 1 2.27 1.65 7.987 7.987 0 0 1 2.075 5.39 7.986 7.986 0 0 1-2.075 5.39 6.7 6.7 0 0 1-2.27 1.652 6.5 6.5 0 0 1-2.723.558 5.773 5.773 0 0 1-3.011-.694 6.015 6.015 0 0 1-2.268-2.163v8.242h-2.424V27.615h2.424V30.1a6.015 6.015 0 0 1 2.268-2.164 5.773 5.773 0 0 1 3.011-.693zm-.307 12.759a4.617 4.617 0 0 0 1.909-.365 4.752 4.752 0 0 0 1.609-1.123 5.442 5.442 0 0 0 1.422-3.682c0-1.37-.509-2.688-1.422-3.681a4.981 4.981 0 0 0-3.531-1.483 4.978 4.978 0 0 0-3.531 1.483 5.424 5.424 0 0 0-1.429 3.681c0 1.372.512 2.69 1.429 3.682.46.487 1.012.87 1.622 1.126a4.637 4.637 0 0 0 1.922.362zm22.072 2.042h-3.013l-6.363-6.834v6.834h-2.429v-14.43h2.429v6.383l6.025-6.382h3.127l-6.671 7.007 6.895 7.422zm12.534-14.435h2.455v14.435h-2.429v-2.48a6.001 6.001 0 0 1-2.265 2.164 5.763 5.763 0 0 1-3.009.694 6.513 6.513 0 0 1-2.726-.558 6.705 6.705 0 0 1-2.272-1.652 8.006 8.006 0 0 1-2.069-5.39c0-2.004.74-3.933 2.069-5.39a6.7 6.7 0 0 1 2.273-1.65 6.503 6.503 0 0 1 2.725-.555 5.76 5.76 0 0 1 3.009.693 6 6 0 0 1 2.265 2.163v-2.468l-.026-.006zm-4.972 12.398a4.652 4.652 0 0 0 1.925-.361 4.78 4.78 0 0 0 1.624-1.127 5.438 5.438 0 0 0 1.423-3.681c0-1.37-.509-2.689-1.423-3.682a4.978 4.978 0 0 0-3.531-1.482 4.981 4.981 0 0 0-3.531 1.482 5.442 5.442 0 0 0-1.422 3.682c0 1.37.509 2.688 1.422 3.681a4.738 4.738 0 0 0 1.607 1.123c.604.256 1.253.38 1.906.365zm29.869 2.038h-3.012l-6.364-6.835v6.834h-2.429v-14.43h2.429v6.383l6.025-6.382h3.127l-6.671 7.007 6.895 7.422zm12.759-1.817a7.343 7.343 0 0 1-5.212 2.192 7.343 7.343 0 0 1-5.212-2.192 7.836 7.836 0 0 1-2.13-5.39c0-2.016.765-3.951 2.13-5.39a7.292 7.292 0 0 1 3.773-2.09 7.137 7.137 0 0 1 4.258.434 7.423 7.423 0 0 1 3.307 2.81 7.802 7.802 0 0 1 1.238 4.236 7.533 7.533 0 0 1-.531 2.926 7.34 7.34 0 0 1-1.616 2.464h-.005zm-5.212-.259a4.724 4.724 0 0 0 1.905-.374 4.854 4.854 0 0 0 1.613-1.113 5.06 5.06 0 0 0 1.065-1.676 5.185 5.185 0 0 0 .347-1.974 5.184 5.184 0 0 0-.347-1.976 5.052 5.052 0 0 0-1.067-1.679 4.85 4.85 0 0 0-1.617-1.113 4.725 4.725 0 0 0-1.91-.369 4.602 4.602 0 0 0-1.89.363c-.6.253-1.143.63-1.596 1.109a5.385 5.385 0 0 0-1.428 3.665c0 1.367.512 2.68 1.428 3.666.452.48.995.859 1.595 1.113a4.585 4.585 0 0 0 1.891.364l.011-.006zm19.904-12.36h2.429v14.435h-2.429v-6.026h-7.245v6.026h-2.423v-14.43h2.423v6.006h7.234v-6.005l.011-.006zm16.495 0v2.426h-4.748v12.01h-2.428V30.04h-4.769v-2.425l11.945-.006zm9.824-.372a6.512 6.512 0 0 1 2.725.555c.861.38 1.636.942 2.274 1.65a8.006 8.006 0 0 1 2.069 5.39c0 2.004-.74 3.932-2.069 5.39a6.713 6.713 0 0 1-2.273 1.653c-.861.38-1.789.57-2.726.558a5.758 5.758 0 0 1-3.009-.693 6 6 0 0 1-2.265-2.164v8.247h-2.429V27.615h2.429V30.1a6 6 0 0 1 2.265-2.164 5.758 5.758 0 0 1 3.009-.693v-.006zm-.307 12.76a4.614 4.614 0 0 0 1.909-.365 4.753 4.753 0 0 0 1.609-1.123 5.443 5.443 0 0 0 1.423-3.682c0-1.37-.51-2.689-1.423-3.682a4.98 4.98 0 0 0-3.531-1.482 4.98 4.98 0 0 0-3.531 1.482 5.443 5.443 0 0 0-1.423 3.682c0 1.37.51 2.689 1.423 3.681.46.487 1.012.87 1.622 1.127.61.256 1.264.379 1.922.361zm21.827-12.398h2.429v14.445h-2.439v-2.48a6.007 6.007 0 0 1-2.265 2.165 5.76 5.76 0 0 1-3.01.693 6.509 6.509 0 0 1-2.725-.558 6.71 6.71 0 0 1-2.273-1.652 8.006 8.006 0 0 1-2.069-5.39c0-2.004.74-3.933 2.069-5.39a6.7 6.7 0 0 1 2.273-1.65 6.506 6.506 0 0 1 2.725-.555 5.758 5.758 0 0 1 3.01.692 6.008 6.008 0 0 1 2.265 2.165v-2.47l.01-.015zm-4.967 12.397a4.646 4.646 0 0 0 1.922-.361 4.776 4.776 0 0 0 1.622-1.127 5.438 5.438 0 0 0 1.423-3.681c0-1.37-.509-2.689-1.423-3.682a4.978 4.978 0 0 0-3.531-1.482 4.981 4.981 0 0 0-3.531 1.482 5.442 5.442 0 0 0-1.422 3.682c0 1.37.509 2.689 1.422 3.681.456.487 1.005.87 1.611 1.128a4.613 4.613 0 0 0 1.912.366l-.005-.006zM321.476 27.6v2.425h-6.739v12.02h-2.429v-14.43l9.168-.015zm3.262 8.376a4.805 4.805 0 0 0 1.72 3.002 5.211 5.211 0 0 0 3.336 1.079c1.84 0 3.179-.707 4.018-2.108l2.085 1.213c-1.355 2.156-3.402 3.234-6.14 3.234a7.081 7.081 0 0 1-2.915-.5 7.267 7.267 0 0 1-2.484-1.656 7.419 7.419 0 0 1-1.587-2.5 7.617 7.617 0 0 1-.498-2.944 7.7 7.7 0 0 1 .487-2.928 7.5 7.5 0 0 1 1.551-2.5 7.03 7.03 0 0 1 2.418-1.652 6.834 6.834 0 0 1 2.856-.505 6.227 6.227 0 0 1 2.746.54 6.42 6.42 0 0 1 2.263 1.697 7.94 7.94 0 0 1 1.939 5.39c0 .378-.028.755-.084 1.127l-11.711.011zm4.832-6.382a4.542 4.542 0 0 0-3.21 1.115 4.848 4.848 0 0 0-1.622 3.073h9.34a4.85 4.85 0 0 0-1.564-3.12 4.376 4.376 0 0 0-2.929-1.079l-.015.011zm19.398-1.994h2.429v14.445h-2.429v-6.026h-7.239v6.026h-2.439v-14.43h2.428v6.006h7.229v-6.005l.021-.016zm16.496 0v2.425h-4.743v12.02h-2.429V30.04h-4.774v-2.425l11.946-.016zm13.118 0h2.402v14.445h-2.428v-2.48a6.007 6.007 0 0 1-2.265 2.165 5.76 5.76 0 0 1-3.01.693 6.517 6.517 0 0 1-2.725-.558 6.712 6.712 0 0 1-2.273-1.652 8.006 8.006 0 0 1-2.069-5.39c0-2.004.74-3.933 2.069-5.39a6.706 6.706 0 0 1 2.274-1.65 6.506 6.506 0 0 1 2.724-.555 5.758 5.758 0 0 1 3.01.692 6.008 6.008 0 0 1 2.265 2.165v-2.47l.026-.015zm-4.967 12.397a4.646 4.646 0 0 0 1.922-.361 4.776 4.776 0 0 0 1.622-1.127 5.442 5.442 0 0 0 1.422-3.681c0-1.37-.509-2.689-1.422-3.682a4.98 4.98 0 0 0-3.531-1.482 4.978 4.978 0 0 0-3.531 1.482 5.443 5.443 0 0 0-1.423 3.682c0 1.37.51 2.689 1.423 3.681.454.485 1 .868 1.603 1.124a4.62 4.62 0 0 0 1.904.37l.011-.006z" fill="#333"/><path d="M4.06 14.305h67.957v31.512a4.273 4.273 0 0 1-1.19 2.969 3.993 3.993 0 0 1-2.87 1.23H4.06a3.993 3.993 0 0 1-2.87-1.23A4.273 4.273 0 0 1 0 45.816V18.505c0-1.114.428-2.181 1.19-2.969a3.993 3.993 0 0 1 2.87-1.23z" fill="#E31724"/><path d="M80.46 10.5c1.366-1.876 2.022-5.11.96-10.5-13.416 2.156-10.54 9.654-9.257 11.999a47.663 47.663 0 0 1 6.942-8.69 53.46 53.46 0 0 0-4.618 8.469c1.809-2.156 3.93-2.27 5.973-1.278zm4.222 4.399c-5.88 6.856-9.032 3.061-10.205 1.002a15.156 15.156 0 0 1 5.67-.808c-1.94-.62-3.97-.884-5.998-.782.714-1.773 3.653-7.007 10.533.588z" fill="#85BC22"/><path d="M41.048 22.143h1.767v1.827h-1.767v-1.827zM15.745 33.592l4.388-11.449h2.919l-6.744 16.435c-.99 2.41-2.288 3.477-4.69 3.574a9.495 9.495 0 0 1-3.65-.669v-2.301c2.278.69 2.575.77 3.389.754 1.11 0 2.048-.614 3.127-3.19l-6.5-14.603h2.82l4.94 11.449zm19.133 8.56h-2.434v-5.32c-1.07.291-2.172.438-3.279.436-3.413 0-5.44-1.822-5.472-5.422V27.49h2.423v4.458c0 2.188 1.043 3.142 3.05 3.142a12.395 12.395 0 0 0 3.278-.436V27.49h2.433v14.662zm9.694 0c-4.545 0-6.745-3.084-6.745-7.38 0-3.773 2.351-7.271 6.432-7.271 5.087 0 6.05 3.843 6.05 8.02H40.07a4.696 4.696 0 0 0 .346 1.793c.232.567.571 1.08 1 1.507.428.428.935.762 1.49.98.557.22 1.15.321 1.745.297a4.677 4.677 0 0 0 2.176-.432 4.839 4.839 0 0 0 1.759-1.395l1.563 1.148c-1.25 1.822-3.11 2.733-5.577 2.733zm-.313-12.673c-2.372 0-3.836 1.925-4.107 4.064h7.917c0-2.193-1.434-4.064-3.81-4.064zm19.768.049h-4.753v12.624h-2.423V29.528H52.16V27.49H64v2.027l.026.01zm-18.684-7.369h1.767v1.828h-1.767v-1.828z" fill="#fff"/></g><defs><clipPath id="a"><path fill="#fff" d="M0 0h381v50H0z"/></clipPath></defs></svg>