<svg width="24" height="22" viewBox="0 0 24 22" fill="none" xmlns="http://www.w3.org/2000/svg"><path d="M11.732 21.812a43.325 43.325 0 0 1-7.594-5.74A14.61 14.61 0 0 1 .5 10.507C-.864 6.41.725 1.725 5.16.334a7.76 7.76 0 0 1 6.848 1.171A7.77 7.77 0 0 1 18.856.334c4.437 1.39 6.036 6.075 4.671 10.174a14.608 14.608 0 0 1-3.615 5.563 43.722 43.722 0 0 1-7.594 5.74L12.02 22l-.287-.188z" fill="#F44336"/><path d="M12.013 22l-.282-.188a43.403 43.403 0 0 1-7.604-5.741 14.612 14.612 0 0 1-3.658-5.563C-.886 6.41.703 1.725 5.14.334c2.342-.71 4.923-.274 6.873 1.183V22z" fill="#F44336"/><path d="M19.477 8.104a.872.872 0 0 1-.621-.321.924.924 0 0 1-.2-.685 1.903 1.903 0 0 0-1.194-1.841.908.908 0 0 1-.636-1.097.87.87 0 0 1 1.037-.664.47.47 0 0 1 .166.06c1.483.55 2.443 2.033 2.367 3.653a.918.918 0 0 1-.275.648.866.866 0 0 1-.644.247z" fill="#fff"/></svg>