<svg width="24" height="30" viewBox="0 0 24 30" fill="none" xmlns="http://www.w3.org/2000/svg"><path d="M12 16.697a5.274 5.274 0 1 0 0-10.549 5.274 5.274 0 0 0 0 10.55z" fill="#D94646"/><path d="M22.177 9.293a.919.919 0 0 1-.298-1.125c.504-1.168.294-1.976.016-2.473-.41-.681-1.137-1.077-2.14-1.175a.948.948 0 0 1-.85-.83c-.1-1.025-.496-1.753-1.202-2.177-.472-.264-1.283-.474-2.441.028-.422.176-.867.063-1.137-.302-1.254-1.65-2.991-1.657-4.255.007a.918.918 0 0 1-1.125.298c-1.166-.503-1.976-.295-2.473-.016-.681.409-1.077 1.137-1.175 2.14a.948.948 0 0 1-.83.85c-1.025.1-1.753.496-2.177 1.202-.264.472-.473 1.28.028 2.442a.924.924 0 0 1-.302 1.136C.991 9.925.572 10.64.572 11.423s.42 1.498 1.251 2.13c.358.266.474.71.298 1.125-.504 1.168-.295 1.975-.016 2.473.41.681 1.137 1.077 2.14 1.175a.948.948 0 0 1 .85.83c.1 1.025.496 1.753 1.202 2.177.472.264 1.28.473 2.442-.028.426-.179.866-.061 1.136.302.627.825 1.341 1.244 2.125 1.244s1.498-.42 2.13-1.251c.266-.358.708-.472 1.125-.298 1.168.504 1.976.294 2.472.016.682-.41 1.078-1.137 1.176-2.14a.948.948 0 0 1 .83-.85c1.025-.1 1.753-.496 2.177-1.202.263-.473.473-1.28-.028-2.442a.924.924 0 0 1 .302-1.136c.825-.627 1.244-1.341 1.244-2.125s-.42-1.498-1.251-2.13zM12 18.455a7.04 7.04 0 0 1-7.032-7.032A7.04 7.04 0 0 1 12 4.39a7.04 7.04 0 0 1 7.032 7.032A7.04 7.04 0 0 1 12 18.455zM8.862 23.25a4.85 4.85 0 0 1-1.462.235 4.006 4.006 0 0 1-1.963-.502 4.356 4.356 0 0 1-.9-.749l-2.042 2.86a.88.88 0 0 0 .715 1.39h2.972l1.516 3.03a.88.88 0 0 0 1.572 0l2.409-4.817c-.807-.063-1.834-.382-2.817-1.447zM19.47 22.243a4.166 4.166 0 0 1-.837.7 4.07 4.07 0 0 1-2.039.54c-.474 0-.963-.078-1.458-.234-.988 1.066-2.011 1.385-2.815 1.448l2.409 4.817a.88.88 0 0 0 1.572 0l1.516-3.03h2.972a.88.88 0 0 0 .716-1.39l-2.037-2.85z" fill="#D94646"/></svg>