<svg width="18" height="14" viewBox="0 0 18 14" fill="none" xmlns="http://www.w3.org/2000/svg"><path d="M11.454 6.861c1.809 0 3.273-1.535 3.273-3.43C14.727 1.535 13.263 0 11.454 0 9.646 0 8.182 1.535 8.182 3.43c0 1.896 1.464 3.431 3.272 3.431zM4.091 5.146V3.43c0-.472-.368-.858-.818-.858-.45 0-.818.386-.818.858v1.715H.818c-.45 0-.818.386-.818.857 0 .472.368.858.818.858h1.637v1.715c0 .472.368.858.818.858.45 0 .818-.386.818-.858V6.861h1.636c.45 0 .818-.386.818-.858 0-.471-.368-.857-.818-.857H4.091zm7.363 3.43c-2.184 0-6.545 1.15-6.545 3.43v.859c0 .471.368.857.818.857h11.455c.45 0 .818-.386.818-.857v-.858c0-2.281-4.36-3.43-6.546-3.43z" fill="#fff"/></svg>