<svg width="16" height="16" viewBox="0 0 16 16" fill="none" xmlns="http://www.w3.org/2000/svg"><path d="M16 6.357a2.002 2.002 0 0 0-2-2H8.571a2.002 2.002 0 0 0-2 2v3.429a2.002 2.002 0 0 0 2 2h1.715c.075 0 .148.03.202.084l2.655 2.655V12.07c0-.157.128-.285.286-.285H14a2.002 2.002 0 0 0 2-2V6.357zm-1.429 3.715H8A.286.286 0 0 1 8 9.5h6.571a.286.286 0 0 1 0 .572zm0-1.715H8a.286.286 0 0 1 0-.571h6.571a.286.286 0 0 1 0 .571zm0-1.714H8a.286.286 0 0 1 0-.572h6.571a.286.286 0 0 1 0 .572z" fill="#93C456"/><path d="M4.94 9.012a.286.286 0 0 1 .203-.083H6V6.357a2.574 2.574 0 0 1 2.571-2.571h.858V3.5a2.002 2.002 0 0 0-2-2H2a2.002 2.002 0 0 0-2 2v3.429a2.002 2.002 0 0 0 2 2h.571c.158 0 .286.127.286.285v1.882l2.084-2.084zM1.144 3.214h6a.286.286 0 0 1 0 .572h-6a.286.286 0 0 1 0-.572zm0 1.715h4.286a.286.286 0 0 1 0 .571H1.143a.286.286 0 0 1 0-.571zm0 2.285a.286.286 0 0 1 0-.571h4a.286.286 0 0 1 0 .571h-4z" fill="#93C456"/></svg>