<svg width="16" height="16" viewBox="0 0 16 16" fill="none" xmlns="http://www.w3.org/2000/svg"><path d="M15.603 6.512l-1.428-.172a6.378 6.378 0 0 0-.635-1.536l.888-1.129a.463.463 0 0 0-.036-.597L12.92 1.606a.464.464 0 0 0-.597-.037l-1.13.89a6.288 6.288 0 0 0-1.534-.634L9.488.397A.464.464 0 0 0 9.04 0H6.959a.462.462 0 0 0-.448.397L6.34 1.825c-.544.145-1.06.36-1.535.634l-1.13-.888a.464.464 0 0 0-.597.036L1.606 3.08a.464.464 0 0 0-.034.597l.887 1.13a6.322 6.322 0 0 0-.634 1.535l-1.428.171A.463.463 0 0 0 0 6.961v2.081c0 .22.179.42.397.448l1.428.171a6.36 6.36 0 0 0 .635 1.533l-.888 1.13a.465.465 0 0 0 .037.598l1.47 1.473a.464.464 0 0 0 .597.036l1.13-.89c.476.276.99.49 1.534.635l.172 1.427a.462.462 0 0 0 .447.397h2.082c.22 0 .421-.178.447-.397l.172-1.427a6.354 6.354 0 0 0 1.534-.634l1.13.888c.174.135.442.12.598-.036l1.471-1.473a.464.464 0 0 0 .036-.598l-.889-1.13c.276-.475.49-.99.635-1.533l1.428-.172A.462.462 0 0 0 16 9.041V6.96a.461.461 0 0 0-.397-.448zm-7.602 5.487A4 4 0 1 1 8 4a4 4 0 0 1 0 8z" fill="#93C456"/></svg>