<svg width="267" height="48" viewBox="0 0 267 48" fill="none" xmlns="http://www.w3.org/2000/svg"><g clip-path="url(#a)" fill-rule="evenodd" clip-rule="evenodd"><path d="M97.177 37.775a10.11 10.11 0 0 1-5.18 2.776 10.145 10.145 0 0 1-5.856-.57 10.083 10.083 0 0 1-4.543-3.72 10 10 0 0 1-1.684-5.606c-.03-1.339.208-2.67.702-3.916a10.045 10.045 0 0 1 2.174-3.337 10.106 10.106 0 0 1 3.306-2.238 10.152 10.152 0 0 1 11.145 2.238c.941.957 1.68 2.092 2.174 3.337a9.993 9.993 0 0 1 .702 3.916 9.677 9.677 0 0 1-.732 3.861 9.724 9.724 0 0 1-2.208 3.259zm-12.539-1.76A7.691 7.691 0 0 0 90 38.19c2.004 0 3.929-.78 5.362-2.173a7.299 7.299 0 0 0 2.165-5.361 7.334 7.334 0 0 0-2.165-5.392A7.691 7.691 0 0 0 90 23.089c-2.004 0-3.929.78-5.362 2.174a7.335 7.335 0 0 0-2.16 5.392 7.292 7.292 0 0 0 2.16 5.36zm27.987-9.52h2.425v13.867h-2.425v-5.785h-7.216v5.785h-2.425V26.51h2.425v5.764h7.216v-5.78zm17.722 0v13.867h-2.419V28.838h-5.495v5.656c0 2.274-.459 3.857-1.379 4.75-.915.896-2.211 1.273-3.886 1.123v-2.271a2.247 2.247 0 0 0 2.133-.621c.473-.549.713-1.553.713-3.038V26.51l10.333-.016zm15.219 0h2.425v13.867h-2.425v-2.38a5.905 5.905 0 0 1-2.264 2.077 5.95 5.95 0 0 1-3.007.666 6.714 6.714 0 0 1-4.984-2.122 7.509 7.509 0 0 1-2.072-5.175c0-1.925.742-3.776 2.072-5.174a6.681 6.681 0 0 1 4.984-2.117 5.948 5.948 0 0 1 3.007.665 5.906 5.906 0 0 1 2.264 2.078v-2.386zm-4.964 11.9a4.795 4.795 0 0 0 3.538-1.427 4.94 4.94 0 0 0-.733-7.688 5.007 5.007 0 0 0-2.805-.82 4.778 4.778 0 0 0-3.507 1.424 5.099 5.099 0 0 0-1.426 3.534c0 1.317.511 2.583 1.426 3.534a4.755 4.755 0 0 0 3.507 1.428v.016zm13.351-13.97v-2.096h7.524v2.106l-7.524-.01zm7.831 2.07h1.951v13.867h-2.399V30.64l-7.721 9.723h-1.946V26.51h2.393v9.712l7.722-9.728zm15.271 0h2.419v13.867h-2.419v-5.785h-7.222v5.785h-2.425V26.51h2.425v5.764h7.222v-5.78zm27.503 13.867h-3.2l-8.392-9.314v9.314h-2.602V20.968h2.602v8.76l8.132-8.76h3.179l-8.611 9.423 8.892 9.971zM216.9 26.505h2.424v13.857H216.9v-2.38a5.9 5.9 0 0 1-2.261 2.077 5.94 5.94 0 0 1-3.005.666 6.726 6.726 0 0 1-2.721-.536 6.686 6.686 0 0 1-2.268-1.586 7.521 7.521 0 0 1-2.066-5.175c0-1.923.739-3.774 2.066-5.174a6.713 6.713 0 0 1 4.989-2.116 5.94 5.94 0 0 1 3.005.664 5.898 5.898 0 0 1 2.261 2.078v-2.375zm-4.959 11.901a4.8 4.8 0 0 0 3.538-1.428 5.112 5.112 0 0 0 1.421-3.534 5.113 5.113 0 0 0-1.421-3.535 5.073 5.073 0 0 0-7.05 0 5.112 5.112 0 0 0 0 7.069 4.748 4.748 0 0 0 3.512 1.428zm17.613 2.329a7.2 7.2 0 0 1-5.237-2.087 7.127 7.127 0 0 1-1.584-2.391 7.083 7.083 0 0 1-.51-2.818 7.117 7.117 0 0 1 2.098-5.203 7.195 7.195 0 0 1 5.233-2.083 7.062 7.062 0 0 1 3.704.983 6.218 6.218 0 0 1 2.44 2.644l-2.034 1.164a4.108 4.108 0 0 0-1.608-1.77 5.022 5.022 0 0 0-5.994.746 5.082 5.082 0 0 0 0 7.011 4.758 4.758 0 0 0 3.502 1.413 4.881 4.881 0 0 0 2.492-.652 4.353 4.353 0 0 0 1.696-1.76l2.082 1.196a6.824 6.824 0 0 1-2.565 2.618 7.213 7.213 0 0 1-3.705.984l-.01.005zm15.016 0a7.194 7.194 0 0 1-5.225-2.093 7.098 7.098 0 0 1-2.086-5.203 7.112 7.112 0 0 1 2.095-5.202 7.167 7.167 0 0 1 5.231-2.084 7.085 7.085 0 0 1 3.71.983 6.226 6.226 0 0 1 2.451 2.644l-2.04 1.164a4.108 4.108 0 0 0-1.628-1.77 5.025 5.025 0 0 0-5.994.746 5.083 5.083 0 0 0-1.405 3.506c0 1.304.503 2.559 1.405 3.505a4.74 4.74 0 0 0 3.496 1.413 4.869 4.869 0 0 0 2.508-.652 4.333 4.333 0 0 0 1.701-1.76l2.082 1.196a6.784 6.784 0 0 1-2.56 2.618 7.23 7.23 0 0 1-3.71.984l-.031.005zm20.011-14.22H267v13.847h-2.419v-2.38a5.916 5.916 0 0 1-2.265 2.077 5.949 5.949 0 0 1-3.006.666 6.69 6.69 0 0 1-4.985-2.122 7.508 7.508 0 0 1-2.071-5.175c0-1.925.741-3.776 2.071-5.174a6.707 6.707 0 0 1 4.985-2.116 5.949 5.949 0 0 1 3.006.665 5.916 5.916 0 0 1 2.265 2.077v-2.37.005zm-4.964 11.902a4.793 4.793 0 0 0 3.538-1.429 4.944 4.944 0 0 0 1.153-5.454 4.962 4.962 0 0 0-1.862-2.252 5.006 5.006 0 0 0-2.814-.821 4.786 4.786 0 0 0-3.512 1.423 5.116 5.116 0 0 0-1.42 3.534c0 1.316.509 2.58 1.42 3.534a4.76 4.76 0 0 0 3.512 1.45l-.015.015z" fill="#111"/><path d="M4.053 13.733h67.843v30.251a4.02 4.02 0 0 1-1.187 2.85 4.064 4.064 0 0 1-2.866 1.181H4.053a4.064 4.064 0 0 1-2.866-1.18A4.02 4.02 0 0 1 0 43.985v-26.22a4.02 4.02 0 0 1 1.187-2.85 4.064 4.064 0 0 1 2.866-1.182z" fill="#AFCA05"/><path d="M80.325 10.08c1.363-1.8 2.019-4.905.957-10.08-13.392 2.07-10.52 9.268-9.24 11.519a46.112 46.112 0 0 1 6.93-8.342 50.75 50.75 0 0 0-4.61 8.13c1.806-2.07 3.923-2.179 5.963-1.227zm4.214 4.223c-5.869 6.582-9.017 2.939-10.187.962a15.688 15.688 0 0 1 5.66-.776 17.504 17.504 0 0 0-5.988-.75c.713-1.703 3.647-6.727 10.515.564z" fill="#85BC22"/><path d="M40.98 21.258h1.763v1.754H40.98v-1.754zm-25.262 10.99l4.381-10.99h2.914L16.28 37.035c-.988 2.313-2.284 3.338-4.682 3.43a9.814 9.814 0 0 1-3.643-.64v-2.21c2.274.662 2.57.74 3.383.724 1.108 0 2.044-.59 3.121-3.063L7.971 21.258h2.815l4.932 10.99zm19.1 8.218H32.39v-5.108c-1.068.28-2.168.421-3.273.42-3.408 0-5.432-1.75-5.463-5.206V26.39h2.42v4.28c0 2.1 1.04 3.016 3.043 3.016 1.105.002 2.205-.14 3.273-.42v-6.876h2.43v14.075zm9.678 0c-4.537 0-6.732-2.96-6.732-7.084 0-3.622 2.346-6.98 6.42-6.98 5.079 0 6.041 3.689 6.041 7.699H40.001a4.357 4.357 0 0 0 1.344 3.168 4.404 4.404 0 0 0 3.23 1.225 4.83 4.83 0 0 0 2.172-.415 4.805 4.805 0 0 0 1.756-1.339l1.56 1.102c-1.248 1.75-3.104 2.624-5.567 2.624zM44.184 28.3c-2.367 0-3.83 1.848-4.1 3.902h7.904c0-2.106-1.431-3.902-3.804-3.902zm19.736.047h-4.746v12.119h-2.42v-12.12h-4.682v-1.955h11.822v1.946l.026.01zm-18.653-7.074h1.763v1.754h-1.763v-1.754z" fill="#fff"/></g><defs><clipPath id="a"><path fill="#fff" d="M0 0h267v48H0z"/></clipPath></defs></svg>